<svg width="44" height="44" viewBox="0 0 44 44" fill="none" xmlns="http://www.w3.org/2000/svg">
<path d="M1 22C1 33.598 10.402 43 22 43C33.598 43 43 33.598 43 22C43 10.402 33.598 1 22 1" stroke="#677F9D"/>
<path d="M22.7197 18.2803C22.4268 17.9874 22.4268 17.5126 22.7197 17.2197C23.0126 16.9268 23.4874 16.9268 23.7803 17.2197L27.7803 21.2197C28.0732 21.5126 28.0732 21.9874 27.7803 22.2803L23.7803 26.2803C23.4874 26.5732 23.0126 26.5732 22.7197 26.2803C22.4268 25.9874 22.4268 25.5126 22.7197 25.2197L25.4393 22.5H15.75C15.3358 22.5 15 22.1642 15 21.75C15 21.3358 15.3358 21 15.75 21H25.4393L22.7197 18.2803Z" fill="#677F9D"/>
</svg>
