<svg id="Слой_1" data-name="Слой 1" xmlns="http://www.w3.org/2000/svg" viewBox="0 0 392 347"><defs><style>.cls-1,.cls-2{fill:#fac51a;}.cls-2{stroke:#fff;stroke-miterlimit:10;stroke-width:12px;}.cls-3{fill:#fefefe;}</style></defs><title>иконки</title><path class="cls-1" d="M177.22,11.71,5,311.54A23,23,0,0,0,24.9,346H369.42a23,23,0,0,0,19.94-34.46L217.1,11.71A23,23,0,0,0,177.22,11.71Z"/><path class="cls-2" d="M177.12,57.34,43.17,288.47A23,23,0,0,0,63.07,323H331a23,23,0,0,0,19.9-34.53L216.92,57.34A23,23,0,0,0,177.12,57.34Z"/><path class="cls-3" d="M230.38,192.14c-2.33,5.55-6.94,9.4-10.64,13.89-19,23-38.15,45.9-57.26,68.82-.92,1.1-1.61,2.49-3.19,2.93-1.33-2.11.15-3.66.78-5.21,7.05-17.15,14.08-34.31,21.35-51.37,1.73-4,1-5.19-3.34-4.92-6.29.38-12.61.26-18.91.47-2.71.1-4.19-.1-2.54-3.42q16.25-32.75,32.29-65.6c.8-1.63,1.74-2.59,3.74-2.58,11.58.08,23.15,0,35.35,0l-28.37,46c6.89,1.12,13.84.2,20.75.5C223.72,191.94,227.09,191.22,230.38,192.14Z"/></svg>