<svg id="Слой_1" data-name="Слой 1" xmlns="http://www.w3.org/2000/svg" viewBox="0 0 392 347"><defs><style>.cls-1,.cls-2{fill:#fb9f09;}.cls-2{stroke:#fff;stroke-miterlimit:10;stroke-width:14px;}.cls-3{fill:#fff;}</style></defs><title>иконки</title><rect class="cls-1" x="70.39" y="43.46" width="251.23" height="260.07" rx="18.2" transform="translate(180.09 -87.78) rotate(45)"/><rect class="cls-2" x="96.08" y="73.58" width="199.85" height="199.85" rx="18.2" transform="translate(180.09 -87.78) rotate(45)"/><path class="cls-3" d="M156,208.77a1.85,1.85,0,0,0,1.23.06,12.68,12.68,0,0,1,1.8-1.18l1.14-.07c.47-.55,1.21-.72,1.73-1.21l1.17-.08a7.08,7.08,0,0,1,1.72-1.2l0-.05a4.1,4.1,0,0,1,2.56-1.22.71.71,0,0,0,.35-.07,6.09,6.09,0,0,1,1.35-.95c1.63.23,2.51-1.43,4-1.59a1.65,1.65,0,0,0,1.57-.71,12.7,12.7,0,0,1,1.09-.71l.39-.35c.28-.36.83-.62.79-1.08s-.64-.28-1-.39a1.35,1.35,0,0,1-1-.51l0,0a1.25,1.25,0,0,1-.4-.36,1.42,1.42,0,0,0-1.32-.84,1.73,1.73,0,0,1-.51-.25c-.53-.52-.94-1.22-1.8-1.3a7.12,7.12,0,0,1-1.12-.13,7,7,0,0,1-.79-.35l-.77-.13c-.79-.63-1.36-1.65-2.6-1.55v0a2.12,2.12,0,0,0-1.74-.83,1.86,1.86,0,0,1-1.17-.65c-.42-.39-.64-1-1.33-1.07a2.84,2.84,0,0,1-.49-.17,23.23,23.23,0,0,0-2.57-1.34c-.37-.05-.73-.1-1.09-.17a2.37,2.37,0,0,1-.53-.18c-.83-.52-1.36-1.57-2.57-1.41a1.72,1.72,0,0,1-1.06-.49l0,0a7.65,7.65,0,0,1-2.66-1.62c-.72-1-1.94-1.11-2.91-1.64l-1.13-.1a2.41,2.41,0,0,0-1.45-.77,2.4,2.4,0,0,1-1.18-.71,1.58,1.58,0,0,0-1.5-.89,1.75,1.75,0,0,1-1.31-.56l-.17-.05-.17,0a8.32,8.32,0,0,0-1-.27c-.37-.33-.59-.83-1.12-1-.17-.06-.33-.14-.5-.21-1.88-1.1-2-1.41-3.47.86a2.45,2.45,0,0,1-1.79,1.77,4.37,4.37,0,0,0-1.87,1.17,4.9,4.9,0,0,1-2.56,1l-.74,0c-1.57-.14-3.15.51-4.73.05-1.22-.1-1.83-1.4-3-1.57-1.36-.24-1.78-1.48-2.51-2.38.09-.82-.38-1.55-.4-2.36s0-1.85,0-2.78c0-1.11.45-2.18.45-3.3a2,2,0,0,1,.29-.87c.44-.47,1-.83,1.19-1.52a4,4,0,0,1,.63-1.22c.6-.29.83-1,1.34-1.34a8.26,8.26,0,0,0,2.53-2.1,2.5,2.5,0,0,1,1.85-.81c2.19-.51,2.54-1.16,1.59-3-.36-1.66-.64-3.32.32-4.88l.42-1.68a2.32,2.32,0,0,0,.85-1.33,2.57,2.57,0,0,1,.21-.52c.46-.72,1.17-1.2,1.69-1.87a3.94,3.94,0,0,0,1.12-1.18,1.8,1.8,0,0,1,.4-.38,4.81,4.81,0,0,0,1.66-1.28c.61-.28.82-1.09,1.57-1.19,1.1.19,2.13-.54,3.23-.22A10.09,10.09,0,0,1,143,147a2.37,2.37,0,0,1,1.62.79,10.07,10.07,0,0,1,1.22,1.54l0,0a2.19,2.19,0,0,1,.72,1.13,17.61,17.61,0,0,1,.58,6,3.93,3.93,0,0,0-.64,2.41,1.29,1.29,0,0,1-.16.57c-.58.63-1.29,1.26,0,1.92a4.34,4.34,0,0,1,.5.2c.89.4,1.39,1.45,2.5,1.47a2,2,0,0,1,.78.29,3.67,3.67,0,0,0,2.32,1.37c.36.13.71.28,1.07.42l.77.07a23.83,23.83,0,0,0,3,1.64l0,0a1.82,1.82,0,0,0,1.46.77,2,2,0,0,1,1.48.71c.41.35.61,1,1.3,1,.36,0,.73,0,1.09.09a3.18,3.18,0,0,1,.53.14c.35.14.59.43.92.59s.47.73.92.85l.47.17a4.52,4.52,0,0,1,.47.18,5.39,5.39,0,0,1,.93.39,1.12,1.12,0,0,1,.38.34,1.39,1.39,0,0,0,1,.7,3.59,3.59,0,0,1,.51.2c.75.39,1.19,1.25,2.13,1.35.37,0,.75,0,1.13,0a5.08,5.08,0,0,1,.87,0,1.83,1.83,0,0,1,.79.36c.5,1,1.58,1.17,2.44,1.67a2.49,2.49,0,0,0,1.82.92A2,2,0,0,1,179,178c.39.43.69,1,1.42.95a2.41,2.41,0,0,1,1.06.3c1,.43,1.81,1.3,3,1.38a2.05,2.05,0,0,1,.82.31,5.78,5.78,0,0,0,2.93,1.83l0,0a2.86,2.86,0,0,0,2,1.13,4,4,0,0,1,1.34.51l.79.05a5.16,5.16,0,0,0,3,1.62l0,.06a1.93,1.93,0,0,0,1.49.73c.74.07,1.44.32,2.18.36s1.29-.3,1.75-.85a2.2,2.2,0,0,1,1.05-.33c.65,0,1.3,0,1.65-.72a2.11,2.11,0,0,1,.4-.39c.83-.53,1.56-1.32,2.7-1.13.67-.13.86-.82,1.34-1.17a3.4,3.4,0,0,0,1.7-1.13l0,0c1-.44,2.15-.35,2.88-1.31l0,0c.93-.39,2.09-.25,2.76-1.22.46-.45,1-.82,1.46-1.25l1.17-.09a3.55,3.55,0,0,0,1.66-1.35,2.05,2.05,0,0,1,1.07-.34c.63,0,1.29,0,1.64-.71a1.67,1.67,0,0,1,.44-.31,4.24,4.24,0,0,0,1.52-1l1.17-.07a12.5,12.5,0,0,0,1.69-1.28c.51-.32.91-.77,1.4-1.11l1.17-.07a6.45,6.45,0,0,0,1.72-1.21l1.16-.08c.54-.46,1.29-.61,1.75-1.2.13,0,.26-.07.4-.08a.78.78,0,0,0,.88-.65.61.61,0,0,1,.57-.49c.33,0,.67-.08,1-.12a9.3,9.3,0,0,1,1.39-.92c1.35.07,2.21-.83,3.13-1.59.45-.43,1-.72,1.45-1.16l1.17-.08a14.73,14.73,0,0,1,1.73-1.19c.21,0,.41,0,.62,0s.55-.14.61-.46a.77.77,0,0,1,.87-.7,3.05,3.05,0,0,0,.41-.05,2.33,2.33,0,0,1,1.31-.5,2.42,2.42,0,0,0,1.8-.71,3.9,3.9,0,0,1,.31-.4c.48-.57-.42-.84-.28-1.34.11-1.15-.53-2.21-.37-3.35a2.74,2.74,0,0,0-.39-1.68,4.35,4.35,0,0,1-.08-1.14,2,2,0,0,1,.08-.54c.52-.48,1-1,.87-1.77,0-.38,0-.75,0-1.13a2.07,2.07,0,0,1,.26-.83c.61-.6,1.18-1.25,1.82-1.82s1.3-.73,1.75-1.36a5.6,5.6,0,0,1,2.55-1,19.33,19.33,0,0,1,4.15.39,1.84,1.84,0,0,0,1.4.74,2.1,2.1,0,0,1,1.47.65c.46.38.69,1,1.27,1.27a1.67,1.67,0,0,1,.36.39,1.92,1.92,0,0,0,1.45,1.06,1.62,1.62,0,0,1,1.24,1.44,2.68,2.68,0,0,0,.76,2c0,.39.06.79.08,1.19,1.25,1.53.94,3.36,1,5.11,0,.92-2.12,1.79-.06,2.76.37,0,.75.08,1.12.15.59.08,1,.53,1.58.66.51.31.77,1,1.5,1a1.78,1.78,0,0,1,.74.3,13.49,13.49,0,0,0,1.64,1.82h0a16.48,16.48,0,0,1,1.19,1.32c.05.2.12.39.15.59.15.86.15.86,1.09,1.08.47.81.27,1.78.62,2.62a8.18,8.18,0,0,0,.37,2.81c.55,1.24-.45,2.19-.72,3.28,0,.31-.05.61-.08.92a2.74,2.74,0,0,1-.3,1.16c-.57.66-1.32,1.11-1.92,1.74h0a6.28,6.28,0,0,1-1.71,1.22l-1.22,0c-1.78.45-3.58.08-5.37.13a2.13,2.13,0,0,1-1.34-.54l-1.64-.46a9.14,9.14,0,0,0-1-1.15,3.38,3.38,0,0,0-1.84-1.22,2.8,2.8,0,0,1-1-.45c-.23-.28-.43-.59-.64-.87a2.58,2.58,0,0,0-3.41.47,6,6,0,0,1-1.58.63,5.11,5.11,0,0,0-1.48.73c-1,.24-1.46,1.38-2.52,1.51a2,2,0,0,0-1.62.65,3.9,3.9,0,0,1-.38.33c-.29.16-.6.25-.88.42a3.7,3.7,0,0,0-.36.33,1.14,1.14,0,0,1-.83.53,2.75,2.75,0,0,0-2.09,1.19,2.12,2.12,0,0,1-1.06.35c-.61.05-1.26,0-1.61.66a1.43,1.43,0,0,1-.42.31c-.44.29-.73.75-1.19,1h0a2.5,2.5,0,0,1-1.33.55c-.74-.08-1.12.45-1.54.91a2.15,2.15,0,0,1-1,.32c-.63,0-1.27,0-1.62.7a1.67,1.67,0,0,1-.44.31,4,4,0,0,0-1.51,1l-1.17.07c-.55.44-1.3.61-1.74,1.22l0,0a5.14,5.14,0,0,0-2.79,1.26,16.46,16.46,0,0,0-1.43,1.22l-1.16.08a6.53,6.53,0,0,0-1.7,1.35c-.91.48-1.57,1.48-2.78,1.32-.81.14-1.18.89-1.82,1.26a3,3,0,0,1-1.05.27c-.2.08-.54,0-.55.31,0,.17.25.25.43.32a8.15,8.15,0,0,1,1,.29,1.12,1.12,0,0,1,.39.32,1.52,1.52,0,0,0,1.18.82c.17,0,.34.1.5.15,1,.21,1.45,1.42,2.57,1.39a2.89,2.89,0,0,1,1.38.53l0,0a4.14,4.14,0,0,1,2.3,1.58c.87,1,2.14,1.19,3.26,1.68H233a2.14,2.14,0,0,0,1.8.85A2.12,2.12,0,0,1,236,207c.38.5.77,1,1.51.92a1.65,1.65,0,0,1,1.32.57l1.25.39c.73,1,1.59.76,2.47.24a15.93,15.93,0,0,0,1.72-1.56v0c.6-.38,1-1,1.62-1.35a7.71,7.71,0,0,0,1.41-1.07l2.41-.08c1.93-1.06,3.89-.36,5.85-.14a2.53,2.53,0,0,1,1.74.6l.78,0c.79.34,1.15,1.11,1.69,1.69h0c.63.43.82,1.17,1.25,1.74,0,.52,0,1,0,1.54-.14,1.45.54,2.91,0,4.35-.59,1.15-1,2.37-1.5,3.55a2.68,2.68,0,0,1-.28.84c-.61.6-1.07,1.33-1.72,1.89a3.16,3.16,0,0,0-1.17,1,1.63,1.63,0,0,1-.38.36,6.54,6.54,0,0,0-1.65,1.22c-.6.27-.77,1-1.38,1.28a3.24,3.24,0,0,1-1.4.37c-1.48.78-.72,2.09-.57,3.11a6,6,0,0,1,.11,2.64.56.56,0,0,1,0,.36,1.9,1.9,0,0,0-.76,1.77,5.81,5.81,0,0,1-.12,1.17,3.36,3.36,0,0,1-.67,1.3,4.07,4.07,0,0,0-1.51,2.55c-.4.65-1.09,1-1.59,1.56h0c-.87.63-1.56,1.62-2.83,1.49a13.57,13.57,0,0,1-3.05,1,21.46,21.46,0,0,1-4.15-.4,2.57,2.57,0,0,0-1.38-.81,3.43,3.43,0,0,1-.52-.23c-.73-.65-1.47-1.28-2.14-2a7.49,7.49,0,0,1-1.56-4.15c-.17-1.93.34-3.79.45-5.69a2.18,2.18,0,0,1,.15-.61,1.92,1.92,0,0,0,.48-2.09,3.23,3.23,0,0,1-.37-.37,1.34,1.34,0,0,0-1.17-.77,1.73,1.73,0,0,1-.73-.29,3.14,3.14,0,0,0-1.79-1.11,4.49,4.49,0,0,1-1.57-.64L225.1,223a7.85,7.85,0,0,0-2.53-1.51,4.69,4.69,0,0,0-2.64-1.45l-.48-.3a1.49,1.49,0,0,0-1.33-.8,2.3,2.3,0,0,1-1.08-.32c-1-.37-1.81-1.35-3-1.33a1.81,1.81,0,0,1-1.09-.52l0-.05a1.37,1.37,0,0,1-.38-.38,1.29,1.29,0,0,0-1-.84,2.23,2.23,0,0,1-.51-.19c-.88-.38-1.34-1.53-2.51-1.36H207.4a2.08,2.08,0,0,1-1.11-.32,2.84,2.84,0,0,0-2.28-1.4,2.13,2.13,0,0,1-.79-.34,5,5,0,0,1-.65-.93,10.1,10.1,0,0,1-2.49-1.4,1.85,1.85,0,0,0-2.13-.48c-1.79,1.15-4.15,1.27-5.56,3.09l-.31.47a6.91,6.91,0,0,1-1.44,1c-1.18-.16-1.89.77-2.82,1.22a6,6,0,0,0-3.63,1.9,2,2,0,0,1-1.1.84l-1.16.09a4.43,4.43,0,0,1-2.45,1.35c-1.49-.16-2.53,1-3.71,1.52a21.3,21.3,0,0,0-3.82,1.91c-1.28,1-2.84,1.46-4.14,2.39-1.77.65-1.45,1.72-.59,2.9l.08,1.2c.87,1.38.45,2.84.24,4.28-.13.83,0,1.67-.13,2.5a4.19,4.19,0,0,1-.17,1,5.29,5.29,0,0,1-1.87,2c-.92.48-1.46,1.52-2.56,1.74l-.45.34a1.45,1.45,0,0,1-1,.51,10.52,10.52,0,0,1-3.53.36,6,6,0,0,1-1.58-.19,22.74,22.74,0,0,0-2.58-1.49,2.36,2.36,0,0,1-1-.54l0,0a3.8,3.8,0,0,1-.83-1.08,18.39,18.39,0,0,0-1.73-1.8h0a16,16,0,0,0-1.42-1.86,10.73,10.73,0,0,0-1.25-3.08,12.77,12.77,0,0,1,0-6c.09-.84.22-1.69-1.08-1.6-.37,0-.74,0-1.12-.05a2.31,2.31,0,0,1-.81-.21c-.65-.47-1-1.23-1.72-1.66a1.67,1.67,0,0,1-.38-.37,1.46,1.46,0,0,0-1.33-.72c-.5-.1-1-.24-1.09-.82a3.06,3.06,0,0,0-1.21-2.56,2.7,2.7,0,0,1-.38-1.14c.23-1-.76-1.39-.93-2.17a9,9,0,0,1,.41-6.38c.23-.79,1-1,1.48-1.63l0,0c.39-.59,1.23-.67,1.53-1.36.53-.51,1.29-.65,1.8-1.17.21,0,.42,0,.63,0a22.12,22.12,0,0,1,6,.43,2.82,2.82,0,0,0,1.44.84,4.42,4.42,0,0,1,1.24.72c.78,1.15,2.34,1.24,3.16,2.33A7,7,0,0,1,156,208.77Z"/><path class="cls-3" d="M232.55,105.77l.07,1.17a6.27,6.27,0,0,0,1.19,1.73l.09,1.18c.47.54.64,1.26,1.16,1.76l.1,1.19a4.63,4.63,0,0,1,1,3.07,8.91,8.91,0,0,0,1.09,3.93.45.45,0,0,1,0,.59c0,1.26,0,2.51,0,3.77.82,1.75.08,3.38-.36,5a19,19,0,0,1-.43,3.35,1.88,1.88,0,0,0-.76,1.84,6.56,6.56,0,0,1-.06,1.17c-.14.78-.89,1.37-.7,2.25a2.56,2.56,0,0,0-1,1.89,1.89,1.89,0,0,1-.67,1.21c-.32.42-.92.6-1.08,1.17-.07.17-.14.34-.22.51-.29.94-1.43,1.42-1.37,2.55a2,2,0,0,1-.27.8c-.56.61-1.22,1.12-1.77,1.74a1.61,1.61,0,0,0-.9,1.47,1.23,1.23,0,0,1-.53.94h0a26.73,26.73,0,0,0-2.83,2.7c-.51.29-1.05.52-1.53.85-3.35.83-2.52,3.7-2.91,6-.15.87.83,1.45.67,2.34l-.12,4.48c-.58,1-.95,2.07-1.6,3l-.05,0a12.19,12.19,0,0,1-1.61,1.44,8,8,0,0,0-1.29,1.1l0,0a2,2,0,0,1-1.42.48c-1.22-.09-1.62-.88-1.67-2,0-.89,0-1.79,0-2.69a8.34,8.34,0,0,1,.11-1.58.93.93,0,0,0-.39-1.12,2.23,2.23,0,0,1-.4-.35c-.19-.18-.38-.56-.59-.47-.72.31-.41,1-.5,1.6,0,1.48,0,3,0,4.44a3.18,3.18,0,0,1-1.1,2.74,12,12,0,0,1-6.55-.06c-1-1.14-.57-2.53-.65-3.83s1-2.9-.58-4.05c-.87-.62-.66.17-.74.58a15.92,15.92,0,0,1-.19,3c-.6,1.61.33,3.46-.76,5-1.87,0-3.68.7-5.56.39a2.7,2.7,0,0,1-1.56-.94l0-1.2c-.68-1.38,0-2.81-.16-4.2-.12-.8.14-1.64-.3-2.39-.42,0-.58-1.82-1.24-.18,0,.21-.09.4-.14.6-.28,2,.06,4.07-.16,6.1a2.11,2.11,0,0,1-.89,1.55,2.78,2.78,0,0,1-1.82.17c-1.59-.57-3.43.35-4.92-.81l-.06-2.91c-.82-1.22,0-2.48-.1-3.71.05-.65,0-1.23-.85-1.31-1.32-.36-.82.69-.95,1.25a30.57,30.57,0,0,1-.19,5c-.15,1-.54,1.71-1.72,1.6-.66-.21-.92-1.12-1.76-1a2.13,2.13,0,0,1-1.57-.85,4,4,0,0,1-.56-1.08c-.76-1-.66-2.52-1.66-3.46a22,22,0,0,1-.1-8.05,1.38,1.38,0,0,0-.41-1.32,4.69,4.69,0,0,0-1.38-1.46c-.44-.74-.85-1.53-1.92-1.42a1.9,1.9,0,0,1-1-.46l0,0a6.84,6.84,0,0,1-1-1.16,6.74,6.74,0,0,0-1.45-1.47,2.28,2.28,0,0,1-.38-.38c-.3-.55-.89-.85-1.22-1.39-.2-.36-.31-.79-.7-1a2.85,2.85,0,0,1-.38-.31,1.47,1.47,0,0,1-.22-.41,4.14,4.14,0,0,0-.26-.61,2.2,2.2,0,0,0-.3-.31,1.57,1.57,0,0,1-.62-.63,2.2,2.2,0,0,0-.63-.66c-.38-.19-.6-.56-1-.77-.43-.4-.68-1-1.09-1.38l0,0a5.54,5.54,0,0,1-1.19-1.75,2.4,2.4,0,0,0-.09-1.16,4.19,4.19,0,0,1-1.17-2.58,2.33,2.33,0,0,0-.08-.36,4.81,4.81,0,0,1-1.25-3.34,12.82,12.82,0,0,0-1-3.72c.17-1.17-.59-2.29-.22-3.48.4-3.34.13-6.73.68-10.07a3.16,3.16,0,0,1,.24-1.32,1.57,1.57,0,0,1,.39-.46,2.77,2.77,0,0,0,1.1-2.2c0-.19,0-.37,0-.56a7.12,7.12,0,0,1,.14-1.13,3.27,3.27,0,0,1,.17-.53c.49-1.08,1.46-1.86,1.82-3a.53.53,0,0,1,.05-.37c.42-.63,1.29-1,1.18-1.93a1.84,1.84,0,0,1,.38-1.05c1.24-.72,1.41-2.25,2.4-3.16a2.63,2.63,0,0,1,.49-.66c.55-.58,1.24-1,1.75-1.64l0,0c.47-.37.86-.82,1.3-1.21h0c.43-.57,1.28-.63,1.6-1.33h0a8.32,8.32,0,0,0,1.32-1.2h0a6.27,6.27,0,0,0,1.62-1.46,5.16,5.16,0,0,1,2.37-1.52,2.06,2.06,0,0,0,1.83-.94,2.1,2.1,0,0,1,1.06-.33c.64,0,1.3,0,1.65-.73a2,2,0,0,1,.44-.33c.78-.14,1.1-1,1.85-1.18.75.11,1.41-.38,2.15-.37,2.47-.57,5.05-.64,7.4-1.72,1.59.27,3.13-.5,4.73-.25,2.07.53,4.18.11,6.26.28a17.43,17.43,0,0,1,5.1,1l0,.1c.88.55,1.66,1.34,2.84,1.12H210a8.62,8.62,0,0,1,1.14.09,2.39,2.39,0,0,1,.54.15c.92.36,1.4,1.45,2.52,1.47a2,2,0,0,1,.77.27,3.94,3.94,0,0,0,2.23,1.39,2.06,2.06,0,0,1,.75.31,4.14,4.14,0,0,0,2.49,1.47,2.62,2.62,0,0,1,.49.27,2,2,0,0,0,1.25,1,2.28,2.28,0,0,1,.51.21c.78.5,1.26,1.33,2,1.85a21.51,21.51,0,0,0,3,2.69c1.18.78,1.15,2.46,2.36,3.22l0,0c.53.47.82,1.14,1.35,1.61C231.76,104.89,232.2,105.29,232.55,105.77Z"/><path class="cls-1" d="M174.38,138.41l-1.17-.09c-.68-.36-.86-1.19-1.49-1.6-.31-.64-1.09-.82-1.41-1.45a5.53,5.53,0,0,1-1.24-5.09c.62-1.06.81-2.38,1.91-3.14l0,0c.5-.53,1.19-.83,1.67-1.38.6-.29.83-1,1.36-1.33a2.3,2.3,0,0,1,1.11-.32c.94.24,1.33-.78,2.11-.93,2.38-.43,4.75-.64,7.05.4,1,.17,1.61,1.23,2.66,1.36a2.47,2.47,0,0,1,.79.36,4.86,4.86,0,0,0,2.56,1.48,2.6,2.6,0,0,1,.45.28c.31.52.8.91,1.16,1.4l0,0c.56.48.73,1.22,1.23,1.74,0,.9,0,1.81,0,2.71a2.79,2.79,0,0,1-.31,1.42,1.79,1.79,0,0,0-.82,1.37,1.94,1.94,0,0,1-.31.76,11.79,11.79,0,0,0-1.76,1.7c-.59.31-.84,1-1.4,1.34a11.16,11.16,0,0,1-1.12.35c-1-.13-1.63.83-2.55.95a11,11,0,0,1-6.43-.38C177,139.91,176,138.49,174.38,138.41Z"/><path class="cls-1" d="M215,122.85a2.74,2.74,0,0,0,.39.09c1.15.41,2.2,1,3.32,1.51.46.43.87.94,1.6.89a2.11,2.11,0,0,1,1.52.9,5.05,5.05,0,0,1,1.23,2.58c0,1,0,1.92,0,2.88a8.13,8.13,0,0,1-.12,1.21,3.87,3.87,0,0,1-.15.56,10.68,10.68,0,0,0-.33,1.59,1.56,1.56,0,0,1-.22.47c-.28.29-.71.41-.88.81a2,2,0,0,1-.52.8h0a1.58,1.58,0,0,1-1,.46c-.62.06-1.28,0-1.62.72a1.85,1.85,0,0,1-.41.38c-.68.33-1.12,1.08-1.95,1.16-.75-.1-1.4.4-2.14.35-1.38-.18-2.68.44-4,.45-.81-.94-1.92-.9-3-.92a2.24,2.24,0,0,1-.87-.29c-1.11-.49-2.32-.8-3.07-1.86a8.34,8.34,0,0,0-1.43-1.8,5,5,0,0,1-1.45-4.38,2.47,2.47,0,0,1,.25-.88,3.69,3.69,0,0,0,1.5-2.52,3,3,0,0,1,.26-.5c.33-.43.89-.66,1.14-1.17a1.85,1.85,0,0,1,.4-.39,6.4,6.4,0,0,0,1.58-1.15c.54-.39,1.12-.71,1.69-1l.81,0A12.94,12.94,0,0,1,215,122.85Z"/></svg>