<svg id="Слой_1" data-name="Слой 1" xmlns="http://www.w3.org/2000/svg" viewBox="0 0 392 347"><defs><style>.cls-1{fill:#fbc51a;}.cls-2,.cls-3{fill:#fb9f09;}.cls-3{stroke:#fff;stroke-miterlimit:10;stroke-width:12px;}.cls-4{fill:#fefefe;}</style></defs><title>иконки</title><path class="cls-1" d="M-437.11,732c.91-.67.8-1.8,1.23-2.69,1.61-.78,2-2.32,2.32-3.87a3.07,3.07,0,0,1,1.5-2c.87-.69.75-1.83,1.23-2.69a4.1,4.1,0,0,0,2.12-3.26,3.58,3.58,0,0,1,1.67-2.65c.4-.91.8-1.81,1.21-2.72a4.18,4.18,0,0,0,2.19-3.09,3.81,3.81,0,0,1,1.32-2l1.54-3.46a4.37,4.37,0,0,0,2.16-3.12,3.72,3.72,0,0,1,1.34-2l1.22-2.66c1.76-.65,2.05-2.24,2.41-3.79a3.66,3.66,0,0,1,1.42-2.12l1.21-2.69c1.68-.67,2.09-2.13,2.29-3.73a22.93,22.93,0,0,1,.44-2.61,3.19,3.19,0,0,1,1.65-2.22,6,6,0,0,0,.61-.07,3.36,3.36,0,0,0,2.21-3c.18-1,.3-2.07.58-3.08a4.29,4.29,0,0,1,1.87-2.52c1-.8,2.54-1.14,2.56-2.84.13-.81.25-1.61.4-2.41a4.7,4.7,0,0,1,1.85-3.18c.93-.93,2.49-1.1,3.05-2.49L-393,658c0-3.37,3.71-4.84,4.15-8,.15-.88.28-1.77.48-2.65a4,4,0,0,1,1.51-2.34c.41-.89.82-1.79,1.22-2.69,1.72-.69,2-2.26,2.38-3.81a3.34,3.34,0,0,1,1.45-2.08c.4-.9.81-1.8,1.21-2.71,1.68-.72,2-2.27,2.36-3.82a3.28,3.28,0,0,1,1.46-2.06l1.23-2.69a4.12,4.12,0,0,0,2.21-3.18c.38-1.88,2.5-2.95,2.36-5.08.67-1.19,2.54-1.45,2.49-3.2.17-.83.31-1.66.54-2.47.22-1.37,1.55-2,2.07-3.19.9-1,2.49-1.37,2.46-3.08.13-.85.25-1.71.45-2.55a3.19,3.19,0,0,1,1.58-2.19,3.83,3.83,0,0,0,.59-.1c1.8-.55,2.13-2.06,2.37-3.64a22.93,22.93,0,0,1,.44-2.61,3.49,3.49,0,0,1,1.58-2.27c.93-.66.85-1.79,1.22-2.7,1.59-.8,2-2.33,2.32-3.89a3,3,0,0,1,1.51-2,3.18,3.18,0,0,1,.62-.07,3.31,3.31,0,0,0,2.23-3,25.79,25.79,0,0,1,.62-3.15c.55-1.69,2.4-2.75,2.28-4.76,1.08-.95,2.48-1.66,2.58-3.36.37-1.95,2.55-3,2.43-5.22,1-1,2.47-1.62,2.58-3.31a4,4,0,0,1,1.43-2.12c.51-1.16,1-2.32,1.52-3.48a4.44,4.44,0,0,0,2.16-3.12,3.31,3.31,0,0,1,1.36-2c.42-.89.83-1.78,1.24-2.67,1.55-.69,2-2.06,2.26-3.58a13.44,13.44,0,0,1,.62-2.5A7.28,7.28,0,0,1-325.6,538c1.38-.81,2.58-1.75,2.59-3.56a12,12,0,0,1,.62-2.44,6.41,6.41,0,0,1,1.78-2.58c1.05-.79,2.48-1.26,2.49-2.94a19.83,19.83,0,0,1,.7-3.05,6.59,6.59,0,0,1,1.8-2.58c1-.83,2.51-1.24,2.51-2.93.13-.83.24-1.66.41-2.48a4.61,4.61,0,0,1,2-3.21c1-.82,2.58-1.19,2.58-2.93.14-.86.25-1.71.44-2.56a3.67,3.67,0,0,1,1.5-2.26c.92-1,.91-2.36,1.52-3.48a4.85,4.85,0,0,0,2.11-3.17,3.05,3.05,0,0,1,1.41-1.93c.9-.68.77-1.82,1.22-2.7,1.64-.76,2-2.29,2.34-3.85a3.16,3.16,0,0,1,1.48-2c.86-.71.73-1.85,1.21-2.72,1.65-.78,2-2.4,2.45-3.92.84-1.5,2.22-2.74,2.27-4.63,2.6-1.49,3.5-4.15,4.58-6.68a12.47,12.47,0,0,1,.36-1.82c.84-1,2.47-1.36,2.47-3.05a16.41,16.41,0,0,1,.63-2.41c.38-1.25,1.5-2.06,2-3.26,1-.94,2.44-1.48,2.5-3.14a10.46,10.46,0,0,1,2.25-4.53c1.31-.93,2.68-1.83,2.65-3.72a19.88,19.88,0,0,1,.51-2.53,4.48,4.48,0,0,1,1.91-2.56c1.14-.76,2.54-1.29,2.51-3a23.78,23.78,0,0,1,.64-3.26c.91-1.65,2.17-3.11,2.6-5l.12.08c1.62-.84,2-2.45,2.43-4,.95-1.47,2.13-2.83,2.34-4.67,2.67-1.58,3.62-4.36,4.86-6.93.15-.54.31-1.08.46-1.61a4.51,4.51,0,0,0,2.14-3.13,3.3,3.3,0,0,1,1.37-2c.43-.88.85-1.76,1.27-2.64a7,7,0,0,0,2.36-4,3.73,3.73,0,0,1,1.32-2.08l1.28-2.6c1.64-.7,2.07-2.16,2.32-3.73a12.42,12.42,0,0,1,.73-2.46c.75-1.57,2-3,2-4.81a7.54,7.54,0,0,0,3.06-3.69,9.4,9.4,0,0,1,1.65-2.57c1.1-.8,2.44-1.4,2.46-3.06.22-2,1.39-3.6,2.45-5.22.85-1.09,2.54-1.51,2.6-3.24a4,4,0,0,1,1.41-2.11h0c.71-2.16,2.32-3.61,4-5a8.86,8.86,0,0,0,3.62-3.85,4.12,4.12,0,0,1,1.5-1.94v0a22.38,22.38,0,0,1,3.24-2.22v0c1.26-.89,2.84-1.25,4-2.38v0c2.27-.37,3.66-3.18,6.37-2.29,1.51.05,2.47-1.11,3.68-1.7l3.44.2a5.42,5.42,0,0,1,2.44-.52,8.17,8.17,0,0,0,4.54-1l-.07-.24a4.13,4.13,0,0,1,3.32-.22c3.17,1,6.34,2.2,9.51,0,1.34.27,2.77.15,4,.89l1.73.52c2.39,2.78,5.78,3.19,9.07,3.81a4.71,4.71,0,0,1,2.42,1.44l-.09.1c2.46.45,3.84,2.76,6.12,3.52a4.93,4.93,0,0,1,1.62.85,9.44,9.44,0,0,0,3.91,3.6,5,5,0,0,1,2,1.4l-.09.1a5.8,5.8,0,0,1,1.12,2.18,24.93,24.93,0,0,0,3.64,4.9l0,0c.63,1.7,2.25,2.7,3,4.31l0,0c1.17,1.45,1.39,3.46,2.77,4.79a12.5,12.5,0,0,1,1.78,2.44l0,0c.66,1.13,1.55,2.11,2.19,3.25h0c1.21,1.08,1.2,2.86,2.3,4l.08,0c.6,1.16,1.52,2.12,2.15,3.27h0c.81,1.3,1.16,2.88,2.39,3.93h0a4.27,4.27,0,0,1,.65,2.41,5.79,5.79,0,0,0,1.31,4.33,3.28,3.28,0,0,0,2.84,2.35,2.72,2.72,0,0,1,1.87,1.46l-.06,0a1.5,1.5,0,0,1,.54,1.05c.35,2.12.25,4.37,1.9,6.08a4.35,4.35,0,0,0,1.88,2.87,5.14,5.14,0,0,1,.73.94h0c1.74,1.58,1.58,4.26,3.35,5.82a5.81,5.81,0,0,1,1.18,1.39h0c1.15,1.09,1.32,2.78,2.4,3.92l0,0a28.4,28.4,0,0,0,2.14,3.28l0,0c1.11,1.13,1.1,2.94,2.42,3.93a19.32,19.32,0,0,0,2.12,3.3l0,0a7.77,7.77,0,0,0,2.22,3.43,9.36,9.36,0,0,1,1.08,2.57,6.85,6.85,0,0,0,1.27,1.71,3.89,3.89,0,0,1,.54,1,4.5,4.5,0,0,0,1.26,1.81,3.78,3.78,0,0,1,1.12,3.27,3.46,3.46,0,0,0,1.3,3.55c.26.3.5.6.75.9h0c-.65,1.57.38,2.21,1.54,2.76,1.14,2.1,2,4.38,3.61,6.18.81.65,1.2,1.64,2,2.33a13.66,13.66,0,0,0,2,3.15l0,0c.67,1.11,1.57,2.08,2.16,3.25l.07,0c.7,1.37,1.16,2.89,2.29,4l.07,0c.62,1.16,1.54,2.12,2.15,3.28v0a1.68,1.68,0,0,1,.46,1.05,8.85,8.85,0,0,0,1.92,2.89l.56.83c.67,2,2.66,3.49,2.38,5.88a19.26,19.26,0,0,0,3.55,7.09,14.16,14.16,0,0,0,3,4.46l0-.06a37.14,37.14,0,0,0,2.15,3.29l0,0c1.11,1.14,1.39,2.76,2.32,4l0,0A29.29,29.29,0,0,0-55,513.6h0c1.08,1.13,1,3,2.34,4h0c.45,1.32,1.69,2,2.48,3.06a25.83,25.83,0,0,0,2.17,4c.36,1.32,1.5,2.17,2.07,3.36a3.94,3.94,0,0,0,.49.78c.54,2,2.32,3.28,3,5.2a12.85,12.85,0,0,0,1.76,2.38v-.06a7.85,7.85,0,0,1,1.84,3.15c-.68,2.79,1.21,4.65,2.44,6.74l0,0c1,1.26,1.59,2.78,2.51,4.09a15,15,0,0,0,2,3.15l.09-.06c.91,1.32,1.55,2.8,2.45,4.13a12.3,12.3,0,0,0,2.05,3.12h0c.85,1.29,1.52,2.69,2.47,3.91a10.07,10.07,0,0,0,2.09,3.29,1.93,1.93,0,0,0,.61.63c.57,1.22,1.32,2.34,2,3.53.69,2.1.34,4.75,3.06,5.77a3.39,3.39,0,0,1,1.85,1.66v-.05c1.25,1.14,1.75,2.76,2.69,4.1a5.06,5.06,0,0,1,.38,2.43,4.72,4.72,0,0,0,1.32,4c1,.95,1.13,2.45,2.2,3.34h0c.95,1.3,1.41,2.89,2.46,4.13a11.22,11.22,0,0,0,2.08,3.11h0c.62,1.16,1.5,2.14,2.21,3.24l0,0a14.68,14.68,0,0,0,2.46,4,42,42,0,0,0,5,7.51l.06,0c1.24,1.07,1.29,2.81,2.25,4l.06-.07a3,3,0,0,1,.77,2.28,4.73,4.73,0,0,0,1.22,3.71,5.81,5.81,0,0,1,.53,1A4.86,4.86,0,0,0,12,628.57a3.71,3.71,0,0,1,.67.95c.62,1.22.81,2.63,1.77,3.68v-.06a18.08,18.08,0,0,0,2.2,3.28h0c1.1,1.13,1,3,2.33,4l0,0a15.24,15.24,0,0,0,2.17,3.27h0c1,1.26,1,3.08,2.46,4,2.21,2.75,3.15,6.31,5.63,8.89a8.49,8.49,0,0,1,1.79,2.54l0,0a25.43,25.43,0,0,1,2.16,3.28l0,0c1.21,1.08,1.28,2.83,2.29,4l0,0a3.75,3.75,0,0,1,.74,2.39c-.32,1.75.78,3,1.58,4.36a9.7,9.7,0,0,0,1.86,3.2l0,0c.86,1.29,1.5,2.72,2.37,4a10.29,10.29,0,0,0,2.18,3.23v0c1,1.23,1,3,2.32,4A16.22,16.22,0,0,0,49,690.66l-.08,0a9.12,9.12,0,0,1,.93,1.91,8.68,8.68,0,0,0,.56.92,6.6,6.6,0,0,1,1.3,1.84,30,30,0,0,1,3,4.6c.56.78,1.32,1.41,1.81,2.25h0c1.19,1.18,1.59,2.86,2.64,4.12a4.71,4.71,0,0,1,.36,2.43c-.27,1.55.53,2.71,1.42,3.82A34.81,34.81,0,0,0,63,715.52a5.92,5.92,0,0,1,.55,1.06c.5,1.23.76,2.59,1.84,3.52.9.95,1.07,2.4,2.17,3.23h0c.51,1,1.26,1.95,1.69,3a14.54,14.54,0,0,0,3.06,4.16c.4,1.59,2.19,2.39,2.36,4.11a76.91,76.91,0,0,0,4.85,7.51l.14-.07a28.94,28.94,0,0,1,2.2,3.25h0c1.21,1.07,1.16,2.88,2.36,4l0,0a3.55,3.55,0,0,1,.66,2.33,4.63,4.63,0,0,0,1.22,3.72,6.68,6.68,0,0,1,.53,1,4.86,4.86,0,0,0,1.61,2.28,4,4,0,0,1,.68,1c.64,1.2.78,2.65,1.8,3.66l0-.09a11.15,11.15,0,0,0,2.19,3.28v0c1,1.22,1,3,2.37,4,.47,1.35,1.72,2.12,2.4,3.31.3,2.4,2.2,3.86,3.39,5.73a10.91,10.91,0,0,1,1.85,2.32c.44,1.26,1.4,2.21,2,3.4l.11-.06c1.07,1.19,1.61,2.7,2.52,4a20,20,0,0,0,2,3.25h0a3.19,3.19,0,0,1,.74,2.29,4.67,4.67,0,0,0,1.22,3.72,5.17,5.17,0,0,1,.53,1.05,8.78,8.78,0,0,0,1.67,3,6.63,6.63,0,0,1,.54,1,4.76,4.76,0,0,0,1.59,2.26,3.68,3.68,0,0,1,.67.93,17.91,17.91,0,0,0,2.1,4.05,15.14,15.14,0,0,0,2.12,2.78.4.4,0,0,1,.07.55c-.09,1.67,1.74,2.11,2.19,3.43.56,1.67,2,2.68,3,4,1,1,1.24,2.46,2.21,3.47l0,0c1.12,1.18,1.43,2.89,2.62,4a19.43,19.43,0,0,0,1.92,3.19h0a23.77,23.77,0,0,1,2.17,3.27h0c.9,1.25,1.27,2.82,2.37,4l.08-.05a6.82,6.82,0,0,1,.9,2.05c.21,1,1.22,1.4,1.65,2.24a4.58,4.58,0,0,1,.33,2.31,3.08,3.08,0,0,0,1.29,3,3.42,3.42,0,0,1,.51,1,4.16,4.16,0,0,0,1.53,2.85,2.81,2.81,0,0,1,.54,1c.6,1.39,2.26,2.17,2.25,3.92a51.4,51.4,0,0,0,3.26,4.63,10.8,10.8,0,0,1,1.74,2.45h0c.64,1.13,1.54,2.11,2.18,3.25h0c1.18,1.08,1.47,2.69,2.33,4l0,0c.62,1.15,1.53,2.12,2.15,3.27l0,0c.74,1.35,1.15,2.9,2.34,4h0c.56,1.34,2,2,2.64,3.27a4.65,4.65,0,0,1,.36,2.44c-.19,1.5-.3,3,1.72,3.3a3,3,0,0,1,1.94,1.53v-.06c.64,2.22,3.35,3.65,2.47,6.44.1,2.19,1.9,3.69,2.35,5.74a7.31,7.31,0,0,1,.06,1.24c-.44,1.77.74,3,1.45,4.4a5.28,5.28,0,0,1,.4,2.45c-.33,1.84,1.2,3,1.58,4.65.67,3-1,6.2.74,9.12-.54,2.55-1.07,5.1-1.62,7.65-.48,2.25-1,4.5-1.48,6.75-2.56,1.42-3,4-3.5,6.51a4.41,4.41,0,0,1-1.27,2.26,1.75,1.75,0,0,0-.34.76c-.24,2.68-2.89,3.4-4.22,5.19-.24.8-.47,1.61-.7,2.42a13.34,13.34,0,0,1-3.13,2.36l.08.12a6.73,6.73,0,0,1-1,.62,2.54,2.54,0,0,0-2.14,2.32,3.09,3.09,0,0,1-1.41,2h0a6,6,0,0,1-3,1.33,11.7,11.7,0,0,1-1.31.27,112,112,0,0,1-16.69,6.91c-2,.69-3.92.2-5.88,0-1.7-.58-2.61,1.14-4,1.41a7.88,7.88,0,0,1-4.8-.25c-3.07-2.08-6.12-.58-9.18.06-2.43-.46-4.9.54-7.31-.23-2.44-.22-4.92-1.46-7.27.31l.08.27a4.82,4.82,0,0,1-4,.18c-3.26-1.79-6.55-.3-9.83,0-3,.14-6.13-.55-9,.9l-3.41-.53a25.1,25.1,0,0,0-14.14-.15L52,972.9a4.7,4.7,0,0,1-3.93.18c-2.8-1.9-5.51.36-8.28.19-3.57-.28-7.15-.82-10.59.68l-4.37-.68c-4.39-.61-8.79-1.62-13.19,0l-4.52-.45a4.37,4.37,0,0,1-3.54.18,5.27,5.27,0,0,0-4.87-.1,5.31,5.31,0,0,1-4.87-.2l-4.2-.63c-4.75,1.29-9.62.55-14.42.85a9.63,9.63,0,0,1-1.42-.15c-2.36-.3-4.76-1.39-7,.35l-3.62-.28a3.61,3.61,0,0,1-2.53.4,6.37,6.37,0,0,1-1.22-.37c-2.49-1.75-4.67.62-7,.56-3.25-1-6.63,0-9.89-.7-3-.89-6,.64-9,.08a6.65,6.65,0,0,1-2,.07c-.45,0-.89-.09-1.33-.15-.66-.08-1.31-.19-2-.29-2.25-.74-4.18.21-6.11,1.17-2.14-.44-4.33.58-6.45-.27-6.42,0-12.87-1.19-19.23.56l-4.44-.69c-3.5-.36-7-.94-10.43.52l-3.63-.39a7.7,7.7,0,0,1-5.29,0c-6.74-.24-13.49-1-20.18.54l-3.61-.25a2.64,2.64,0,0,1-1.33.2c-3.52-1.08-7-1.44-10.48.24-2.11-.64-4.26.2-6.37-.14-3-1.2-6.15-.49-9.24-.28-2.07-.64-4.16,0-6.23-.17a12,12,0,0,1-1.34-.19c-.42,0-.85-.13-1.27-.21a4.77,4.77,0,0,0-4.11.84l-3.6-.26a2.35,2.35,0,0,1-1.28.21c-2.92-.73-5.86-1.71-8.61.51-1.89-.19-3.76-.56-5.64-.78a9.06,9.06,0,0,1-2.89.2,9.61,9.61,0,0,1-2-.55c-3-1.39-6,1.72-9,.14-1.68-.17-3.34.54-5,.08a35.73,35.73,0,0,0-5.06-.53,32.66,32.66,0,0,1-10.85.06c-1.93-.31-3.95-.72-5.62.86-1.27.3-2.49-.22-3.74-.22a7.94,7.94,0,0,1-3,.33c-5.14.24-10.27-.18-15.41-.32a4.79,4.79,0,0,0-3.44.84l-7.25-1c-3.8-.41-7.51.83-11.3.64a17.72,17.72,0,0,1-6.33-.13,25.14,25.14,0,0,0-8.39-.2c-1.39-.12-2.75-.6-4.17-.35a6.73,6.73,0,0,1-1.35.16,14.32,14.32,0,0,1-2-.21,4.76,4.76,0,0,0-4.11.93l-2.71-.18a5.17,5.17,0,0,1-3.45.55,14.42,14.42,0,0,1-2.61-.55c-1.89-1.44-3.43.47-5.16.55-2.06-.21-4.08-.93-6.17-.3a7.79,7.79,0,0,1-1.45-.05c-1-.1-1.93-.25-2.9-.35-5,.49-10-.5-15.07-.38a9.66,9.66,0,0,0-4.43.85l-3.63-.37a3.74,3.74,0,0,1-2.64.38,6.91,6.91,0,0,1-1.27-.39c-2.43-1.82-4.49.64-6.77.6-3.46-1.07-7.06.08-10.53-.69-5.55-.12-11.1.09-16.63-.47a4,4,0,0,0-2.52.86l-3.62-.28a3.77,3.77,0,0,1-2.65.41,7.06,7.06,0,0,1-1.26-.39c-2.37-1.83-4.37.16-6.53.63-3.12-1-6.42,0-9.54-.87-4.18-1.14-8.29.91-12.45.27-.69-.06-1.36-.18-2-.3-2.29-.23-4.64-1.31-6.8.46l-2.71-.19a5.53,5.53,0,0,1-3.91.43c-8.56-.14-17.11-.43-25.66-.35-2.34,0-4.59-.35-6.89-.54a69.73,69.73,0,0,1-7-1.14,19.71,19.71,0,0,1-6.41-2.92l-2.59-.73a8.54,8.54,0,0,0-4.47-3.37,12.4,12.4,0,0,1-1.57-1l.11-.15a8.27,8.27,0,0,0-4.22-3.42,6.09,6.09,0,0,1-.92-.76,3.52,3.52,0,0,0-2.94-2.43,3,3,0,0,1-2-1.42,2.91,2.91,0,0,1-.34-.85,4,4,0,0,0-2.69-3.39c.74-2.19-2.06-2.35-2.29-4l-.07,0a25.39,25.39,0,0,1-2.17-3.27l0,.05c-1.22-1.15-1.41-2.82-2.15-4.21l.24-2.54a3.94,3.94,0,0,1-.81-2c-.17-.74-.57-1.39-.8-2.12a5.56,5.56,0,0,1,.08-1.22,18.09,18.09,0,0,0-1.49-8.83c.55-1.75-.35-3.47,0-5.21.26-5.16,2.35-9.92,3.15-15a4.94,4.94,0,0,1,1.6-2.83c.48-1.18,1-2.36,1.46-3.54a3.28,3.28,0,0,0,2.36-2.59,9.17,9.17,0,0,1,.45-1.13c.25-3,3.49-4.28,4.24-7a21.81,21.81,0,0,1,.67-2.36,6.93,6.93,0,0,1,.51-1.11c1-2.17,3.58-3.34,3.93-6,.16-.86.28-1.71.48-2.56a3.48,3.48,0,0,1,1.49-2.22l1.23-2.68c1.65-.75,2-2.31,2.34-3.86a3.2,3.2,0,0,1,1.48-2.05l1.23-2.66a4,4,0,0,0,2.14-3.26,3.76,3.76,0,0,1,1.64-2.68l1.23-2.68a4.15,4.15,0,0,0,2.2-3.09,3.85,3.85,0,0,1,1.31-2l1.54-3.46a6.81,6.81,0,0,0,2.35-2.45c.17-.37.37-.71.57-1.06.78-3,3.36-5,4.18-8a3.91,3.91,0,0,1,1.45-2.21c.51-.86.36-2,1.19-2.71a3.35,3.35,0,0,0,2.21-3.06c.18-1.08.28-2.17.54-3.24a3.36,3.36,0,0,1,1.63-2.25l.61-.07a3.28,3.28,0,0,0,2.23-3c.18-1.08.29-2.17.55-3.24a3.24,3.24,0,0,1,1.65-2.24l.61-.07a4.9,4.9,0,0,0,2.46-2.29c.16-.36.35-.71.52-1.06,0-3.39,3.84-4.71,4.17-7.91.12-.9.26-1.8.46-2.68a4.17,4.17,0,0,1,1.51-2.4l1.25-2.69c1.72-.68,2-2.26,2.37-3.8a3.56,3.56,0,0,1,1.42-2.11l1.2-2.72c1.76-.65,2-2.24,2.39-3.78a3.48,3.48,0,0,1,1.44-2.09l1.22-2.7a3.74,3.74,0,0,0,2.2-3.19,3.88,3.88,0,0,1,1.63-2.69l1.2-2.71a3.93,3.93,0,0,0,2.23-3.07,4.28,4.28,0,0,1,1.3-2.06c.5-1.16,1-2.31,1.51-3.46a6.15,6.15,0,0,0,2.37-2.35c.16-.36.34-.7.51-1,.06-3.38,3.51-4.82,4.37-7.73a6.7,6.7,0,0,1,.56-1.14c1.19-2.66,3.52-4.68,4.22-7.61.13-.92.28-1.83.49-2.73A3.74,3.74,0,0,1-437.11,732Z"/><path class="cls-2" d="M175.08,11.93,2.82,311.76a23,23,0,0,0,19.94,34.46H367.29a23,23,0,0,0,19.94-34.46L215,11.93A23,23,0,0,0,175.08,11.93Z"/><path class="cls-3" d="M175,57.56,41,288.69a23,23,0,0,0,19.9,34.53H328.82a23,23,0,0,0,19.9-34.53L214.78,57.56A23,23,0,0,0,175,57.56Z"/><path class="cls-4" d="M228.25,192.35c-2.34,5.55-6.95,9.41-10.64,13.9-19,23-38.15,45.9-57.26,68.82-.92,1.1-1.62,2.48-3.2,2.93-1.33-2.12.15-3.66.79-5.21,7-17.15,14.07-34.31,21.35-51.37,1.72-4,1-5.19-3.35-4.92-6.28.38-12.6.26-18.9.47-2.71.1-4.2-.1-2.55-3.42q16.26-32.76,32.29-65.6c.8-1.63,1.75-2.59,3.75-2.58,11.57.07,23.15,0,35.34,0q-14.25,23.11-28.37,46c6.9,1.12,13.84.2,20.76.5C221.58,192.16,225,191.44,228.25,192.35Z"/></svg>