<svg width="57" height="67" viewBox="0 0 57 67" fill="none" xmlns="http://www.w3.org/2000/svg">
<path d="M23.1348 34.416H37.791V49.334H23.1348V34.416Z" fill="#fb9f09"/>
<path d="M54.1326 0.206365L39.4764 4.39387C38.6336 4.63465 38.0527 5.40488 38.0527 6.28125V7.45898H30.4629V1.96289C30.4629 0.878852 29.584 0 28.5 0H18.0312C16.9472 0 16.0684 0.878852 16.0684 1.96289V7.56864C7.24765 8.54826 0.365234 16.0474 0.365234 25.125C0.365234 26.209 1.24409 27.0879 2.32812 27.0879C3.41216 27.0879 4.29102 26.209 4.29102 25.125C4.29102 18.2151 9.41848 12.481 16.0684 11.5256V14.5998C11.5783 17.1659 8.74023 21.9884 8.74023 27.2188V65.0371C8.74023 66.1211 9.61909 67 10.7031 67H35.8281C36.9122 67 37.791 66.1211 37.791 65.0371V53.2598H21.1719C20.0878 53.2598 19.209 52.3809 19.209 51.2969V32.4531C19.209 31.3691 20.0878 30.4902 21.1719 30.4902H37.791V27.2188C37.791 21.7848 34.8218 17.0854 30.4629 14.5989V11.3848H38.0527V12.5625C38.0527 13.4389 38.6336 14.2091 39.4764 14.4499L54.1326 18.6374C55.3849 18.9949 56.6348 18.0541 56.6348 16.75V2.09375C56.6348 0.792092 55.387 -0.152189 54.1326 0.206365Z" fill="#fb9f09"/>
</svg>
