<svg id="Слой_1" data-name="Слой 1" xmlns="http://www.w3.org/2000/svg" viewBox="0 0 392 347"><defs><style>.cls-1,.cls-2{fill:#fac51a;}.cls-2{stroke:#fff;stroke-miterlimit:10;stroke-width:12px;}.cls-3{fill:#fff;}</style></defs><title>иконки</title><path class="cls-1" d="M176.06,12.13,3.8,312a23,23,0,0,0,19.94,34.46H368.26A23,23,0,0,0,388.2,312L215.94,12.13A23,23,0,0,0,176.06,12.13Z"/><path class="cls-2" d="M176,57.75,42,288.88a23,23,0,0,0,19.9,34.54H329.8a23,23,0,0,0,19.9-34.54L215.76,57.75A23,23,0,0,0,176,57.75Z"/><path class="cls-3" d="M128.09,225.66l-1.91-.2a2.12,2.12,0,0,1-1.39.26,5.31,5.31,0,0,1-1.06-.27c-1-.39-2.27-.47-2.8-1.7a35.66,35.66,0,0,1,.62-10.31c1-3.54,1.22-7.25,2.4-10.75a21.51,21.51,0,0,1,.41-2.51,2.43,2.43,0,0,1,.86-1.43l.63-1.4c.92-.36,1.09-1.17,1.2-2,.06-.47.13-.94.22-1.41a17.63,17.63,0,0,1,1.65-4,2.22,2.22,0,0,1,.2-.41,3.88,3.88,0,0,0,1.3-1.67c.34-.84.75-1.64,1.15-2.44l0,0a6.8,6.8,0,0,0,1.44-2,18.31,18.31,0,0,1,1-1.64l.22-.89a6.7,6.7,0,0,0,2.41-3.1v0a4.08,4.08,0,0,0,1.35-1.45,5.47,5.47,0,0,1,2.31-2.16c.94-.5,1.85-1,2-2.21a2.2,2.2,0,0,1,.7-1.13l0,0a10.89,10.89,0,0,1,1.33-.76,4.79,4.79,0,0,0,1.88-2,3,3,0,0,1,.65-1.11,7.63,7.63,0,0,0,2.24-1.63,14.44,14.44,0,0,0,1.8-1.1h0c.57-.6,1.53-.56,2-1.25h0c.61-.32,1.12-.78,1.7-1.16h0c.6-.57,1.57-.51,2.07-1.23v0a2.51,2.51,0,0,1,1.59-.28,1.88,1.88,0,0,1,1.73,1.81,3.2,3.2,0,0,0,.76,2.68c.26.5.22,1.19.88,1.45a4.37,4.37,0,0,1,.48.37.85.85,0,0,1,.31.51,4,4,0,0,0,.63,1.33,10.77,10.77,0,0,1,.35,1.05,4.17,4.17,0,0,0,.29.44,2.09,2.09,0,0,1,.64.86,2.54,2.54,0,0,0,.65.9c.42.31.63.79,1,1.14a5.83,5.83,0,0,0,1,1.58h0c.53.67.76,1.51,1.31,2.16a7.12,7.12,0,0,0,1.07,1.64h0c.5.66.81,1.44,1.29,2.11.19.74.89,1.1,1.26,1.71a12.09,12.09,0,0,0,2.3,3.63,12.31,12.31,0,0,0,1.23,2.29c.26,1.49.33,3,1.39,4.26.32.27.68.48,1,.72a1.65,1.65,0,0,1,.39.48c.35.62.4,1.39.95,1.91l0,0a10.28,10.28,0,0,0,1.13,1.73l0,0c.54.62.47,1.59,1.22,2.09h0a8.7,8.7,0,0,0,1.17,1.7h0a1.36,1.36,0,0,1,.09,1.34c-.6.9-1.81,1.29-2.08,2.47a2.55,2.55,0,0,1-.55.79,5.44,5.44,0,0,0-1.73,1.24,1.74,1.74,0,0,0-.14.38,11.9,11.9,0,0,1-2.29,2.66l0,0c-.47.32-.3.9-.52,1.33a1.56,1.56,0,0,1-.44.41c-.79.28-.8,1-1,1.69a5,5,0,0,1-.65,1.11l-.08-.05c-1.58,3-2.78,6.07-2.18,9.59.16.92-.67,1.2-1.44,1.23a22.15,22.15,0,0,1-3.34-.36c-.92-.37-1.48.46-2.22.68-1-.26-1.92.22-2.88,0-1.71-1.13-3.49.09-5.23-.16-1.54-.27-3.12.27-4.63-.26-2.85,0-5.71.37-8.54-.21-.73-.15-1.11.57-1.74.68C136.86,225.62,132.46,224.85,128.09,225.66Z"/><path class="cls-3" d="M222.12,294l-1.77-.1a11.62,11.62,0,0,0-1.77,1.05l-1.4-.12c-.67.47-1.53.55-2.19,1.05l0,.1a2.68,2.68,0,0,1-1.77.36,6.54,6.54,0,0,0-2.11.26c-3.29-.15-6.4.93-9.6,1.39a6.6,6.6,0,0,1-1.88-.12,3.58,3.58,0,0,1-1.81,0c-1.66-.68-3.32-1.2-5-.06a6.8,6.8,0,0,1-2.09-.45l-.92-.13a3.72,3.72,0,0,1-3,0c-2.13-1-4.47-.77-6.68-1.3-2-.66-4.28-.73-6.11-2-.52-.13-1-.25-1.56-.41s-1.15-.39-1.73-.6c-.56-1.25-1.81-1.05-2.84-1.33a11.28,11.28,0,0,1-3-1.23,4.38,4.38,0,0,1-1-.4l-1.35-.34c-.82-.5-1.29-1.39-2.11-1.89a1.38,1.38,0,0,1-.33-.57,1.1,1.1,0,0,1,.5-1.18l.64-1.41c.88-.38,1.05-1.2,1.23-2a1.71,1.71,0,0,1,.77-1.08l.65-1.41a2.12,2.12,0,0,0,1.15-1.62c.11-1,1.28-1.48,1.21-2.57.2-.77,1.19-.77,1.47-1.49.1-.18.21-.36.32-.54a16.48,16.48,0,0,1,1.83-2.63c.18-.36.33-.73.48-1.1a5.12,5.12,0,0,1,.27-.52c.18-.32.34-.66.53-1a2.86,2.86,0,0,1,.36-.41,3.89,3.89,0,0,0,.7-.81c.09-.16.18-.31.28-.46a7.19,7.19,0,0,0,.32-.76,7.4,7.4,0,0,1,.41-1.11c.43-.94,1.27-1.61,1.74-2.52a8.43,8.43,0,0,1,.83-1.35c.88-.89.9-2.33,1.93-3.13.17-.38.33-.77.48-1.16a6.28,6.28,0,0,1,.27-.59c.19-1.29,1.87-1.5,2-2.81a9.93,9.93,0,0,1,.3-1.31,3.42,3.42,0,0,1,.27-.62c.93-1.15,1.75-2.37,2.61-3.57,1-.92,2-.18,3.07,0q.71.14,1.41.24a5.55,5.55,0,0,1,.71.13,2.45,2.45,0,0,1,1.26.71l-.07.12c1.68.15,2.65,1.9,4.38,1.92a2.6,2.6,0,0,0,2.3-.42l.48.08c2.08,0,4.21.95,6.21-.35,1-.44,2.34.17,3.16-.92a2.55,2.55,0,0,1,1.3-.26,2.22,2.22,0,0,0,2.31-.68l.67-.23a2.85,2.85,0,0,1,2.73.88h0c.63.56.75,1.43,1.25,2.07h0c.34.6.8,1.11,1.15,1.71h0c.57.6.56,1.53,1.2,2.09l0,0c.31.62.79,1.12,1.12,1.73h0c.61.56.57,1.53,1.25,2h0c.33.6.8,1.11,1.14,1.71l0,0c.48.63.64,1.47,1.3,2A9,9,0,0,0,223,264a6.22,6.22,0,0,0,1.51,2.3c.62.91-.36,2.16.66,3a3.68,3.68,0,0,1,.51.37,1.7,1.7,0,0,1,.38.5,5.83,5.83,0,0,0,.92,1.58,3,3,0,0,1,.28.53,2.51,2.51,0,0,0,.85,1.2,2,2,0,0,1,.35.5,7.74,7.74,0,0,0,.93,1.92v0a8.29,8.29,0,0,0,1.14,1.72h0c.59.58.53,1.56,1.25,2.06h0a7.29,7.29,0,0,0,1.14,1.71l0,0c.44.73.55,1.66,1.3,2.21.58,1,1.88,1.84,1.12,3.33-1.08,1.07-2.65,1.4-3.72,2.47a2.42,2.42,0,0,1-.51.38,11,11,0,0,0-1.61.9l0,0c-.64.54-1.53.58-2.15,1.14l-1.36-.13c-.68.48-1.59.48-2.18,1.13l0,.06C223.23,293.16,222.75,293.69,222.12,294Z"/><path class="cls-3" d="M231.54,166.89l.64-1.41c.9-.35,1.14-1.21,1.53-2a2.3,2.3,0,0,1,2.3-1.46,5.49,5.49,0,0,1,1.45.29,3.41,3.41,0,0,1,1.43,1c.47.54.75,1.27,1.54,1.49l.57.28a14.63,14.63,0,0,0,2,1h0a3.85,3.85,0,0,0,.83,1.09,1.9,1.9,0,0,1,.6.66c.52.64.83,1.52,1.85,1.59a2.55,2.55,0,0,1,1.51.8l-.07.08a4.07,4.07,0,0,0,1.93,1.64,2.19,2.19,0,0,1,.77.54,7.21,7.21,0,0,0,1.19,1.75l-.06.06c.49.6.65,1.47,1.48,1.8a1.33,1.33,0,0,1,.38.5c.22,1.11,1.2,1.34,2,1.73a4.3,4.3,0,0,1,.49.38A14.06,14.06,0,0,0,257,180.5l0,0c.6.57.55,1.54,1.25,2h0a13.71,13.71,0,0,0,1.15,1.7h0c.58.57.52,1.55,1.27,2,.31.63.79,1.15,1.15,1.75l.27.42c.35,1,1.44,1.74,1.25,3,0,.22,0,.43,0,.65-.15.73.37,1.14.79,1.6.49,1.07,1.57,1.88,1.53,3.2,0,.21.08.42.11.62a6.38,6.38,0,0,0,.66,1.73c.46,1.09,1.33,2,1.25,3.33s1.06,2.16.93,3.42c-.21.85.53,1.29.82,1.93a3,3,0,0,1,.17,1.6c-.28.88.51,1.34.76,2a7.37,7.37,0,0,1,.19,1.4c-.05.61-.12,1.22-.19,1.83.43,2.4-.43,4.95.9,7.24-.27.88.27,1.95-.61,2.69a12.16,12.16,0,0,1-4.5,0c-2,.24-4-.17-6,0a4.33,4.33,0,0,1-.72,0c-1.26-.23-2.52-.53-3.6.53a3.37,3.37,0,0,1-1.86.14c-.51-.06-1-.14-1.52-.25-2.84-.22-5.7,0-8.52-.44-1.51-1.15-3,.55-4.44.1a11.26,11.26,0,0,1-3.33-.07c-1.12-.09-2.27-.62-3.31.27l-1.42-.09a1.72,1.72,0,0,1-1.22.11c-1.74-.79-3.92-.13-5.42-1.67l.09-1.39a.93.93,0,0,1-.08-.78c.28-.19.49-.39,0-.59a1.8,1.8,0,0,1-.9-.86l.11-1.37a8.46,8.46,0,0,1-.8-2.06c-.16-.49.29-1-.16-1.52v0c-.37-.61-.78-1.19-1.2-1.77a3.84,3.84,0,0,1-.28-.53,4.72,4.72,0,0,0-.88-1.52h0c-.56-.59-.61-1.5-1.26-2a2,2,0,0,0-1.23-1.25,6,6,0,0,1-.57-.28c-1.11-.38-1.35-1.66-2.28-2.22a2,2,0,0,1-.4-.51,2.09,2.09,0,0,0-1.77-1.54,9.12,9.12,0,0,1-1.35-.32,1.39,1.39,0,0,1-.83-.69c-.43-.9.35-1.63.33-2.48a7.45,7.45,0,0,0,2.31-3.12A4.07,4.07,0,0,1,214,196c1.32-.56,1.52-1.9,2.1-3,.15-.39.15-.82.28-1.22.53-.43,1.24-.71,1.3-1.54a4.37,4.37,0,0,1,.4-1.22,1.59,1.59,0,0,1,.49-.44h0c.43-.39.25-1,.54-1.46.56-.41,1.21-.75,1.28-1.56a1.82,1.82,0,0,1,.71-1.06l.65-1.4c.9-.36,1.07-1.18,1.25-2a1.84,1.84,0,0,1,.75-1.1l.65-1.4a2.13,2.13,0,0,0,1.18-1.67c.23-1,1.31-1.58,1.25-2.7.44-.58,1.33-.82,1.34-1.74.2-1,1.35-1.6,1.28-2.74.4-.62,1.33-.82,1.35-1.73A2.11,2.11,0,0,1,231.54,166.89Z"/><path class="cls-3" d="M183.08,215.66a.49.49,0,0,0,.12-.4c.59-.88,1.49-1.46,2.11-2.32a2.59,2.59,0,0,0,1.46-1.51,2.41,2.41,0,0,1,2.15-1.35,2.58,2.58,0,0,0,2-.57l0,0a10.83,10.83,0,0,0,2.18-1.09l1.38.11a14.52,14.52,0,0,1,8.36.22l-.06.09a4.29,4.29,0,0,0,3.31,1.79c.48.06.95.13,1.42.23a2.53,2.53,0,0,1,1.29.75l-.07.08a6.81,6.81,0,0,0,2.63,2.31l.38.11a4.32,4.32,0,0,1,1.05,1.51c.49.75.91,1.53,1.38,2.29l0,0a1.7,1.7,0,0,1,.4,1.22,3.67,3.67,0,0,0,.49,2.38l.11-.05a2.1,2.1,0,0,1,.32,1.42c-.82,1.79.64,3.73-.33,5.51l-.54,2.79c-.45,1.67-1.85,2.88-2.19,4.6-.47,1.3-1.76,1.76-2.65,2.63l0,0a9.6,9.6,0,0,0-1.67,1.32,13.68,13.68,0,0,0-3.25,1.93,1.37,1.37,0,0,1-1.24.45c-1.39-.63-2.18.8-3.34,1-3.31.32-6.41-.64-9.53-1.48a2.52,2.52,0,0,1-1.5-.84,1.57,1.57,0,0,0-.42-.18c-1.27-.3-1.59-1.72-2.67-2.25l-.91-.17c-.3-.8-1.48-.91-1.49-1.92a1.15,1.15,0,0,0-.11-.31,11,11,0,0,0-1.45-2.14,12.52,12.52,0,0,0-1.26-1.9,3.2,3.2,0,0,1-.18-1.47,26.62,26.62,0,0,1,1.38-12.48,6,6,0,0,1,.32-1.17A4.9,4.9,0,0,1,183.08,215.66Z"/></svg>