<svg width="109" height="111" viewBox="0 0 109 111" fill="none" xmlns="http://www.w3.org/2000/svg">
<path d="M54.5001 1C65.0813 1 75.425 4.19637 84.223 10.1849C93.021 16.1734 99.8782 24.6852 103.928 34.6437C107.977 44.6023 109.036 55.5605 106.972 66.1324C104.908 76.7044 99.8123 86.4153 92.3302 94.0373C84.8481 101.659 75.3153 106.85 64.9374 108.953C54.5594 111.056 43.8024 109.976 34.0265 105.851C24.2507 101.726 15.8951 94.741 10.0165 85.7786C4.13785 76.8161 1.00013 66.2791 1.00013 55.5C0.967811 39.8846 6.86663 24.8619 17.4616 13.5769" stroke="white" stroke-width="2" stroke-linecap="round" stroke-linejoin="round"/>
<path d="M54.5 32V59.1698L71.3426 68" stroke="white" stroke-width="2" stroke-linecap="round" stroke-linejoin="round"/>
</svg>
