<svg width="118" height="118" viewBox="0 0 118 118" fill="none" xmlns="http://www.w3.org/2000/svg">
<path d="M114.069 28.9468L117.328 20.2561C117.479 19.8526 117.493 19.4105 117.367 18.9984C117.242 18.5862 116.984 18.2271 116.633 17.9766C116.282 17.7262 115.859 17.5984 115.428 17.6132C114.998 17.6279 114.584 17.7844 114.251 18.0582L82.8891 43.8881C82.0327 44.5963 81.3946 45.5329 81.0488 46.589C80.7031 47.6452 80.6638 48.7778 80.9357 49.8554C81.1116 50.5445 81.308 51.3063 81.4984 52.0346C81.6407 52.5838 81.6082 53.1637 81.4053 53.6935C81.2024 54.2233 80.8394 54.6766 80.3667 54.9903L80.2896 55.0417C79.7883 55.3761 79.1888 55.5315 78.5882 55.4826C77.9876 55.4338 77.4211 55.1836 76.9804 54.7726L72.3203 48.1404L71.2008 42.5426C71.0085 41.5949 71.0061 40.6186 71.1938 39.6699C71.3814 38.7213 71.7553 37.8194 72.2939 37.0162C73.2038 35.6562 74.5391 34.6363 76.0906 34.1163C76.7464 33.8956 77.4394 33.8073 78.1295 33.8563C78.8196 33.9054 79.4931 34.0909 80.111 34.402L85.2636 36.9781C85.5984 37.1454 85.9741 37.2132 86.3462 37.1735C86.7183 37.1338 87.0713 36.9882 87.3632 36.7541C87.6551 36.5199 87.8738 36.2069 87.9932 35.8523C88.1127 35.4976 88.128 35.1162 88.0373 34.7531L86.7818 29.7302C86.3734 28.0966 85.474 26.6275 84.2048 25.5209L85.7681 17.7429C85.9535 16.8055 85.7912 15.8326 85.3112 15.0063C84.8313 14.1799 84.0668 13.5567 83.1607 13.2533L80.5382 12.3726L80.5137 12.3645C80.4327 12.3386 80.35 12.3193 80.2691 12.2963V9.78554C80.2691 9.26648 80.0629 8.76868 79.6958 8.40165C79.3288 8.03463 78.831 7.82843 78.312 7.82843C77.7929 7.82843 77.2951 8.03463 76.9281 8.40165C76.561 8.76868 76.3549 9.26648 76.3549 9.78554V12.2953C76.2731 12.3183 76.1902 12.3376 76.1102 12.3635L76.0857 12.3716L73.4681 13.2511C72.5609 13.5542 71.7952 14.1776 71.3146 15.0047C70.834 15.8317 70.6713 16.8055 70.8571 17.7439L72.1162 24.0093C71.1374 24.2461 70.1797 24.5626 69.2525 24.9556L66.7741 21.2371L69.2183 13.9038C69.6904 12.4831 69.6026 10.9358 68.9728 9.57769C68.3429 8.21957 67.2185 7.153 65.829 6.5957L60.7004 4.5444V1.95711C60.7004 1.43805 60.4942 0.940252 60.1272 0.573223C59.7602 0.206195 59.2624 0 58.7433 0C58.2243 0 57.7265 0.206195 57.3594 0.573223C56.9924 0.940252 56.7862 1.43805 56.7862 1.95711V4.54514L51.6535 6.59643C50.2641 7.15388 49.1398 8.22045 48.5099 9.57852C47.88 10.9366 47.7921 12.4838 48.264 13.9045L50.7087 21.2378L48.23 24.9563C47.3028 24.5632 46.3451 24.2467 45.3662 24.01L46.6259 17.7429C46.8116 16.8053 46.6493 15.8322 46.1693 15.0056C45.6893 14.1791 44.9246 13.5558 44.0183 13.2523L41.3958 12.3716L41.3713 12.3635C41.2903 12.3374 41.2074 12.3183 41.1267 12.2953V9.78554C41.1267 9.26648 40.9205 8.76868 40.5534 8.40165C40.1864 8.03463 39.6886 7.82843 39.1696 7.82843C38.6505 7.82843 38.1527 8.03463 37.7857 8.40165C37.4186 8.76868 37.2124 9.26648 37.2124 9.78554V12.2953C37.1305 12.3183 37.0478 12.3376 36.9678 12.3635L36.9433 12.3716L34.3257 13.2511C33.4184 13.5541 32.6527 14.1775 32.1721 15.0046C31.6914 15.8316 31.5288 16.8055 31.7147 17.7439L33.2772 25.5199C32.0082 26.6266 31.1089 28.0957 30.7007 29.7292L29.4447 34.7521C29.3539 35.1152 29.3692 35.4967 29.4887 35.8514C29.6082 36.2061 29.8269 36.5191 30.1188 36.7533C30.4108 36.9875 30.7638 37.133 31.136 37.1727C31.5081 37.2124 31.8839 37.1445 32.2186 36.9771L37.3712 34.4011C37.9892 34.0899 38.6627 33.9045 39.3528 33.8555C40.0429 33.8064 40.7359 33.8947 41.3916 34.1153C42.9432 34.6353 44.2784 35.6553 45.1881 37.0155C45.7267 37.8186 46.1007 38.7205 46.2883 39.6691C46.476 40.6176 46.4737 41.594 46.2814 42.5416L45.1622 48.1385L40.5019 54.7706C40.0611 55.182 39.4944 55.4324 38.8935 55.4812C38.2926 55.5301 37.6928 55.3745 37.1914 55.0397L37.1156 54.9893C36.6429 54.6756 36.2799 54.2224 36.077 53.6926C35.8741 53.1629 35.8415 52.583 35.9836 52.0339C36.1744 51.3056 36.3704 50.5438 36.5463 49.8546C36.8182 48.777 36.779 47.6444 36.4332 46.5882C36.0875 45.5319 35.4494 44.5954 34.5929 43.8872L3.22702 18.0592C2.89448 17.7852 2.48081 17.6286 2.05019 17.6137C1.61956 17.5988 1.19606 17.7264 0.845372 17.9768C0.494685 18.2271 0.236418 18.5862 0.110636 18.9983C-0.0151457 19.4104 -0.00141072 19.8526 0.14971 20.2561L3.40829 28.9459C5.24201 33.8286 8.31158 38.1519 12.3168 41.4929L13.2151 42.2412L4.18209 41.1122C3.81006 41.0657 3.43249 41.127 3.0943 41.2889C2.75611 41.4507 2.47153 41.7063 2.27442 42.0253C2.0773 42.3442 1.97594 42.713 1.9824 43.0879C1.98886 43.4628 2.10286 43.8279 2.31085 44.1399C5.07628 48.3053 9.08853 51.4892 13.7734 53.2358L15.16 53.7556L5.68025 54.8088C5.27327 54.854 4.89073 55.0258 4.5865 55.2999C4.28227 55.574 4.07168 55.9366 3.98438 56.3367C3.89708 56.7367 3.93746 57.1541 4.09985 57.53C4.26224 57.9059 4.53845 58.2215 4.88958 58.4321L8.32064 60.4917C12.4276 62.9606 16.9373 64.6867 21.6432 65.5908C18.6471 67.6489 16.0712 70.2598 14.0537 73.2834C13.8569 73.5782 13.7439 73.9209 13.7266 74.275C13.7094 74.629 13.7887 74.9811 13.9559 75.2936C14.1232 75.6061 14.3722 75.8673 14.6763 76.0494C14.9805 76.2314 15.3283 76.3274 15.6828 76.3272H16.4546C20.2537 76.3307 24.0042 75.4745 27.4254 73.8228V78.2843C27.4255 78.6713 27.5403 79.0496 27.7554 79.3714C27.9705 79.6932 28.2761 79.9439 28.6336 80.092C28.9912 80.2401 29.3847 80.2789 29.7642 80.2034C30.1438 80.1279 30.4925 79.9416 30.7662 79.668L35.2539 75.1806L37.7842 77.7109C37.9889 77.9156 38.2365 78.0724 38.5092 78.1698C38.7818 78.2673 39.0727 78.3031 39.3608 78.2746C39.649 78.246 39.9272 78.1539 40.1755 78.0049C40.4237 77.8558 40.6358 77.6536 40.7964 77.4127L42.5394 74.7982C43.1465 73.886 44.0192 73.1823 45.0394 72.7824V73.0781C45.0364 74.6351 44.4196 76.128 43.3228 77.2331L41.9332 78.6226C40.4311 80.1169 39.2403 81.8942 38.4297 83.8518C37.6191 85.8093 37.2049 87.9082 37.211 90.0269C37.2112 90.507 37.3879 90.9702 37.7075 91.3285C38.027 91.6868 38.4671 91.9151 38.944 91.9701L37.8201 94.2178L35.3772 94.8294L30.3834 89.2446C31.0591 88.1713 31.3688 86.908 31.266 85.6439C31.1633 84.3797 30.6535 83.183 29.8133 82.233C28.9731 81.283 27.8476 80.6309 26.6055 80.3744C25.3634 80.118 24.0716 80.271 22.9239 80.8105C21.7761 81.3501 20.8341 82.2471 20.2391 83.3672C19.644 84.4872 19.4281 85.7699 19.6235 87.0231C19.8189 88.2762 20.4152 89.4322 21.323 90.3179C22.2308 91.2036 23.4012 91.7712 24.6588 91.9356C24.9131 91.969 25.1693 91.9857 25.4258 91.9858C26.0637 91.984 26.6971 91.8773 27.3004 91.6699L31.085 95.9022L30.8648 95.9572C30.6155 96.0196 30.3808 96.1304 30.1743 96.2834C29.9678 96.4364 29.7935 96.6286 29.6612 96.849C29.3942 97.2942 29.3149 97.8271 29.4408 98.3307C29.5667 98.8343 29.8875 99.2672 30.3326 99.5343C30.7777 99.8014 31.3107 99.8807 31.8143 99.7548L34.0405 99.1984L35.7581 101.104C35.9302 101.295 36.1382 101.45 36.3702 101.561C36.6022 101.671 36.8538 101.735 37.1105 101.748C37.3671 101.761 37.6239 101.724 37.8662 101.638C38.1084 101.552 38.3313 101.419 38.5222 101.247C38.7132 101.075 38.8683 100.867 38.9788 100.635C39.0893 100.403 39.1531 100.152 39.1664 99.8949C39.1797 99.6382 39.1423 99.3814 39.0564 99.1392C38.9705 98.897 38.8377 98.674 38.6656 98.4831L38.3412 98.1233L39.6437 97.7976C39.9176 97.7291 40.1734 97.6022 40.3936 97.4255C40.6138 97.2488 40.7932 97.0266 40.9195 96.7741L43.3132 91.9841H45.0394C45.4029 91.984 45.7591 91.8828 46.0683 91.6917C46.3775 91.5005 46.6273 91.2271 46.7898 90.902C47.6057 89.2602 48.8161 87.8464 50.3126 86.7872L50.8691 87.6222L46.2528 95.7006C44.1766 99.3377 43.0839 103.453 43.0823 107.641C43.0823 108.16 43.2885 108.658 43.6555 109.025C44.0226 109.392 44.5204 109.598 45.0394 109.598C45.5585 109.598 46.0563 109.392 46.4233 109.025C46.7903 108.658 46.9965 108.16 46.9965 107.641C46.998 104.134 47.9131 100.688 49.6516 97.6428L52.3247 92.9648L52.0904 93.5505C49.9784 98.8006 49.5858 104.585 50.9692 110.073C51.0306 110.323 51.1408 110.559 51.2936 110.766C51.4463 110.974 51.6386 111.149 51.8593 111.283C52.08 111.416 52.3249 111.504 52.5798 111.542C52.8347 111.58 53.0947 111.568 53.3447 111.505C53.5948 111.443 53.8301 111.331 54.037 111.178C54.2439 111.024 54.4184 110.831 54.5505 110.61C54.6827 110.388 54.7697 110.143 54.8068 109.888C54.8438 109.633 54.8301 109.373 54.7665 109.123C53.5845 104.434 53.92 99.4907 55.7247 95.0041L55.7492 94.942L56.7816 96.4905V115.469C56.7816 115.988 56.9878 116.486 57.3548 116.853C57.7218 117.22 58.2196 117.426 58.7387 117.426C59.2577 117.426 59.7555 117.22 60.1226 116.853C60.4896 116.486 60.6958 115.988 60.6958 115.469V96.4896L61.7282 94.941L61.7526 95.0031C63.5574 99.4897 63.8929 104.433 62.7109 109.122C62.6472 109.372 62.6335 109.632 62.6706 109.887C62.7076 110.142 62.7947 110.387 62.9268 110.609C63.0589 110.83 63.2334 111.023 63.4404 111.177C63.6473 111.33 63.8825 111.442 64.1326 111.504C64.3827 111.567 64.6426 111.579 64.8975 111.541C65.1525 111.503 65.3973 111.415 65.618 111.282C65.8388 111.148 66.031 110.973 66.1838 110.765C66.3365 110.558 66.4468 110.322 66.5081 110.072C67.8913 104.584 67.4987 98.7996 65.3867 93.5495L65.1524 92.9624L67.8258 97.6411C69.5648 100.687 70.4803 104.133 70.4818 107.641C70.4818 108.16 70.688 108.658 71.055 109.025C71.4221 109.392 71.9199 109.598 72.4389 109.598C72.958 109.598 73.4558 109.392 73.8228 109.025C74.1898 108.658 74.396 108.16 74.396 107.641C74.3942 103.453 73.3014 99.3377 71.2253 95.7006L66.6087 87.6222L67.1653 86.7872C68.6617 87.8464 69.8721 89.2602 70.688 90.902C70.8506 91.2272 71.1005 91.5007 71.4098 91.6918C71.719 91.8829 72.0754 91.9841 72.4389 91.9841H74.1651L76.5599 96.7733C76.686 97.0256 76.8652 97.2477 77.0851 97.4242C77.3051 97.6008 77.5606 97.7278 77.8342 97.7964L82.8967 99.0663C83.4334 100.279 84.2692 101.335 85.3258 102.136C86.3824 102.937 87.6252 103.457 88.9375 103.646C90.2499 103.835 91.5888 103.688 92.8288 103.219C94.0687 102.749 95.169 101.972 96.0265 100.96C96.8839 99.9491 97.4705 98.7365 97.7311 97.4364C97.9917 96.1363 97.9177 94.7914 97.5163 93.5276C97.1148 92.2639 96.399 91.1229 95.4359 90.2116C94.4727 89.3003 93.2939 88.6485 92.01 88.3174V86.1127C92.01 85.5937 91.8038 85.0959 91.4368 84.7288C91.0697 84.3618 90.5719 84.1556 90.0529 84.1556C89.5338 84.1556 89.036 84.3618 88.669 84.7288C88.302 85.0959 88.0958 85.5937 88.0958 86.1127V88.3174C86.5858 88.7105 85.2273 89.5447 84.1938 90.7135C83.1602 91.8823 82.4984 93.3327 82.293 94.8793L79.6587 94.2188L78.5334 91.9704C79.0105 91.9156 79.4508 91.6873 79.7706 91.329C80.0903 90.9706 80.2671 90.5072 80.2673 90.0269C80.2735 87.9083 79.8594 85.8094 79.0489 83.8519C78.2385 81.8943 77.0478 80.1169 75.5458 78.6226L74.1563 77.2331C73.0596 76.128 72.4428 74.6351 72.4397 73.0781V72.7824C73.4598 73.1824 74.3325 73.886 74.9396 74.7982L76.6827 77.4127C76.8433 77.6536 77.0554 77.8558 77.3036 78.0049C77.5518 78.1539 77.8301 78.246 78.1182 78.2746C78.4064 78.3031 78.6972 78.2673 78.9699 78.1698C79.2425 78.0724 79.4902 77.9156 79.6949 77.7109L82.2252 75.1806L86.7126 79.668C86.9863 79.9414 87.335 80.1276 87.7145 80.203C88.094 80.2784 88.4873 80.2396 88.8448 80.0915C89.2022 79.9434 89.5078 79.6927 89.7228 79.3711C89.9379 79.0494 90.0527 78.6712 90.0529 78.2843V73.8219C93.474 75.4739 97.2246 76.3304 101.024 76.3272H101.796C102.15 76.3272 102.497 76.231 102.801 76.049C103.105 75.8669 103.354 75.6058 103.521 75.2935C103.688 74.9812 103.767 74.6293 103.75 74.2755C103.733 73.9217 103.62 73.5791 103.424 73.2844C101.406 70.2608 98.8307 67.6499 95.8347 65.5917C100.54 64.6876 105.05 62.9616 109.157 60.4927L112.588 58.4341C112.939 58.2234 113.215 57.9079 113.378 57.532C113.54 57.1561 113.581 56.7387 113.493 56.3386C113.406 55.9386 113.195 55.5759 112.891 55.3018C112.587 55.0278 112.204 54.856 111.797 54.8108L102.318 53.7576L103.704 53.2377C108.389 51.4911 112.401 48.3073 115.167 44.1418C115.375 43.8298 115.489 43.4645 115.496 43.0894C115.503 42.7144 115.401 42.3453 115.204 42.0261C115.007 41.707 114.722 41.4513 114.384 41.2894C114.045 41.1276 113.667 41.0664 113.295 41.1132L104.262 42.2422L105.16 41.4939C109.166 38.153 112.235 33.8297 114.069 28.9468ZM25.1682 88.0527C24.6763 87.9872 24.2277 87.7374 23.9131 87.3537C23.5985 86.9701 23.4413 86.4812 23.4734 85.9861C23.5055 85.491 23.7245 85.0265 24.086 84.6867C24.4476 84.3469 24.9247 84.157 25.4209 84.1556C25.8252 84.1549 26.2199 84.2797 26.5504 84.5127C26.8809 84.7457 27.1309 85.0755 27.2661 85.4566C27.4013 85.8377 27.4149 86.2514 27.305 86.6406C27.1952 87.0297 26.9673 87.3753 26.6529 87.6295C26.6147 87.6557 26.5775 87.684 26.5408 87.7132C26.1418 87.9939 25.6521 88.115 25.1682 88.0527ZM90.0529 99.8125C89.3667 99.8116 88.6928 99.6303 88.0988 99.2868C87.5047 98.9433 87.0114 98.4496 86.6683 97.8554H93.4375C93.0944 98.4496 92.6011 98.9433 92.007 99.2868C91.413 99.6303 90.7391 99.8116 90.0529 99.8125ZM93.4375 93.9412H92.01V92.5137C92.6019 92.8573 93.0939 93.3493 93.4375 93.9412ZM88.0958 92.5137V93.9412H86.6683C87.0119 93.3491 87.5039 92.8567 88.0958 92.5127V92.5137ZM48.9536 50.8848H68.5247V73.506C68.5251 73.9169 68.396 74.3174 68.1558 74.6508C67.9156 74.9841 67.5764 75.2332 67.1865 75.3628L58.7392 78.1786L50.2918 75.3628C49.9019 75.2332 49.5627 74.9841 49.3225 74.6508C49.0823 74.3174 48.9532 73.9169 48.9536 73.506V50.8848ZM81.8617 30.9003C80.7844 30.3579 79.6103 30.0346 78.4073 29.949C77.2042 29.8635 75.9962 30.0174 74.853 30.402C72.4763 31.1985 70.431 32.7607 69.0372 34.8441C68.2123 36.0742 67.6395 37.4557 67.352 38.9086C67.0646 40.3615 67.0681 41.857 67.3624 43.3086L68.0946 46.9706H60.9957L61.9919 39.9984C62.4914 36.5017 64.2354 33.3025 66.9037 30.9882C69.572 28.6738 72.9856 27.3996 76.5178 27.3995H78.7831C79.7486 27.3993 80.6865 27.7218 81.4477 28.3158C82.2089 28.9098 82.7497 29.7411 82.9843 30.6777L83.2082 31.5723L81.8617 30.9003ZM74.706 16.963L77.3146 16.0869C77.9624 15.8839 78.6569 15.8839 79.3047 16.0869L81.9302 16.9733L80.581 23.6864C79.9909 23.5534 79.388 23.4857 78.7831 23.4846H76.5178C76.346 23.4846 76.1748 23.487 76.004 23.4919L74.706 16.963ZM53.1073 10.2308L58.7392 7.9779L64.3712 10.2308C64.8343 10.4166 65.2091 10.7721 65.419 11.2247C65.629 11.6774 65.6583 12.1931 65.501 12.6666L63.1999 19.5711H54.2784L51.9774 12.6679C51.8197 12.1941 51.8489 11.6781 52.0589 11.2252C52.2689 10.7722 52.6439 10.4165 53.1073 10.2308ZM53.9146 23.4841H63.5627L65.8163 26.8645C62.4353 29.2524 59.9453 32.6977 58.7387 36.6571C57.5318 32.6978 55.0418 29.2526 51.661 26.8645L53.9146 23.4841ZM38.1724 16.0869C38.8202 15.8835 39.5148 15.8835 40.1625 16.0869L42.788 16.973L41.478 23.4917C41.3061 23.4869 41.1336 23.4845 40.9605 23.4843H38.6952C38.0912 23.4855 37.4892 23.553 36.9 23.6856L35.5636 16.963L38.1724 16.0869ZM42.6248 30.402C41.4817 30.0174 40.2736 29.8634 39.0706 29.9489C37.8675 30.0345 36.6934 30.3578 35.6162 30.9003L34.2707 31.5733L34.4943 30.6784C34.7287 29.7417 35.2694 28.9103 36.0306 28.3162C36.7917 27.7221 37.7296 27.3994 38.6952 27.3995H40.9605C44.4928 27.3995 47.9064 28.6736 50.5748 30.988C53.2432 33.3024 54.9871 36.5016 55.4865 39.9984L56.4826 46.9706H49.3839L50.1159 43.3105C50.4103 41.859 50.4138 40.3635 50.1263 38.9106C49.8388 37.4576 49.2661 36.0761 48.4411 34.8461C47.0477 32.762 45.0023 31.199 42.6253 30.402H42.6248ZM39.2821 72.6265L38.8633 73.2545L36.6371 71.0283C36.27 70.6613 35.7723 70.4552 35.2533 70.4552C34.7342 70.4552 34.2365 70.6613 33.8695 71.0283L31.3392 73.5586V70.4559C31.3392 70.1016 31.2431 69.754 31.0611 69.4501C30.879 69.1461 30.6179 68.8973 30.3056 68.7301C29.9932 68.563 29.6414 68.4837 29.2875 68.5008C28.9337 68.518 28.5911 68.6308 28.2963 68.8273C25.7885 70.5024 22.9533 71.6254 19.9786 72.1219C21.9396 70.0661 24.2414 68.3648 26.782 67.0933L28.2988 66.3349C28.6684 66.1502 28.9701 65.8531 29.1606 65.4864C29.351 65.1197 29.4205 64.7021 29.3591 64.2934C29.2977 63.8848 29.1085 63.506 28.8186 63.2115C28.5287 62.917 28.153 62.7218 27.7454 62.6539L23.3126 61.9151C19.3401 61.2564 15.5022 59.9516 11.9513 58.0527L23.7272 56.7444C24.1645 56.6958 24.5726 56.5014 24.8858 56.1924C25.199 55.8835 25.399 55.478 25.4534 55.0414C25.5079 54.6049 25.4136 54.1627 25.1859 53.7863C24.9582 53.4098 24.6103 53.1211 24.1984 52.9667L15.1485 49.5716C12.7633 48.6814 10.5718 47.3404 8.69371 45.6216L19.3538 46.9542C19.7736 47.0067 20.199 46.9218 20.5664 46.7122C20.9338 46.5026 21.2235 46.1796 21.3919 45.7915C21.5603 45.4035 21.5985 44.9714 21.5008 44.5598C21.403 44.1483 21.1745 43.7795 20.8496 43.5087L14.8234 38.4868C11.3393 35.5806 8.66915 31.8199 7.0742 27.5725L6.38261 25.7284L32.101 46.9082C32.3851 47.1427 32.5969 47.4529 32.7118 47.8029C32.8267 48.1529 32.84 48.5283 32.7502 48.8856C32.5758 49.5677 32.3818 50.3214 32.1932 51.0421C31.8449 52.3797 31.9224 53.7926 32.4151 55.084C32.9078 56.3754 33.791 57.481 34.9417 58.2467L35.0175 58.2971C36.2994 59.1521 37.8405 59.5307 39.3726 59.3671C40.9048 59.2034 42.3311 58.5079 43.4035 57.4015C43.475 57.3278 43.5404 57.2486 43.5992 57.1644L45.0389 55.1156V59.6918L43.6386 60.742C42.311 61.7354 40.7084 62.2934 39.0509 62.3394C37.3935 62.3854 35.7624 61.9171 34.3817 60.9989C34.1679 60.8563 33.928 60.7573 33.6759 60.7074C33.4238 60.6575 33.1643 60.6578 32.9123 60.7082C32.6603 60.7586 32.4207 60.8582 32.2071 61.0012C31.9936 61.1442 31.8103 61.3279 31.6677 61.5417C31.5252 61.7556 31.4261 61.9954 31.3762 62.2475C31.3264 62.4997 31.3266 62.7592 31.377 63.0112C31.4275 63.2632 31.527 63.5028 31.67 63.7164C31.813 63.9299 31.9967 64.1132 32.2106 64.2558C34.1028 65.5146 36.315 66.2074 38.5873 66.253C40.8595 66.2986 43.0977 65.695 45.0389 64.5131V68.7106C42.6834 69.2161 40.6181 70.6209 39.2826 72.6261L39.2821 72.6265ZM72.7768 81.3897C74.5954 83.1983 75.7934 85.5372 76.1983 88.0698H73.5931C72.1233 85.6353 69.9898 83.6702 67.4429 82.405C67.0163 82.1917 66.5264 82.1415 66.0653 82.264C65.6043 82.3864 65.2039 82.673 64.9393 83.0699L58.7392 92.3699L52.539 83.0689C52.2745 82.6721 51.8741 82.3855 51.4131 82.2631C50.9521 82.1407 50.4623 82.1908 50.0357 82.404C47.4885 83.6695 45.3548 85.6349 43.885 88.0698H41.2798C41.6851 85.5378 42.8829 83.1995 44.7011 81.3912L46.0906 80.0017C46.6144 79.4759 47.0759 78.8916 47.466 78.2603C47.9505 78.6119 48.4861 78.8872 49.0539 79.0767L58.1202 82.0989C58.522 82.233 58.9564 82.233 59.3581 82.0989L68.4242 79.0767C68.9921 78.8872 69.5277 78.6119 70.0124 78.2603C70.4025 78.8916 70.8639 79.4759 71.3877 80.0017L72.7768 81.3897ZM102.655 38.4868L96.6285 43.5087C96.3036 43.7795 96.0751 44.1483 95.9774 44.5598C95.8796 44.9713 95.9178 45.4034 96.0862 45.7914C96.2546 46.1794 96.5442 46.5024 96.9115 46.712C97.2789 46.9216 97.7043 47.0066 98.124 46.9542L108.785 45.6216C106.906 47.3404 104.715 48.6815 102.33 49.5716L93.2799 52.9654C92.868 53.1199 92.5201 53.4086 92.2924 53.7851C92.0647 54.1615 91.9705 54.6037 92.0249 55.0402C92.0794 55.4768 92.2793 55.8822 92.5925 56.1912C92.9057 56.5002 93.3138 56.6946 93.7511 56.7432L105.527 58.0515C101.976 59.9506 98.1373 61.2554 94.1643 61.9141L89.7314 62.6529C89.3238 62.7208 88.9482 62.916 88.6583 63.2105C88.3684 63.5051 88.1792 63.8838 88.1178 64.2924C88.0563 64.7011 88.1258 65.1187 88.3163 65.4854C88.5068 65.8522 88.8084 66.1492 89.1781 66.334L90.6948 67.0923C93.2354 68.3639 95.537 70.0652 97.498 72.1209C94.5233 71.6244 91.6881 70.5014 89.1803 68.8263C88.8855 68.6301 88.5429 68.5175 88.1892 68.5006C87.8354 68.4837 87.4837 68.5631 87.1715 68.7304C86.8594 68.8976 86.5984 69.1464 86.4165 69.4503C86.2346 69.7542 86.1386 70.1017 86.1387 70.4559V73.5594L83.6084 71.0291C83.4266 70.8473 83.2109 70.7031 82.9734 70.6048C82.736 70.5064 82.4815 70.4558 82.2245 70.4558C81.9674 70.4558 81.7129 70.5064 81.4755 70.6048C81.238 70.7031 81.0223 70.8473 80.8405 71.0291L78.6143 73.2553L78.1955 72.6273C76.8602 70.6217 74.7947 69.2165 72.4389 68.7109V64.5112C74.3802 65.6931 76.6183 66.2967 78.8906 66.2511C81.1629 66.2055 83.375 65.5126 85.2673 64.2538C85.6992 63.9659 85.999 63.5182 86.1008 63.0092C86.2026 62.5002 86.098 61.9717 85.8101 61.5398C85.5222 61.1079 85.0745 60.8081 84.5655 60.7063C84.0566 60.6045 83.528 60.709 83.0961 60.9969C81.7155 61.9151 80.0845 62.3834 78.427 62.3374C76.7696 62.2914 75.167 61.7334 73.8395 60.7401L72.4389 59.6918V55.117L73.8786 57.1659C73.9375 57.2499 74.003 57.3292 74.0743 57.4029C75.1469 58.5093 76.5734 59.2046 78.1057 59.368C79.6379 59.5314 81.179 59.1526 82.4608 58.2973L82.5378 58.2462C83.6882 57.4805 84.5712 56.375 85.0636 55.0838C85.556 53.7926 85.6335 52.3799 85.2851 51.0426C85.0965 50.3219 84.9023 49.5679 84.7281 48.8859C84.6383 48.5286 84.6517 48.1532 84.7666 47.8032C84.8815 47.4532 85.0933 47.143 85.3774 46.9084L111.096 25.7284L110.404 27.5725C108.809 31.8199 106.139 35.5806 102.655 38.4868Z" fill="#879BB5"/>
<path d="M53.4414 69.8815C53.6231 70.0633 53.8388 70.2074 54.0763 70.3058C54.3137 70.4042 54.5683 70.4548 54.8253 70.4548C55.0823 70.4548 55.3368 70.4042 55.5742 70.3058C55.8117 70.2074 56.0275 70.0633 56.2092 69.8815C56.8922 69.1997 57.394 68.3579 57.6688 67.4328C57.9437 66.5077 57.9829 65.5285 57.783 64.5844H59.8024C60.3863 65.3888 60.6994 66.358 60.6966 67.352V68.4986C60.6966 69.0176 60.9028 69.5154 61.2698 69.8825C61.6369 70.2495 62.1346 70.4557 62.6537 70.4557C63.1728 70.4557 63.6706 70.2495 64.0376 69.8825C64.4046 69.5154 64.6108 69.0176 64.6108 68.4986V67.352C64.6157 65.4115 63.9619 63.5268 62.7565 62.0061C62.8869 61.6174 63.136 61.2794 63.4687 61.0398C63.8013 60.8001 64.2008 60.6708 64.6108 60.6702C65.1299 60.6702 65.6277 60.464 65.9947 60.0969C66.3617 59.7299 66.5679 59.2321 66.5679 58.713C66.5679 58.194 66.3617 57.6962 65.9947 57.3292C65.6277 56.9621 65.1299 56.7559 64.6108 56.7559C63.3971 56.7575 62.2136 57.1345 61.2227 57.8353C60.2318 58.5361 59.482 59.5263 59.0761 60.6702H56.7824V56.7559C56.7824 56.2369 56.5762 55.7391 56.2092 55.3721C55.8421 55.005 55.3443 54.7988 54.8253 54.7988C54.3062 54.7988 53.8084 55.005 53.4414 55.3721C53.0744 55.7391 52.8682 56.2369 52.8682 56.7559V62.6273C52.8684 62.928 52.9384 63.2246 53.0724 63.4938C53.0724 63.4965 53.0724 63.4999 53.0749 63.5026L53.7941 64.9411C53.9712 65.2945 54.0325 65.6947 53.9692 66.0849C53.9058 66.4751 53.7211 66.8354 53.4414 67.1147C53.0746 67.4817 52.8686 67.9793 52.8686 68.4981C52.8686 69.0169 53.0746 69.5145 53.4414 69.8815Z" fill="#879BB5"/>
</svg>
