<svg width="20" height="15" viewBox="0 0 20 15" fill="none" xmlns="http://www.w3.org/2000/svg">
<path fill-rule="evenodd" clip-rule="evenodd" d="M0.346893 7.81251L2.46157 2.10744C2.47209 2.07907 2.48461 2.05141 2.49906 2.02465C2.85225 1.37064 3.48645 0.869375 4.16297 0.535818C4.84469 0.1997 5.63622 0 6.38243 0C7.45058 0 8.51246 0.408494 9.30986 1.05642C9.56558 1.26416 9.79972 1.50156 10 1.76397C10.2003 1.50156 10.4344 1.26416 10.6901 1.05642C11.4875 0.408494 12.5494 0 13.6176 0C14.3638 0 15.1553 0.1997 15.837 0.535818C16.5136 0.869375 17.1477 1.37064 17.5009 2.02465C17.5153 2.05141 17.5279 2.07907 17.5384 2.10744L19.6531 7.81251C19.8768 8.34294 20 8.9222 20 9.52895C20 12.0719 17.8367 14.1333 15.168 14.1333C12.7362 14.1333 10.724 12.4217 10.386 10.1938H9.61405C9.276 12.4217 7.26378 14.1333 4.83204 14.1333C2.16414 14.1333 0.00122791 12.073 0 9.53108L0.346893 7.81251ZM2.72722 5.38312L3.75984 2.59727C3.94711 2.27537 4.31247 1.95917 4.8042 1.71672C5.30894 1.46786 5.88209 1.32962 6.38243 1.32962C7.09021 1.32962 7.83707 1.60706 8.40446 2.06813C8.9707 2.52822 9.30233 3.12178 9.30233 3.72895V7.77767C8.57916 6.10333 6.85007 4.9245 4.83204 4.9245C4.07755 4.9245 3.36346 5.08927 2.72722 5.38312ZM8.19888 8.86893C8.24465 9.08211 8.26874 9.30283 8.26874 9.52895C8.26874 11.3376 6.73007 12.8037 4.83204 12.8037C2.93401 12.8037 1.39535 11.3375 1.39535 9.52895C1.39535 8.17771 2.2542 7.01757 3.48011 6.51719C3.50559 6.50682 3.53123 6.49672 3.55701 6.48688C3.95138 6.33672 4.38167 6.25411 4.83204 6.25411C6.01825 6.25411 7.0641 6.82682 7.68171 7.6978C7.9288 8.04634 8.10734 8.44257 8.19888 8.86893ZM10.6977 7.77776C10.8785 7.35911 11.1221 6.97148 11.4175 6.62551C12.3034 5.58759 13.6544 4.92451 15.168 4.92451C15.189 4.92451 15.21 4.92464 15.231 4.9249C15.6803 4.93037 16.1147 4.99425 16.5262 5.10892C16.7847 5.18093 17.0342 5.27295 17.2727 5.38312L16.2402 2.59727C16.0529 2.27537 15.6875 1.95917 15.1958 1.71672C14.6911 1.46786 14.118 1.32962 13.6176 1.32962C12.9098 1.32962 12.1629 1.60706 11.5955 2.06813C11.0293 2.52822 10.6977 3.12178 10.6977 3.72895V7.77776ZM11.7313 9.52895C11.7313 11.3375 13.27 12.8037 15.168 12.8037C17.0653 12.8037 18.6035 11.3386 18.6047 9.5309C18.6047 9.5302 18.6047 9.52957 18.6047 9.52895C18.6047 9.50174 18.6043 9.47462 18.6036 9.44749C18.6028 9.41487 18.6015 9.38234 18.5996 9.3499C18.5267 8.05946 17.6697 6.96758 16.4746 6.49911C16.0716 6.34115 15.6304 6.25411 15.168 6.25411C13.9817 6.25411 12.9358 6.82682 12.3182 7.69798C11.9476 8.22061 11.7313 8.85067 11.7313 9.52895Z" fill="#4F4F4F"/>
</svg>
