<svg width="21" height="37" viewBox="0 0 21 37" fill="none" xmlns="http://www.w3.org/2000/svg">
<path d="M20 11.9002H13.3897V8.94019C13.359 8.71962 13.3772 8.49496 13.4431 8.28228C13.5089 8.0696 13.6207 7.87414 13.7705 7.70987C13.9203 7.5456 14.1044 7.41658 14.3097 7.33202C14.5149 7.24745 14.7362 7.20944 14.9578 7.2207L19.5845 7.23684V1.01814H12.883C11.8895 0.945197 10.8921 1.09279 9.96178 1.45044C9.03145 1.80809 8.191 2.36702 7.50013 3.08752C6.80926 3.80802 6.28493 4.67241 5.96439 5.61929C5.64384 6.56616 5.53496 7.57227 5.64546 8.56615V11.9002H1V18.1216H5.64546V36H13.3897V18.1216H19.3459L20 11.9002Z" stroke="#677F9D" stroke-width="2" stroke-linecap="round" stroke-linejoin="round"/>
</svg>
