<svg width="35" height="35" viewBox="0 0 35 35" fill="none" xmlns="http://www.w3.org/2000/svg">
<path d="M26.8263 1H8.17369C4.21177 1 1 4.21177 1 8.17369V26.8263C1 30.7882 4.21177 34 8.17369 34H26.8263C30.7882 34 34 30.7882 34 26.8263V8.17369C34 4.21177 30.7882 1 26.8263 1Z" stroke="#677F9D" stroke-width="2" stroke-linecap="round" stroke-linejoin="round"/>
<path d="M17.5 22.6327C20.3347 22.6327 22.6327 20.3347 22.6327 17.5C22.6327 14.6652 20.3347 12.3672 17.5 12.3672C14.6652 12.3672 12.3672 14.6652 12.3672 17.5C12.3672 20.3347 14.6652 22.6327 17.5 22.6327Z" stroke="#677F9D" stroke-width="2" stroke-linecap="round" stroke-linejoin="round"/>
<path d="M24.2823 11.2677C24.5865 11.2677 24.8331 11.0211 24.8331 10.7169C24.8331 10.4126 24.5865 10.166 24.2823 10.166C23.9781 10.166 23.7314 10.4126 23.7314 10.7169C23.7314 11.0211 23.9781 11.2677 24.2823 11.2677Z" stroke="#677F9D" stroke-width="2" stroke-linecap="round" stroke-linejoin="round"/>
<path d="M23.3667 5.76709H11.634C8.39405 5.76709 5.76758 8.39356 5.76758 11.6335V23.3662C5.76758 26.6062 8.39405 29.2326 11.634 29.2326H23.3667C26.6066 29.2326 29.2331 26.6062 29.2331 23.3662V11.6335C29.2331 8.39356 26.6066 5.76709 23.3667 5.76709Z" stroke="#677F9D" stroke-width="2" stroke-linecap="round" stroke-linejoin="round"/>
</svg>
