<svg width="94" height="119" viewBox="0 0 94 119" fill="none" xmlns="http://www.w3.org/2000/svg">
<g opacity="0.8">
<path d="M61.7065 73.4942C62.0703 73.665 62.4552 73.7488 62.8364 73.7488C63.4396 73.7488 64.0341 73.5392 64.5227 73.1322L66.9007 71.1523L69.279 73.1322C70.0768 73.7962 71.1561 73.9348 72.0953 73.494C73.0347 73.0532 73.6183 72.1344 73.6183 71.0962V59.8959C75.6577 58.0555 76.9421 55.3929 76.9421 52.4351C76.9421 46.8946 72.4377 42.3872 66.9007 42.3872C61.3638 42.3872 56.8594 46.8946 56.8594 52.4351C56.8594 55.3929 58.1437 58.0558 60.1832 59.8959V71.0962C60.1835 72.1346 60.767 73.0534 61.7065 73.4942ZM70.1963 69.4416L68.5935 68.1073C67.6127 67.2908 66.189 67.291 65.208 68.1073L63.6052 69.4416V61.9242C64.6382 62.2844 65.7464 62.4828 66.9007 62.4828C68.0551 62.4828 69.1631 62.2844 70.1963 61.9242V69.4416ZM66.9007 45.8116C70.5508 45.8116 73.5202 48.7829 73.5202 52.4353C73.5202 56.0876 70.5508 59.0588 66.9007 59.0588C63.2507 59.0588 60.2813 56.0876 60.2813 52.4353C60.2816 48.7829 63.2509 45.8116 66.9007 45.8116Z" fill="white" stroke="white"/>
<path d="M87.1138 1H7.25444C3.80578 1 1 3.8076 1 7.25871V111.741C1 115.192 3.80578 118 7.25444 118H87.1138C90.5626 118 93.3684 115.192 93.3684 111.741V7.25871C93.3682 3.8076 90.5626 1 87.1138 1V1ZM89.9462 111.741C89.9462 113.304 88.6755 114.576 87.1135 114.576H7.25444C5.69266 114.576 4.42197 113.304 4.42197 111.741V7.25871C4.42197 5.69569 5.69266 4.42418 7.25444 4.42418H87.1138C88.6758 4.42418 89.9465 5.69569 89.9465 7.25871V111.741H89.9462Z" fill="white" stroke="white"/>
<path d="M82.0462 9.44141H12.3209C10.8118 9.44141 9.58398 10.6698 9.58398 12.1798V76.7537C9.58398 77.6993 10.35 78.4658 11.295 78.4658C12.2399 78.4658 13.006 77.6993 13.006 76.7537V12.8656H81.3609V106.135H13.006V84.8152C13.006 83.8697 12.2399 83.1031 11.295 83.1031C10.35 83.1031 9.58398 83.8697 9.58398 84.8152V106.82C9.58398 108.33 10.8118 109.559 12.3209 109.559H82.0462C83.5553 109.559 84.7831 108.33 84.7831 106.82V12.1798C84.7831 10.6698 83.5553 9.44141 82.0462 9.44141Z" fill="white" stroke="white"/>
<path d="M76.9417 23.4389C76.9417 21.4969 75.3628 19.917 73.4221 19.917H20.9454C19.0047 19.917 17.4258 21.4969 17.4258 23.4389V29.9672C17.4258 31.9091 19.0047 33.489 20.9454 33.489H57.6544C58.5993 33.489 59.3654 32.7225 59.3654 31.777C59.3654 30.8314 58.5993 30.0649 57.6544 30.0649H20.9454C20.8915 30.0649 20.8477 30.021 20.8477 29.9672V23.4389C20.8477 23.385 20.8915 23.3412 20.9454 23.3412H73.4221C73.4759 23.3412 73.5197 23.385 73.5197 23.4389V29.9672C73.5197 30.021 73.4759 30.0649 73.4221 30.0649H65.5064C64.5615 30.0649 63.7954 30.8314 63.7954 31.777C63.7954 32.7225 64.5615 33.489 65.5064 33.489H73.4221C75.3628 33.489 76.9417 31.9091 76.9417 29.9672V23.4389Z" fill="white" stroke="white"/>
<path d="M27.6511 91.9141C26.257 95.0177 27.1905 96.5308 28.2191 97.2537C30.6284 98.9464 33.6087 96.2735 35.0411 94.9885L35.0564 94.9748C35.5179 96.0276 36.2943 96.8643 37.2951 97.3717C39.7915 98.6378 41.8805 97.3823 43.3944 95.7891C43.7514 96.4436 44.2015 97.0159 44.7365 97.4861C46.0859 98.672 48.0271 99.0836 50.0723 99.0836C51.9071 99.0836 53.8262 98.7522 55.4744 98.3515C56.3926 98.1283 56.9563 97.2026 56.7332 96.2838C56.5101 95.365 55.585 94.8004 54.6668 95.0241C51.0201 95.9103 48.0804 95.8678 46.9948 94.9136C46.054 94.0866 45.8703 92.6491 45.8445 91.8659C45.8197 91.1133 45.3064 90.4652 44.5795 90.2691C43.8532 90.073 43.0835 90.3753 42.6842 91.0137C40.9589 93.7711 39.7742 94.7906 38.8418 94.3176C38.4786 94.1334 38.2277 93.8026 38.0958 93.3342C37.8951 92.6206 38.0219 91.7171 38.4113 91.0857C38.9077 90.2812 38.6584 89.2263 37.8545 88.7296C37.0505 88.2329 35.9961 88.4824 35.4999 89.2866C34.7583 90.4882 33.8054 91.5027 32.7573 92.4389C31.5571 93.5154 30.8415 93.9971 30.424 94.208C30.5942 93.5652 31.1707 92.3186 32.8098 89.9082C34.5185 87.3976 36.2566 84.8847 38.0773 82.4323L38.112 82.3855C38.6486 81.6632 38.535 80.649 37.852 80.0635C37.1689 79.4784 36.1496 79.5218 35.5191 80.1635C31.6253 84.1257 25.3141 85.9987 19.4415 84.9365C18.5117 84.7681 17.6215 85.3862 17.4534 86.3167C17.2852 87.2472 17.9028 88.1379 18.8327 88.3061C22.7727 89.0191 26.7949 88.6495 30.4042 87.3462C30.3834 87.3786 30.1293 87.7635 29.9803 87.9827C29.3598 88.8944 28.322 90.4205 27.6511 91.9141Z" fill="white" stroke="white"/>
<path d="M41.9327 42.3872C40.9877 42.3872 40.2217 43.1538 40.2217 44.0993C40.2217 45.0448 40.9877 45.8114 41.9327 45.8114H47.1845C48.1294 45.8114 48.8955 45.0448 48.8955 44.0993C48.8955 43.1538 48.1294 42.3872 47.1845 42.3872H41.9327Z" fill="white" stroke="white"/>
<path d="M19.1368 45.8114H33.4166C34.3615 45.8114 35.1276 45.0448 35.1276 44.0993C35.1276 43.1538 34.3615 42.3872 33.4166 42.3872H19.1368C18.1918 42.3872 17.4258 43.1538 17.4258 44.0993C17.4258 45.0448 18.1918 45.8114 19.1368 45.8114Z" fill="white" stroke="white"/>
<path d="M19.1368 53.7202H47.1837C48.1286 53.7202 48.8946 52.9536 48.8946 52.008C48.8946 51.0625 48.1286 50.2959 47.1837 50.2959H19.1368C18.1918 50.2959 17.4258 51.0625 17.4258 52.008C17.4258 52.9536 18.1918 53.7202 19.1368 53.7202Z" fill="white" stroke="white"/>
<path d="M48.8952 59.9167C48.8952 58.9711 48.1291 58.2046 47.1842 58.2046H33.417C32.4721 58.2046 31.7061 58.9711 31.7061 59.9167C31.7061 60.8622 32.4721 61.6287 33.417 61.6287H47.1842C48.1291 61.6287 48.8952 60.8622 48.8952 59.9167Z" fill="white" stroke="white"/>
<path d="M19.1368 61.6287H25.1077C26.0526 61.6287 26.8186 60.8622 26.8186 59.9167C26.8186 58.9711 26.0526 58.2046 25.1077 58.2046H19.1368C18.1918 58.2046 17.4258 58.9711 17.4258 59.9167C17.4258 60.8622 18.1918 61.6287 19.1368 61.6287Z" fill="white" stroke="white"/>
<path d="M19.1368 69.5375H40.5026C41.4475 69.5375 42.2136 68.771 42.2136 67.8254C42.2136 66.8799 41.4475 66.1133 40.5026 66.1133H19.1368C18.1918 66.1133 17.4258 66.8799 17.4258 67.8254C17.4258 68.771 18.1918 69.5375 19.1368 69.5375Z" fill="white" stroke="white"/>
</g>
</svg>
