<svg width="18" height="18" viewBox="0 0 18 18" fill="none" xmlns="http://www.w3.org/2000/svg">
<path d="M6.77839 3.52832C7.1926 3.52832 7.52841 3.86412 7.52841 4.27834V6.02837H9.27846C9.69267 6.02837 10.0285 6.36417 10.0285 6.77838C10.0285 7.19258 9.69267 7.52839 9.27846 7.52839H7.52841V9.27843C7.52841 9.69264 7.1926 10.0284 6.77839 10.0284C6.36418 10.0284 6.02838 9.69264 6.02838 9.27843V7.52839H4.27834C3.86412 7.52839 3.52832 7.19258 3.52832 6.77838C3.52832 6.36417 3.86412 6.02837 4.27834 6.02837H6.02838V4.27834C6.02838 3.86412 6.36418 3.52832 6.77839 3.52832Z" fill="black"/>
<path fill-rule="evenodd" clip-rule="evenodd" d="M1.97709 11.5233C4.43394 13.9801 8.31347 14.1473 10.9638 12.0245L16.1196 17.1803C16.4125 17.4733 16.8874 17.4733 17.1803 17.1803C17.4732 16.8874 17.4732 16.4125 17.1803 16.1196L12.0245 10.9639C14.1472 8.31348 13.9801 4.43394 11.5233 1.97709C8.88718 -0.65903 4.6132 -0.65903 1.97709 1.97709C-0.659029 4.61321 -0.659029 8.88719 1.97709 11.5233ZM3.03778 3.03778C0.987468 5.08809 0.987468 8.41228 3.03778 10.4626C5.08658 12.5114 8.40747 12.5129 10.4581 10.4671L10.4626 10.4626L10.4671 10.4581C12.5129 8.40738 12.5114 5.08659 10.4626 3.03778C8.41227 0.987469 5.08808 0.987469 3.03778 3.03778Z" fill="black"/>
</svg>
