<svg width="18" height="27" viewBox="0 0 18 27" fill="none" xmlns="http://www.w3.org/2000/svg">
    <path d="M15.1728 1.29834H3.29257C2.28315 1.29834 1.46484 2.11664 1.46484 3.12607V23.2311C1.46484 24.2405 2.28315 25.0588 3.29257 25.0588H15.1728C16.1823 25.0588 17.0006 24.2405 17.0006 23.2311V3.12607C17.0006 2.11664 16.1823 1.29834 15.1728 1.29834Z" stroke="#FBB91C" stroke-width="2" stroke-linecap="round" stroke-linejoin="round"/>
    <path d="M1.46484 19.5757H17.0006" stroke="#FBB91C" stroke-width="2" stroke-linecap="round" stroke-linejoin="round"/>
    <path d="M13.6883 12.3113C13.6343 12.2247 13.4926 12.1716 13.2794 12.064C13.0662 11.9564 12.0254 11.4555 11.826 11.3863C11.6266 11.317 11.4886 11.2812 11.3457 11.4902C11.2027 11.6992 10.9832 12.0096 10.8591 12.1493C10.7349 12.289 10.6083 12.3051 10.3988 12.2012C9.1593 11.6692 8.11342 10.7776 7.40033 9.64509C7.27492 9.43734 7.38653 9.3248 7.49313 9.22092C7.85556 8.87219 7.85556 8.91794 7.94083 8.751C7.97026 8.69282 7.98409 8.62819 7.98102 8.56325C7.97794 8.49831 7.95807 8.43523 7.92328 8.38C7.86935 8.27613 7.44422 7.25095 7.26614 6.8342C7.06549 6.36056 5.98447 6.72166 5.6233 7.10502C1.88489 11.0202 11.0397 17.7241 13.386 13.6271C13.5879 13.2734 13.8225 12.5252 13.6883 12.3051" fill="#FBB91C"/>
</svg>