<svg width="16" height="17" viewBox="0 0 16 17" fill="none" xmlns="http://www.w3.org/2000/svg">
<g clip-path="url(#clip0)">
<path d="M7.05542 0.0957031C3.1651 0.0957031 0 3.28221 0 7.19888C0 11.1156 3.16513 14.3021 7.05542 14.3021C10.9457 14.3021 14.1109 11.1156 14.1109 7.19888C14.1109 3.28221 10.9457 0.0957031 7.05542 0.0957031ZM7.05542 13.1344C3.80279 13.1344 1.15663 10.4716 1.15663 7.19885C1.15663 3.92594 3.80279 1.26331 7.05542 1.26331C10.3081 1.26331 12.9542 3.92594 12.9542 7.19885C12.9542 10.4716 10.3081 13.1344 7.05542 13.1344Z" fill="#4F4F4F"/>
<path d="M15.8297 15.2117L12.0321 11.3974C11.8056 11.1701 11.4395 11.1711 11.2141 11.3995C10.989 11.6282 10.99 11.9977 11.2163 12.2253L15.0139 16.0396C15.1268 16.1528 15.2741 16.2094 15.4218 16.2094C15.5704 16.2094 15.7189 16.152 15.8318 16.0374C16.057 15.8087 16.056 15.4392 15.8297 15.2117Z" fill="#4F4F4F"/>
</g>
<defs>
<clipPath id="clip0">
<rect width="16" height="16.1524" fill="white" transform="translate(0 0.0761719)"/>
</clipPath>
</defs>
</svg>
