<svg width="41" height="24" viewBox="0 0 41 24" fill="none" xmlns="http://www.w3.org/2000/svg">
<path d="M15.5336 11.7329C13.7344 12.7021 10.007 4.9484 9.23636 3.03072C9.13022 2.78016 8.96463 2.55854 8.75357 2.38457C8.4812 2.20577 8.17529 2.08281 7.85397 2.02297L2.28843 2.05557C2.28843 2.05557 1.4518 2.07929 1.14293 2.44089C0.834071 2.80249 1.12194 3.43381 1.12194 3.43381C3.51269 8.77468 6.64111 13.7621 10.4178 18.2536C11.6277 19.5895 13.1232 20.6424 14.7959 21.336C16.4686 22.0297 18.2766 22.3466 20.0886 22.2639C21.2215 22.3197 22.3572 22.2791 23.4831 22.1423C24.4157 21.1524 23.2432 18.4581 25.2103 17.8387C26.6407 17.3911 28.4759 20.8708 30.422 22.1898C31.1574 22.7635 32.0807 23.0494 33.0159 22.993L38.2216 22.9307C38.2216 22.9307 40.9444 22.7677 39.6519 20.6515C38.6259 18.971 37.3178 17.4755 35.7836 16.2292C32.5151 13.2356 32.9559 13.7188 36.8871 8.54072C39.2861 5.38706 40.2397 3.46049 39.9398 2.63651C39.6399 1.81253 37.8917 2.04372 37.8917 2.04372L32.0323 2.08225C31.7719 2.05126 31.5081 2.09661 31.2736 2.21266C31.0513 2.37373 30.8738 2.58787 30.7579 2.8351C29.9512 4.95729 26.0949 12.7051 24.5116 11.6944C22.3945 10.3398 25.5731 2.04668 22.4965 1.32051C21.6027 1.10775 20.6834 1.01798 19.7647 1.05376C18.1255 0.902983 16.4723 1.07012 14.8979 1.54577C14.2322 1.86884 13.7164 2.58612 14.0312 2.62762C14.6976 2.68618 15.3163 2.99356 15.7615 3.48717C16.5711 4.58383 16.73 11.0868 15.5336 11.7329Z" stroke="#677F9D" stroke-width="2" stroke-linecap="round" stroke-linejoin="round"/>
</svg>
