<svg width="24" height="24" viewBox="0 0 24 24" fill="none" xmlns="http://www.w3.org/2000/svg">
    <g clip-path="url(#clip0)">
    <path d="M18.2587 14.0469C18.185 13.9269 17.9913 13.8532 17.6998 13.704C17.4084 13.5549 15.9855 12.8606 15.713 12.7646C15.4404 12.6686 15.2518 12.6189 15.0564 12.9086C14.861 13.1983 14.561 13.6286 14.3913 13.8223C14.2215 14.016 14.0484 14.0383 13.7621 13.8943C12.0677 13.1568 10.638 11.9208 9.66325 10.3509C9.49183 10.0629 9.6444 9.9069 9.79011 9.7629C10.2855 9.27947 10.2855 9.3429 10.4021 9.11147C10.4423 9.03082 10.4612 8.94122 10.457 8.8512C10.4528 8.76118 10.4257 8.67373 10.3781 8.59718C10.3044 8.45318 9.72325 7.03204 9.47983 6.45433C9.20554 5.79775 7.72782 6.29833 7.23411 6.82975C2.12382 12.2572 14.6381 21.5503 17.8455 15.8709C18.1215 15.3806 18.4421 14.3435 18.2587 14.0383M11.9895 0.790327C9.04689 0.782117 6.22113 1.94146 4.13217 4.01403C2.04322 6.08659 0.861652 8.90313 0.846682 11.8458C0.845165 14.1776 1.58942 16.4488 2.97068 18.3275L1.57868 22.4418L5.8644 21.0806C7.53999 22.1792 9.48057 22.8061 11.4822 22.8955C13.4838 22.9848 15.4725 22.5333 17.2394 21.5885C19.0062 20.6436 20.4858 19.2402 21.5228 17.5258C22.5598 15.8114 23.1158 13.8493 23.1324 11.8458C23.117 8.90327 21.9353 6.087 19.8464 4.01453C17.7575 1.94206 14.9321 0.78257 11.9895 0.790327Z" stroke="#00D27A" stroke-width="2" stroke-linecap="round" stroke-linejoin="round"/>
    </g>
    <defs>
    <clipPath id="clip0">
    <rect width="24" height="24" fill="white"/>
    </clipPath>
    </defs>
    </svg>