<svg width="174" height="81" viewBox="0 0 174 81" fill="none" xmlns="http://www.w3.org/2000/svg">
<g clip-path="url(#clip0)">
<path d="M18.1869 31.4247C17.9057 31.6983 17.7312 32.0646 17.6951 32.4571C17.6559 32.8569 17.6363 33.5518 17.6363 34.5418V46.9268C17.6471 47.6952 17.6188 48.4636 17.5515 49.229L19.6295 49.1126V50.3954H13.1342V49.4333C13.8066 49.4135 14.2897 49.2575 14.5769 48.9676C14.8577 48.6929 15.0321 48.326 15.0687 47.9329C15.1078 47.5353 15.1253 46.8346 15.1253 45.8483V34.1332L4.50211 47.5331C4.5105 48.0975 4.48216 48.6618 4.41724 49.2224L6.49531 49.106V50.3889H0V49.4267C0.672379 49.4069 1.15545 49.251 1.44268 48.961C1.72349 48.6863 1.89789 48.3194 1.93445 47.9263C1.97144 47.5287 1.99102 46.828 1.99102 45.8417V33.2589C1.99102 32.444 2.02149 31.7432 2.07806 31.1611L0 31.2775V29.999H6.49531V30.9612C5.82075 30.9802 5.33986 31.1362 5.05263 31.4291C4.77149 31.7026 4.59698 32.069 4.56086 32.4615C4.52169 32.8613 4.50211 33.5562 4.50211 34.5462V45.5956L15.1644 32.3056C15.1644 32.0156 15.1818 31.6356 15.221 31.1699L13.1429 31.2863V29.999H19.6295V30.9612C18.955 30.9773 18.4741 31.1318 18.1869 31.4247Z" fill="#0D050C"/>
<path d="M22.8047 49.4333C23.4792 49.4128 23.9601 49.2575 24.2474 48.9676C24.5282 48.6929 24.7026 48.326 24.7391 47.9329C24.7761 47.5353 24.7957 46.8346 24.7957 45.8483V33.2589C24.7957 32.444 24.8262 31.7432 24.8827 31.1611L22.8047 31.2775V29.999H29.3V30.9612C28.6254 30.9802 28.1445 31.1362 27.8573 31.4291C27.5762 31.7026 27.4017 32.069 27.3655 32.4615C27.3264 32.8613 27.309 33.5599 27.309 34.5462V39.379H37.6449V33.2589C37.6449 32.444 37.6732 31.7432 37.7319 31.1611L35.6517 31.2775V29.999H42.147V30.9612C41.4753 30.9802 40.9944 31.1362 40.7043 31.4291C40.423 31.7023 40.2491 32.069 40.2147 32.4615C40.1756 32.8613 40.156 33.5562 40.156 34.5462V46.9312C40.1674 47.6996 40.1383 48.4681 40.0689 49.2334L42.147 49.117V50.3998H35.6495V49.4377C36.3241 49.4172 36.8057 49.2619 37.0944 48.972C37.3753 48.6976 37.5491 48.3304 37.584 47.9373C37.6231 47.5397 37.6427 46.839 37.6427 45.8526V40.5432L27.309 40.6596V46.9246C27.3193 47.693 27.2902 48.4614 27.2219 49.2268L29.3 49.1104V50.3932H22.8047V49.4333Z" fill="#0D050C"/>
<path d="M49.5518 49.4931C48.0722 48.5923 46.864 47.3012 46.0571 45.7587C45.2111 44.1435 44.7794 42.34 44.8016 40.513C44.7903 38.6631 45.1794 36.833 45.9418 35.1508C46.6845 33.5077 47.8641 32.1047 49.3494 31.0979C50.8595 30.0581 52.6823 29.5383 54.8176 29.5383C56.8941 29.5263 58.9261 30.1456 60.6493 31.3154L60.5057 29.7426H62.0637V36.504H61.0257C60.8328 34.6969 60.2025 33.2836 59.1348 32.2644C58.0671 31.2451 56.6955 30.7325 55.02 30.7267C53.6868 30.7169 52.3825 31.1185 51.2817 31.8777C50.11 32.7025 49.1862 33.8373 48.6117 35.1574C47.9312 36.7067 47.5962 38.388 47.6304 40.0824C47.6016 41.7402 47.9579 43.3818 48.6705 44.8757C49.2955 46.2069 50.2625 47.3448 51.471 48.1707C52.6222 48.9505 53.9797 49.3616 55.366 49.3503C56.658 49.3492 57.9325 49.0486 59.0913 48.4717C60.262 47.9075 61.2741 47.0564 62.0354 45.996L62.7861 46.6067C61.6705 48.1824 60.3911 49.2852 58.9477 49.9149C57.5847 50.5304 56.1105 50.855 54.6175 50.8683C52.835 50.8949 51.0806 50.4187 49.5518 49.4931Z" fill="#0D050C"/>
<path d="M69.6553 49.4333C70.4821 49.3937 71.0174 49.1609 71.2568 48.7347C71.4961 48.3086 71.618 47.6364 71.618 46.7577V45.8526L71.6463 31.0776L68.6739 31.0974C67.4786 31.0974 66.627 31.5001 66.1193 32.3056C65.6116 33.111 65.357 34.3924 65.3555 36.1498H64.2871L64.459 29.999H81.2881L81.4621 36.1498H80.3741C80.3858 35.161 80.2642 34.1752 80.0129 33.2194C79.8383 32.5594 79.4403 31.9819 78.888 31.5872C78.357 31.2299 77.6012 31.0505 76.6206 31.049H74.1595L74.1291 46.9312C74.1405 47.6996 74.1114 48.4681 74.042 49.2334L76.4356 49.117V50.3998H69.6553V49.4333Z" fill="#0D050C"/>
<path d="M101.9 31.4247C101.619 31.6985 101.445 32.0649 101.41 32.4571C101.371 32.8569 101.351 33.5518 101.351 34.5418V46.9268C101.362 47.6952 101.334 48.4636 101.266 49.229L103.344 49.1126V50.3954H96.8491V49.4333C97.5214 49.4135 98.0045 49.2575 98.2917 48.9676C98.5726 48.6929 98.747 48.326 98.7835 47.9329C98.8205 47.5353 98.8401 46.8346 98.8401 45.8483V34.1332L88.217 47.5331C88.2259 48.0976 88.1968 48.662 88.1299 49.2224L90.2102 49.106V50.3889H83.7148V49.4267C84.3865 49.4062 84.8674 49.251 85.1575 48.961C85.4383 48.6863 85.6127 48.3194 85.6493 47.9263C85.6863 47.5287 85.7059 46.828 85.7059 45.8417V33.2589C85.7059 32.444 85.7342 31.7432 85.7929 31.1611L83.7148 31.2775V29.999H90.2102V30.9612C89.5356 30.9802 89.054 31.1362 88.7653 31.4291C88.4848 31.7029 88.311 32.0693 88.2757 32.4615C88.2365 32.8613 88.217 33.5562 88.217 34.5462V45.5956L98.8684 32.3056C98.8684 32.0156 98.888 31.6356 98.9271 31.1699L96.8491 31.2863V29.999H103.344V30.9612C102.67 30.9773 102.188 31.1318 101.9 31.4247Z" fill="#0D050C"/>
<path d="M107.275 50.3232C106.949 49.9645 106.773 49.4921 106.784 49.0052C106.774 48.5093 106.955 48.0289 107.289 47.6652C107.437 47.4912 107.621 47.3516 107.828 47.2561C108.035 47.1605 108.26 47.1112 108.487 47.1116C108.716 47.1073 108.942 47.1548 109.149 47.2506C109.357 47.3465 109.54 47.4881 109.686 47.6652C110.004 48.0369 110.173 48.5145 110.161 49.0052C110.171 49.4945 109.99 49.9682 109.656 50.3232C109.506 50.4932 109.321 50.6291 109.115 50.7219C108.908 50.8146 108.685 50.8622 108.459 50.8614C108.235 50.8633 108.013 50.8162 107.809 50.7233C107.605 50.6304 107.423 50.4939 107.275 50.3232Z" fill="#0D050C"/>
<path d="M130.968 31.4247C130.688 31.6985 130.514 32.0649 130.479 32.4571C130.439 32.8569 130.42 33.5518 130.42 34.5418V46.9268C130.431 47.6952 130.402 48.4637 130.333 49.229L132.413 49.1126V50.3954H125.885V49.4333C126.579 49.4135 127.069 49.2575 127.358 48.9676C127.639 48.6932 127.813 48.326 127.848 47.9329C127.887 47.5353 127.907 46.8346 127.907 45.8483V31.1303L120.112 31.2468C119.325 31.2658 118.8 31.4701 118.539 31.8596C118.28 32.2485 118.141 32.8394 118.121 33.6368V46.9246C118.133 47.693 118.104 48.4615 118.034 49.2268L120.114 49.1104V50.3932H113.619V49.4311C114.294 49.4106 114.775 49.2554 115.064 48.9654C115.343 48.6899 115.517 48.3233 115.554 47.9307C115.593 47.5331 115.612 46.8324 115.612 45.8461V33.2589C115.612 32.444 115.641 31.7432 115.697 31.1611L113.619 31.2775V29.999H132.413V30.9612C131.739 30.9773 131.257 31.1318 130.968 31.4247Z" fill="#0D050C"/>
<path d="M135.588 49.4338C136.261 49.4133 136.742 49.258 137.031 48.9681C137.311 48.6931 137.484 48.3262 137.52 47.9334C137.559 47.5358 137.579 46.8351 137.579 45.8487V33.2594C137.579 32.4444 137.607 31.7437 137.666 31.1616L135.588 31.278V29.9995C138.282 29.9629 140.427 29.9438 142.024 29.9424C144.892 29.9424 147.062 30.4476 148.533 31.4581C150.004 32.4686 150.74 33.955 150.741 35.9174C150.74 37.0541 150.44 38.1701 149.871 39.151C149.284 40.1761 148.273 41.0314 146.84 41.7167C145.407 42.4021 143.503 42.7433 141.13 42.7404C140.695 42.7404 140.34 42.7294 140.09 42.7118V46.9361C140.101 47.7045 140.072 48.473 140.003 49.2383L142.66 49.0933V50.4113H135.588V49.4338ZM144.984 40.9391C145.889 40.5238 146.653 39.8477 147.18 38.9958C147.706 38.1439 147.972 37.154 147.943 36.1503C147.943 34.4017 147.414 33.1188 146.355 32.3016C145.296 31.4845 143.833 31.0766 141.966 31.0781C141.313 31.0781 140.856 31.2143 140.595 31.4867C140.343 31.7517 140.189 32.0961 140.16 32.462C140.12 32.8413 140.101 33.5362 140.101 34.5467V41.5124C140.724 41.5765 141.35 41.6051 141.977 41.5981C143.015 41.6076 144.043 41.3824 144.984 40.9391Z" fill="#0D050C"/>
<path d="M157.324 49.3172C155.834 48.3475 154.652 46.9668 153.916 45.339C153.19 43.7243 152.819 41.9699 152.828 40.1965C152.832 38.4513 153.222 36.729 153.969 35.1551C154.726 33.5258 155.903 32.1315 157.376 31.1175C158.886 30.0587 160.719 29.5293 162.875 29.5293C165.087 29.5293 166.968 30.0587 168.517 31.1175C170.019 32.1199 171.222 33.5155 171.999 35.1551C172.755 36.7262 173.15 38.4496 173.154 40.1965C173.147 41.9364 172.758 43.6529 172.014 45.2226C171.259 46.8572 170.082 48.2564 168.606 49.2733C167.089 50.3365 165.252 50.8681 163.097 50.8681C160.789 50.8681 158.864 50.3511 157.324 49.3172ZM167.009 48.3704C168.089 47.4879 168.924 46.3384 169.433 45.0336C169.982 43.6736 170.261 42.2184 170.256 40.7501C170.258 39.1092 169.954 37.4825 169.361 35.9547C168.822 34.4933 167.929 33.1914 166.763 32.1675C165.66 31.198 164.241 30.6739 162.779 30.6957C161.38 30.6616 160.013 31.1198 158.912 31.9918C157.82 32.877 156.978 34.038 156.473 35.3572C155.926 36.726 155.646 38.1887 155.648 39.6649C155.658 41.2403 155.941 42.8017 156.486 44.278C157.001 45.7542 157.874 47.0767 159.026 48.1244C160.133 49.0702 161.527 49.6084 162.977 49.6507C164.427 49.693 165.849 49.2369 167.009 48.3573V48.3704Z" fill="#0D050C"/>
<path d="M0 54.666H0.311166V56.5113L1.84523 54.666H2.12158V56.9879H1.81042V55.1427L0.28723 56.9879H0V54.666Z" fill="#6F6F6C"/>
<path d="M3.44434 54.666H3.7555V55.7007H5.20253V54.6704H5.5137V56.9923H5.20253V55.9643H3.7555V56.9879H3.44434V54.666Z" fill="#6F6F6C"/>
<path d="M7.18111 56.8607C7.00374 56.7632 6.85737 56.617 6.75897 56.4389C6.65562 56.2525 6.60306 56.0418 6.60665 55.8282C6.60271 55.6153 6.6553 55.4052 6.75897 55.2198C6.85853 55.0432 7.00466 54.8979 7.18111 54.8002C7.36855 54.6972 7.5792 54.645 7.79256 54.6486C7.97632 54.6455 8.15823 54.6861 8.3235 54.7672C8.48048 54.841 8.61279 54.9593 8.7043 55.1077L8.46494 55.2615C8.39404 55.1498 8.29387 55.06 8.17554 55.0023C8.05758 54.9446 7.92798 54.9153 7.79692 54.9166C7.64039 54.914 7.4859 54.9526 7.34866 55.0286C7.21635 55.1029 7.10825 55.2143 7.0375 55.3494C6.96455 55.4963 6.92657 55.6584 6.92657 55.8227C6.92657 55.9871 6.96455 56.1492 7.0375 56.2961C7.10957 56.4297 7.2174 56.5401 7.34866 56.6147C7.4859 56.6907 7.64039 56.7293 7.79692 56.7267C7.92773 56.7279 8.05715 56.6994 8.17554 56.6432C8.29328 56.5856 8.39331 56.4968 8.46494 56.3862L8.69777 56.5444C8.60991 56.6931 8.48045 56.8123 8.32568 56.887C8.16085 56.967 7.97976 57.0069 7.79692 57.0035C7.58285 57.0106 7.37062 56.9614 7.18111 56.8607Z" fill="#6F6F6C"/>
<path d="M11.3153 54.945H10.4449V56.9879H10.1272V54.945H9.25684V54.666H11.3153V54.945Z" fill="#6F6F6C"/>
<path d="M12.1855 54.666H12.4967V56.5113L14.0199 54.666H14.2962V56.9879H14.0047V55.1427L12.4815 56.9879H12.1855V54.666Z" fill="#6F6F6C"/>
<path d="M17.258 54.945H16.3876V56.9879H16.0764V54.945H15.2061V54.666H17.2558L17.258 54.945Z" fill="#6F6F6C"/>
<path d="M20.1078 54.666L18.9589 57.2669C18.8917 57.4468 18.7801 57.6064 18.6347 57.7304C18.5077 57.8216 18.3552 57.8693 18.1995 57.8666C18.0935 57.8675 17.9882 57.8497 17.8883 57.8139C17.7896 57.7824 17.6995 57.7283 17.625 57.6557L17.7686 57.4207C17.8228 57.4778 17.8881 57.523 17.9603 57.5537C18.0325 57.5843 18.1102 57.5996 18.1886 57.5986C18.2854 57.6008 18.3801 57.569 18.4562 57.5086C18.5515 57.4281 18.6261 57.3256 18.6738 57.2098L18.7739 56.9901L17.7469 54.6726H18.0711L18.9415 56.6497L19.8119 54.6726L20.1078 54.666Z" fill="#6F6F6C"/>
<path d="M22.6584 54.945H21.788V56.9879H21.4768V54.945H20.6064V54.666H22.6584V54.945Z" fill="#6F6F6C"/>
<path d="M27.1995 54.666V56.9879H26.8883V54.945H25.4369V56.9879H25.1279V54.666H27.1995Z" fill="#6F6F6C"/>
<path d="M30.2836 54.798C30.4568 54.8955 30.5993 55.0401 30.6949 55.2154C30.7922 55.4055 30.843 55.6164 30.843 55.8305C30.843 56.0445 30.7922 56.2554 30.6949 56.4455C30.6 56.6207 30.4583 56.7653 30.2858 56.8629C30.106 56.9628 29.9035 57.0136 29.6983 57.0101C29.5231 57.0136 29.3498 56.9736 29.1935 56.8937C29.0416 56.8155 28.9137 56.697 28.8236 56.551V57.8448H28.5059V54.6662H28.804V55.1253C28.8932 54.9763 29.0212 54.8548 29.1739 54.7738C29.3332 54.6885 29.5114 54.6455 29.6918 54.6486C29.8986 54.6449 30.1028 54.6965 30.2836 54.798ZM30.1139 56.6213C30.244 56.5456 30.3504 56.4344 30.4207 56.3006C30.4964 56.155 30.5345 55.9926 30.5317 55.8283C30.5347 55.6646 30.4965 55.5028 30.4207 55.3582C30.3497 55.2247 30.2435 55.1137 30.1139 55.0374C29.9813 54.9615 29.8312 54.9221 29.6787 54.9232C29.5261 54.9211 29.3758 54.9605 29.2435 55.0374C29.1139 55.1137 29.0077 55.2247 28.9367 55.3582C28.8609 55.5028 28.8227 55.6646 28.8257 55.8283C28.8229 55.9926 28.8611 56.155 28.9367 56.3006C29.0071 56.4344 29.1134 56.5456 29.2435 56.6213C29.3764 56.6964 29.5264 56.735 29.6787 56.7333C29.8309 56.7344 29.9808 56.6958 30.1139 56.6213Z" fill="#6F6F6C"/>
<path d="M32.2979 56.8582C32.122 56.7595 31.9766 56.6135 31.8779 56.4364C31.7779 56.2495 31.7256 56.0404 31.7256 55.8279C31.7256 55.6155 31.7779 55.4064 31.8779 55.2194C31.9762 55.0426 32.1217 54.8972 32.2979 54.7999C32.4824 54.7004 32.6883 54.6484 32.8974 54.6484C33.1065 54.6484 33.3124 54.7004 33.4969 54.7999C33.6724 54.8973 33.8172 55.0427 33.9146 55.2194C34.0131 55.4068 34.0646 55.6158 34.0646 55.8279C34.0646 56.0401 34.0131 56.249 33.9146 56.4364C33.8166 56.6132 33.672 56.7592 33.4969 56.8582C33.3124 56.9576 33.1065 57.0096 32.8974 57.0096C32.6883 57.0096 32.4824 56.9576 32.2979 56.8582ZM33.3358 56.6209C33.4658 56.5458 33.5716 56.4345 33.6405 56.3002C33.7121 56.1533 33.7493 55.9917 33.7493 55.8279C33.7493 55.6642 33.7121 55.5026 33.6405 55.3556C33.5722 55.2209 33.4663 55.1094 33.3358 55.0349C33.203 54.9598 33.0529 54.9211 32.9006 54.9229C32.7484 54.9211 32.5983 54.9598 32.4654 55.0349C32.336 55.1107 32.2304 55.2219 32.1608 55.3556C32.0879 55.5022 32.0499 55.6639 32.0499 55.8279C32.0499 55.9919 32.0879 56.1537 32.1608 56.3002C32.231 56.4335 32.3364 56.5446 32.4654 56.6209C32.5983 56.6961 32.7484 56.7347 32.9006 56.733C33.0529 56.7347 33.203 56.6961 33.3358 56.6209Z" fill="#6F6F6C"/>
<path d="M35.1662 54.666H35.4687V56.5113L37.0028 54.666H37.2791V56.9879H36.9679V55.1427L35.4448 56.9879H35.1641L35.1662 54.666Z" fill="#6F6F6C"/>
<path d="M40.0617 55.9771C40.1054 56.0228 40.1396 56.0769 40.1624 56.1361C40.1852 56.1953 40.1961 56.2585 40.1944 56.322C40.1954 56.4559 40.1465 56.5852 40.0574 56.6844C39.9557 56.7971 39.8267 56.8811 39.6831 56.9283C39.5176 56.9881 39.3431 57.0186 39.1674 57.0183C39.0016 57.0183 38.8366 56.9938 38.6778 56.9458C38.5252 56.9002 38.3827 56.8257 38.2578 56.7262L38.3623 56.4911C38.4734 56.574 38.5978 56.6371 38.73 56.6778C38.8673 56.7215 39.0104 56.7437 39.1543 56.7437C39.3359 56.7506 39.5161 56.7089 39.6766 56.6229C39.7373 56.5923 39.7886 56.5453 39.8247 56.4872C39.8607 56.429 39.8803 56.362 39.8811 56.2934C39.8817 56.2343 39.8665 56.1761 39.837 56.1251C39.8075 56.074 39.7648 56.032 39.7135 56.0034C39.5741 55.9279 39.4168 55.8922 39.2588 55.9002H38.8649V55.6805H39.2414C39.3866 55.6877 39.5309 55.6526 39.657 55.5795C39.7045 55.5536 39.7441 55.5153 39.7717 55.4685C39.7993 55.4216 39.8138 55.3681 39.8136 55.3137C39.8138 55.2533 39.7974 55.1941 39.7663 55.1425C39.7352 55.0909 39.6906 55.0491 39.6374 55.0215C39.4957 54.9454 39.3364 54.909 39.1761 54.9161C38.9195 54.9187 38.6673 54.9835 38.4406 55.105L38.3536 54.8634C38.6157 54.7206 38.9087 54.6452 39.2065 54.6437C39.3681 54.6415 39.5287 54.6683 39.6809 54.7228C39.8092 54.765 39.924 54.8408 40.0138 54.9424C40.0927 55.0327 40.1354 55.1494 40.1335 55.2697C40.1346 55.3853 40.0917 55.4969 40.0138 55.5817C39.9257 55.6788 39.8128 55.7495 39.6874 55.786C39.828 55.8114 39.9581 55.8778 40.0617 55.9771Z" fill="#6F6F6C"/>
<path d="M43.2695 56.3593C43.2746 56.4494 43.2574 56.5394 43.2194 56.6211C43.1814 56.7028 43.1239 56.7737 43.0519 56.8272C42.856 56.9477 42.6281 57.0045 42.3991 56.9898H41.3438V54.6657H42.3578C42.5739 54.6538 42.7886 54.7081 42.9736 54.8216C43.0314 54.8637 43.0804 54.9169 43.1178 54.9782C43.1551 55.0395 43.1801 55.1076 43.1912 55.1787C43.2024 55.2498 43.1994 55.3224 43.1826 55.3923C43.1658 55.4622 43.1354 55.5281 43.0932 55.5861C43.0201 55.6804 42.9209 55.7507 42.8082 55.7882C42.9424 55.8068 43.0646 55.8761 43.1502 55.9821C43.2358 56.0881 43.2785 56.2229 43.2695 56.3593ZM41.6375 55.7003H42.3295C42.4724 55.7091 42.6145 55.673 42.7364 55.5971C42.7834 55.5646 42.8213 55.5205 42.8465 55.4689C42.8716 55.4174 42.8832 55.3601 42.88 55.3027C42.8832 55.2456 42.8717 55.1887 42.8465 55.1374C42.8213 55.0862 42.7834 55.0425 42.7364 55.0106C42.6129 54.9391 42.4715 54.9055 42.3295 54.9139H41.6375V55.7003ZM42.8147 56.6449C42.8637 56.6116 42.9032 56.5658 42.9291 56.5122C42.9551 56.4586 42.9667 56.3991 42.9627 56.3396C42.9667 56.2811 42.9565 56.2225 42.933 56.1689C42.9094 56.1153 42.8733 56.0683 42.8278 56.032C42.6962 55.9548 42.5442 55.9203 42.3926 55.9332H41.631V56.7416H42.3621C42.5189 56.7525 42.6757 56.719 42.8147 56.6449Z" fill="#6F6F6C"/>
<path d="M44.7813 56.8582C44.6054 56.7595 44.46 56.6135 44.3613 56.4364C44.2613 56.2495 44.209 56.0404 44.209 55.8279C44.209 55.6155 44.2613 55.4064 44.3613 55.2194C44.4596 55.0426 44.6051 54.8972 44.7813 54.7999C44.9654 54.7004 45.1709 54.6484 45.3797 54.6484C45.5885 54.6484 45.794 54.7004 45.9781 54.7999C46.1541 54.8966 46.2991 55.0422 46.3959 55.2194C46.4959 55.4064 46.5482 55.6155 46.5482 55.8279C46.5482 56.0404 46.4959 56.2495 46.3959 56.4364C46.2986 56.6138 46.1538 56.7599 45.9781 56.8582C45.794 56.9576 45.5885 57.0096 45.3797 57.0096C45.1709 57.0096 44.9654 56.9576 44.7813 56.8582ZM45.8192 56.6209C45.9487 56.5451 46.0543 56.434 46.1239 56.3002C46.1955 56.1533 46.2327 55.9917 46.2327 55.8279C46.2327 55.6642 46.1955 55.5026 46.1239 55.3556C46.055 55.2214 45.9492 55.11 45.8192 55.0349C45.6852 54.963 45.5358 54.9254 45.384 54.9254C45.2323 54.9254 45.0828 54.963 44.9488 55.0349C44.8194 55.1107 44.7138 55.2219 44.6442 55.3556C44.5698 55.5017 44.5309 55.6636 44.5309 55.8279C44.5309 55.9922 44.5698 56.1541 44.6442 56.3002C44.7144 56.4335 44.8198 56.5446 44.9488 56.6209C45.0828 56.6929 45.2323 56.7305 45.384 56.7305C45.5358 56.7305 45.6852 56.6929 45.8192 56.6209Z" fill="#6F6F6C"/>
<path d="M49.8804 56.7155V57.5503H49.5866V56.9879H47.5281V57.5503H47.2344V56.7155H47.3671C47.5216 56.7155 47.626 56.5925 47.6804 56.3707C47.7476 56.066 47.7854 55.7556 47.7936 55.4437L47.8262 54.666H49.5213V56.7155H49.8804ZM47.996 56.2762C47.9795 56.4447 47.902 56.6011 47.7784 56.7155H49.2123V54.945H48.1069L48.0808 55.4612C48.0716 55.7346 48.0432 56.0069 47.996 56.2762Z" fill="#6F6F6C"/>
<path d="M51.2729 56.8607C51.0955 56.7632 50.9492 56.617 50.8508 56.439C50.7474 56.2526 50.6949 56.0418 50.6984 55.8283C50.6945 55.6154 50.7471 55.4052 50.8508 55.2198C50.9503 55.0432 51.0965 54.898 51.2729 54.8002C51.4596 54.6972 51.6695 54.645 51.8822 54.6486C52.066 54.6452 52.2479 54.6859 52.4131 54.7673C52.5668 54.8417 52.6954 54.9601 52.783 55.1077L52.5524 55.2681C52.4815 55.1564 52.3813 55.0667 52.263 55.0089C52.1441 54.9516 52.0139 54.9223 51.8822 54.9232C51.7257 54.9209 51.5713 54.9595 51.4339 55.0353C51.3023 55.1096 51.1949 55.221 51.1249 55.356C51.0507 55.5025 51.0119 55.6648 51.0119 55.8294C51.0119 55.994 51.0507 56.1562 51.1249 56.3028C51.1962 56.4361 51.3033 56.5465 51.4339 56.6213C51.5713 56.697 51.7257 56.7356 51.8822 56.7333C52.0136 56.7341 52.1437 56.7056 52.263 56.6498C52.3807 56.5922 52.4807 56.5034 52.5524 56.3928L52.783 56.551C52.6961 56.7005 52.5664 56.82 52.4109 56.8937C52.2462 56.9739 52.065 57.0138 51.8822 57.0101C51.6697 57.0144 51.4598 56.9629 51.2729 56.8607Z" fill="#6F6F6C"/>
<path d="M55.3938 54.945H54.5234V56.9879H54.2122V54.945H53.3418V54.666H55.3938V54.945Z" fill="#6F6F6C"/>
<path d="M58.2138 56.3593C58.219 56.4495 58.2018 56.5394 58.1638 56.6211C58.1258 56.7028 58.0682 56.7737 57.9962 56.8272C57.7972 56.95 57.5652 57.0068 57.3326 56.9898H56.2881V54.6657H57.3021C57.5182 54.6538 57.7329 54.7081 57.9179 54.8216C57.9757 54.8637 58.0248 54.9169 58.0621 54.9782C58.0995 55.0395 58.1245 55.1076 58.1356 55.1787C58.1467 55.2498 58.1438 55.3224 58.127 55.3923C58.1101 55.4622 58.0798 55.5281 58.0376 55.5861C57.9644 55.6804 57.8652 55.7507 57.7525 55.7882C57.8867 55.8068 58.009 55.8761 58.0946 55.9821C58.1802 56.0881 58.2228 56.2229 58.2138 56.3593ZM56.5818 55.7003H57.2738C57.4174 55.7089 57.5602 55.6728 57.6829 55.5971C57.7294 55.5642 57.7667 55.52 57.7915 55.4685C57.8162 55.4169 57.8275 55.3599 57.8243 55.3027C57.8274 55.2459 57.816 55.1892 57.7912 55.1381C57.7665 55.087 57.7292 55.0431 57.6829 55.0106C57.5586 54.9393 57.4165 54.9058 57.2738 54.9139H56.5753L56.5818 55.7003ZM57.7591 56.6449C57.8081 56.6116 57.8475 56.5658 57.8735 56.5122C57.8995 56.4586 57.911 56.3991 57.907 56.3396C57.911 56.2811 57.9008 56.2225 57.8773 56.1689C57.8538 56.1153 57.8177 56.0683 57.7721 56.032C57.6405 55.9548 57.4886 55.9203 57.3369 55.9332H56.5753V56.7416H57.3064C57.4633 56.7525 57.62 56.719 57.7591 56.6449Z" fill="#6F6F6C"/>
<path d="M61.387 55.9205H59.4634C59.4682 56.0317 59.4952 56.1407 59.5427 56.2411C59.5902 56.3415 59.6572 56.4312 59.7398 56.5048C59.9144 56.6556 60.1391 56.7341 60.3686 56.7245C60.5037 56.7257 60.6376 56.6996 60.7625 56.6476C60.881 56.5984 60.9872 56.5234 61.0737 56.428L61.2477 56.6322C61.145 56.7565 61.0135 56.8531 60.8648 56.9134C60.7048 56.9801 60.533 57.013 60.3599 57.0101C60.1417 57.0142 59.926 56.962 59.7332 56.8585C59.5517 56.7621 59.4008 56.6159 59.2981 56.4367C59.1944 56.2513 59.1418 56.0412 59.1457 55.8283C59.1417 55.6162 59.1919 55.4066 59.2915 55.2198C59.3838 55.0444 59.5234 54.8989 59.6941 54.8002C59.8684 54.6979 60.067 54.6455 60.2685 54.6486C60.4695 54.6448 60.6676 54.6973 60.8408 54.8002C61.0097 54.8989 61.1477 55.0435 61.239 55.2176C61.3374 55.4056 61.3868 55.6157 61.3826 55.8283L61.387 55.9205ZM59.7202 55.1275C59.5681 55.2752 59.4765 55.4751 59.4634 55.6877H61.0954C61.0824 55.4751 60.9907 55.2752 60.8386 55.1275C60.6841 54.9902 60.4853 54.9145 60.2794 54.9145C60.0735 54.9145 59.8747 54.9902 59.7202 55.1275Z" fill="#6F6F6C"/>
<path d="M62.5156 54.666H62.8268V55.7007H64.2738V54.6704H64.5828V56.9923H64.2738V55.9643H62.8268V56.9879H62.5156V54.666Z" fill="#6F6F6C"/>
<path d="M65.9043 54.666H66.2155V55.7007H67.6734V54.6704H67.9845V56.9923H67.6734V55.9643H66.2155V56.9879H65.9043V54.666Z" fill="#6F6F6C"/>
<path d="M70.9194 55.6831C70.9972 55.7499 71.0584 55.8341 71.0981 55.9291C71.1378 56.0241 71.1548 56.1272 71.1479 56.2301C71.154 56.3377 71.1349 56.4453 71.0922 56.5442C71.0494 56.643 70.9843 56.7303 70.902 56.799C70.6979 56.9439 70.4501 57.0123 70.2013 56.9923H69.2939V54.666H69.6029V55.481H70.2557C70.4934 55.4692 70.7278 55.5406 70.9194 55.6831ZM70.667 56.6255C70.7233 56.5772 70.7675 56.5163 70.7962 56.4476C70.825 56.379 70.8373 56.3044 70.8324 56.2301C70.8382 56.1581 70.8264 56.0857 70.7979 56.0194C70.7694 55.9531 70.7252 55.895 70.6692 55.85C70.5252 55.7561 70.355 55.7114 70.1839 55.7226H69.6029V56.7551H70.1839C70.355 56.7701 70.5259 56.7243 70.667 56.6255ZM71.5374 54.666H71.8485V56.9879H71.5374V54.666Z" fill="#6F6F6C"/>
<path d="M74.6019 56.9879L73.8708 56.017L73.1374 56.9879H72.7871L73.6967 55.7973L72.8263 54.666H73.1766L73.8664 55.5755L74.5584 54.666H74.9L74.0296 55.7973L74.9479 56.9879H74.6019Z" fill="#6F6F6C"/>
<path d="M89.085 54.666H89.3961V56.5113L90.9302 54.666H91.2065V56.9879H90.8954V55.1427L89.3722 56.9879H89.085V54.666Z" fill="#6F6F6C"/>
<path d="M92.5293 54.666H92.8405V55.7007H94.2875V54.6704H94.5987V56.9923H94.2875V55.9643H92.8405V56.9879H92.5293V54.666Z" fill="#6F6F6C"/>
<path d="M95.9199 54.666H96.2289V55.7007H97.6759V54.6704H97.9871V56.9923H97.6759V55.9643H96.2289V56.9879H95.9199V54.666Z" fill="#6F6F6C"/>
<path d="M99.6603 56.8582C99.4844 56.7595 99.339 56.6135 99.2404 56.4364C99.1391 56.2499 99.0859 56.0406 99.0859 55.8279C99.0859 55.6152 99.1391 55.4059 99.2404 55.2194C99.3386 55.0426 99.4841 54.8972 99.6603 54.7999C99.8444 54.7004 100.05 54.6484 100.259 54.6484C100.468 54.6484 100.673 54.7004 100.857 54.7999C101.033 54.8966 101.178 55.0422 101.275 55.2194C101.375 55.4064 101.427 55.6155 101.427 55.8279C101.427 56.0404 101.375 56.2495 101.275 56.4364C101.178 56.6138 101.033 56.7599 100.857 56.8582C100.673 56.9576 100.468 57.0096 100.259 57.0096C100.05 57.0096 99.8444 56.9576 99.6603 56.8582ZM100.698 56.6209C100.828 56.5457 100.933 56.4343 101.001 56.3002C101.074 56.1537 101.112 55.9919 101.112 55.8279C101.112 55.6639 101.074 55.5022 101.001 55.3556C100.933 55.2211 100.828 55.1096 100.698 55.0349C100.564 54.963 100.415 54.9254 100.263 54.9254C100.111 54.9254 99.9619 54.963 99.8279 55.0349C99.6973 55.11 99.5909 55.2213 99.5211 55.3556C99.4482 55.5022 99.4102 55.6639 99.4102 55.8279C99.4102 55.9919 99.4482 56.1537 99.5211 56.3002C99.5915 56.4341 99.6978 56.5453 99.8279 56.6209C99.9619 56.6929 100.111 56.7305 100.263 56.7305C100.415 56.7305 100.564 56.6929 100.698 56.6209Z" fill="#6F6F6C"/>
<path d="M104.458 56.3594C104.463 56.4494 104.446 56.5393 104.408 56.6209C104.37 56.7026 104.312 56.7734 104.241 56.8273C104.041 56.9496 103.808 57.0064 103.575 56.9898H102.53V54.6657H103.544C103.76 54.6535 103.975 54.7079 104.16 54.8217C104.231 54.8699 104.288 54.9356 104.326 55.0126C104.364 55.0896 104.382 55.1751 104.378 55.261C104.381 55.3772 104.345 55.491 104.275 55.584C104.201 55.6779 104.101 55.748 103.988 55.7861C104.124 55.8026 104.249 55.8713 104.337 55.978C104.424 56.0847 104.468 56.2212 104.458 56.3594ZM102.826 55.7004H103.518C103.662 55.7092 103.805 55.6731 103.927 55.5971C103.974 55.5643 104.011 55.52 104.036 55.4685C104.061 55.417 104.072 55.3599 104.069 55.3028C104.072 55.246 104.06 55.1893 104.036 55.1381C104.011 55.087 103.974 55.0431 103.927 55.0106C103.803 54.9391 103.661 54.9055 103.518 54.914H102.826V55.7004ZM104.003 56.645C104.053 56.6119 104.092 56.5662 104.118 56.5126C104.144 56.4589 104.156 56.3992 104.151 56.3396C104.156 56.2811 104.146 56.2223 104.122 56.1686C104.099 56.1149 104.062 56.068 104.016 56.0321C103.885 55.9546 103.733 55.92 103.581 55.9332H102.82V56.7416H103.551C103.711 56.7542 103.871 56.7207 104.012 56.645H104.003Z" fill="#6F6F6C"/>
<path d="M107.104 54.877C107.188 54.9659 107.253 55.0716 107.294 55.1874C107.335 55.3032 107.352 55.4264 107.343 55.5492V56.988H107.058V56.6277C106.984 56.7499 106.877 56.8476 106.749 56.9089C106.598 56.9802 106.433 57.0148 106.266 57.01C106.047 57.022 105.831 56.9567 105.655 56.8254C105.584 56.767 105.527 56.6938 105.488 56.611C105.449 56.5281 105.427 56.4376 105.426 56.3457C105.424 56.2538 105.443 56.1627 105.48 56.0786C105.516 55.9946 105.571 55.9196 105.639 55.8589C105.837 55.7214 106.075 55.6577 106.314 55.6788H107.043V55.536C107.049 55.4524 107.037 55.3684 107.009 55.2897C106.98 55.211 106.935 55.1392 106.878 55.0791C106.741 54.9667 106.568 54.9109 106.392 54.9231C106.249 54.9227 106.107 54.9472 105.972 54.9956C105.846 55.0408 105.728 55.1093 105.626 55.1977L105.487 54.9626C105.612 54.8629 105.754 54.7883 105.907 54.743C106.073 54.6872 106.247 54.659 106.423 54.6595C106.669 54.6426 106.912 54.7203 107.104 54.877ZM106.753 56.6343C106.881 56.5504 106.979 56.4272 107.032 56.2829V55.9204H106.312C105.918 55.9204 105.722 56.0588 105.722 56.3356C105.72 56.3975 105.732 56.4591 105.759 56.515C105.785 56.5709 105.825 56.6194 105.874 56.6563C106.003 56.7419 106.156 56.7828 106.31 56.7727C106.467 56.7735 106.621 56.7285 106.753 56.6431V56.6343Z" fill="#6F6F6C"/>
<path d="M111.003 56.7155V57.5723H110.709V56.9879H108.607V54.666H108.919V56.7155H110.322V54.666H110.631V56.7155H111.003Z" fill="#6F6F6C"/>
<path d="M112.035 54.666H112.346V56.5113L113.88 54.666H114.157V56.9879H113.846V55.1427L112.322 56.9879H112.042L112.035 54.666Z" fill="#6F6F6C"/>
<path d="M115.481 54.666H115.79V56.5113L117.327 54.666H117.601V56.9879H117.285V55.1427L115.762 56.9879H115.484L115.481 54.666ZM116.054 54.1806C115.994 54.1283 115.947 54.0633 115.916 53.9903C115.885 53.9173 115.87 53.8382 115.873 53.7588H116.091C116.09 53.8108 116.1 53.8623 116.121 53.9097C116.143 53.9572 116.174 53.9994 116.213 54.0334C116.298 54.1053 116.408 54.1422 116.519 54.1366C116.631 54.1421 116.742 54.1053 116.828 54.0334C116.868 53.9995 116.899 53.9573 116.92 53.9099C116.942 53.8625 116.953 53.8109 116.952 53.7588H117.17C117.173 53.8383 117.159 53.9175 117.128 53.9906C117.096 54.0636 117.049 54.1286 116.989 54.1806C116.851 54.2793 116.686 54.3323 116.516 54.3323C116.347 54.3323 116.181 54.2793 116.043 54.1806H116.054Z" fill="#6F6F6C"/>
<path d="M119.224 76.1781C114.137 78.5906 108.584 79.8388 102.963 79.8334C88.2905 79.8334 75.524 71.4859 69.0439 59.2568H67.8428C72.517 68.4245 80.5267 75.4083 90.1913 78.743C99.856 82.0777 110.424 81.504 119.679 77.1424L119.224 76.1781Z" fill="#6F6F6C"/>
<path d="M102.963 0.124044C97.0761 0.11807 91.2627 1.44524 85.9512 4.00782L86.4038 4.97437C91.5713 2.47016 97.231 1.17277 102.963 1.17846C119.418 1.17846 133.486 11.6677 138.962 26.3703H140.09C137.317 18.678 132.267 12.0332 125.625 7.33783C118.984 2.64245 111.071 0.123901 102.963 0.124044Z" fill="#6F6F6C"/>
<path d="M79.1622 26.3706C81.5987 22.1794 85.0782 18.7039 89.2557 16.289C93.4331 13.8742 98.1634 12.6037 102.977 12.6037C107.791 12.6037 112.521 13.8742 116.699 16.289C120.876 18.7039 124.356 22.1794 126.792 26.3706H128.078C125.585 21.8586 121.945 18.1003 117.532 15.484C113.119 12.8677 108.094 11.4883 102.976 11.4883C97.8585 11.4883 92.8337 12.8677 88.4207 15.484C84.0078 18.1003 80.3669 21.8586 77.874 26.3706H79.1622Z" fill="#FBB91C"/>
<path d="M127.088 54.1211C124.691 58.4523 121.193 62.0595 116.955 64.5705C112.717 67.0815 107.891 68.4053 102.977 68.4053C98.0626 68.4053 93.2373 67.0815 88.9989 64.5705C84.7605 62.0595 81.2625 58.4523 78.8659 54.1211H77.5908C80.0387 58.7729 83.6947 62.6643 88.1667 65.3781C92.6387 68.0918 97.7581 69.5256 102.976 69.5256C108.194 69.5256 113.313 68.0918 117.785 65.3781C122.257 62.6643 125.913 58.7729 128.361 54.1211H127.088Z" fill="#FBB91C"/>
<path d="M173.143 54.1211H127.606V55.2832H173.143V54.1211Z" fill="#FBB91C"/>
</g>
<defs>
<clipPath id="clip0">
<rect width="173.143" height="80.7619" fill="white" transform="translate(0 0.124023)"/>
</clipPath>
</defs>
</svg>
