<svg width="130" height="60" viewBox="0 0 130 60" fill="none" xmlns="http://www.w3.org/2000/svg">
<g clip-path="url(#clip0)">
<path d="M13.6401 23.2542C13.4293 23.4575 13.2984 23.7297 13.2713 24.0213C13.2419 24.3183 13.2273 24.8345 13.2273 25.57V34.7712C13.2353 35.342 13.2141 35.9128 13.1636 36.4815L14.7222 36.395V37.3481H9.85067V36.6333C10.355 36.6186 10.7173 36.5027 10.9327 36.2873C11.1433 36.0832 11.2741 35.8106 11.3015 35.5186C11.3309 35.2232 11.3439 34.7026 11.3439 33.9699V25.2665L3.37658 35.2216C3.38288 35.6409 3.36162 36.0601 3.31293 36.4766L4.87148 36.3901V37.3432H0V36.6284C0.504284 36.6137 0.866585 36.4978 1.08201 36.2824C1.29262 36.0783 1.42342 35.8057 1.45084 35.5137C1.47858 35.2183 1.49327 34.6977 1.49327 33.965V24.6169C1.49327 24.0115 1.51612 23.4909 1.55855 23.0584L0 23.1449V22.1951H4.87148V22.9099C4.36557 22.924 4.0049 23.0399 3.78947 23.2575C3.57861 23.4607 3.44773 23.7329 3.42064 24.0245C3.39127 24.3215 3.37658 24.8378 3.37658 25.5733V33.7822L11.3733 23.9087C11.3733 23.6932 11.3864 23.4109 11.4157 23.0649L9.8572 23.1514V22.1951H14.7222V22.9099C14.2162 22.9218 13.8556 23.0366 13.6401 23.2542Z" fill="#0D050C"/>
<path d="M17.1035 36.6333C17.6094 36.618 17.9701 36.5027 18.1855 36.2873C18.3961 36.0832 18.5269 35.8106 18.5544 35.5186C18.5821 35.2232 18.5968 34.7026 18.5968 33.9699V24.6169C18.5968 24.0115 18.6196 23.4909 18.6621 23.0584L17.1035 23.1449V22.1951H21.975V22.9099C21.4691 22.924 21.1084 23.0399 20.893 23.2575C20.6821 23.4607 20.5512 23.7329 20.5242 24.0245C20.4948 24.3215 20.4817 24.8405 20.4817 25.5733V29.1637H28.2337V24.6169C28.2337 24.0115 28.2549 23.4909 28.2989 23.0584L26.7388 23.1449V22.1951H31.6102V22.9099C31.1065 22.924 30.7458 23.0399 30.5282 23.2575C30.3173 23.4605 30.1868 23.7329 30.161 24.0245C30.1317 24.3215 30.117 24.8378 30.117 25.5733V34.7744C30.1255 35.3453 30.1038 35.9162 30.0517 36.4847L31.6102 36.3983V37.3513H26.7371V36.6365C27.243 36.6213 27.6043 36.506 27.8208 36.2905C28.0315 36.0867 28.1618 35.8139 28.188 35.5219C28.2173 35.2265 28.232 34.7059 28.232 33.9731V30.0286L20.4817 30.1151V34.7695C20.4895 35.3404 20.4677 35.9112 20.4164 36.4798L21.975 36.3934V37.3464H17.1035V36.6333Z" fill="#0D050C"/>
<path d="M37.1638 36.6774C36.0541 36.0081 35.148 35.0489 34.5429 33.903C33.9083 32.703 33.5846 31.3632 33.6012 30.0058C33.5927 28.6315 33.8845 27.2719 34.4564 26.0221C35.0134 24.8014 35.8981 23.7591 37.012 23.0111C38.1446 22.2387 39.5117 21.8524 41.1132 21.8524C42.6706 21.8436 44.1946 22.3036 45.487 23.1727L45.3792 22.0042H46.5477V27.0275H45.7693C45.6246 25.6849 45.1519 24.635 44.3511 23.8777C43.5503 23.1205 42.5216 22.7397 41.265 22.7353C40.2651 22.7281 39.2869 23.0265 38.4613 23.5905C37.5825 24.2032 36.8897 25.0463 36.4588 26.027C35.9484 27.178 35.6971 28.4271 35.7228 29.686C35.7012 30.9176 35.9684 32.1371 36.5029 33.2469C36.9716 34.236 37.6969 35.0813 38.6032 35.6949C39.4667 36.2742 40.4848 36.5797 41.5245 36.5713C42.4935 36.5705 43.4494 36.3471 44.3185 35.9185C45.1965 35.4994 45.9556 34.8671 46.5265 34.0793L47.0896 34.533C46.2529 35.7036 45.2933 36.5229 44.2107 36.9907C43.1885 37.448 42.0829 37.6891 40.9631 37.699C39.6263 37.7188 38.3104 37.365 37.1638 36.6774Z" fill="#0D050C"/>
<path d="M52.2419 36.6333C52.8621 36.6039 53.2636 36.4309 53.4431 36.1143C53.6226 35.7977 53.714 35.2983 53.714 34.6455V33.9731L53.7352 22.9964L51.5059 23.0111C50.6094 23.0111 49.9707 23.3103 49.59 23.9087C49.2092 24.507 49.0182 25.459 49.0171 26.7646H48.2158L48.3447 22.1951H60.9665L61.0971 26.7646H60.2811C60.2898 26.03 60.1987 25.2976 60.0102 24.5876C59.8792 24.0972 59.5807 23.6682 59.1665 23.375C58.7682 23.1095 58.2014 22.9762 57.4659 22.9752H55.6201L55.5973 34.7744C55.6059 35.3453 55.5841 35.9162 55.532 36.4847L57.3272 36.3983V37.3513H52.2419V36.6333Z" fill="#0D050C"/>
<path d="M76.4246 23.2542C76.2143 23.4576 76.084 23.7298 76.0575 24.0213C76.0281 24.3183 76.0134 24.8345 76.0134 25.57V34.7712C76.0215 35.342 76.0002 35.9128 75.9497 36.4815L77.5083 36.395V37.3481H72.6368V36.6333C73.1411 36.6186 73.5034 36.5027 73.7188 36.2873C73.9294 36.0832 74.0602 35.8106 74.0876 35.5186C74.1154 35.2232 74.1301 34.7026 74.1301 33.9699V25.2665L66.1627 35.2216C66.1694 35.6409 66.1476 36.0602 66.0974 36.4766L67.6576 36.3901V37.3432H62.7861V36.6284C63.2899 36.6131 63.6505 36.4978 63.8681 36.2824C64.0788 36.0783 64.2096 35.8057 64.237 35.5137C64.2647 35.2183 64.2794 34.6977 64.2794 33.965V24.6169C64.2794 24.0115 64.3006 23.4909 64.3447 23.0584L62.7861 23.1449V22.1951H67.6576V22.9099C67.1517 22.924 66.7905 23.0399 66.574 23.2575C66.3636 23.4609 66.2333 23.7331 66.2068 24.0245C66.1774 24.3215 66.1627 24.8378 66.1627 25.5733V33.7822L74.1513 23.9087C74.1513 23.6932 74.166 23.4109 74.1954 23.0649L72.6368 23.1514V22.1951H77.5083V22.9099C77.0024 22.9218 76.6412 23.0366 76.4246 23.2542Z" fill="#0D050C"/>
<path d="M80.4571 37.2941C80.2122 37.0277 80.08 36.6767 80.0883 36.3149C80.0807 35.9466 80.2164 35.5896 80.4669 35.3194C80.5783 35.1902 80.7163 35.0865 80.8715 35.0155C81.0267 34.9445 81.1954 34.9079 81.3661 34.9082C81.5372 34.905 81.7069 34.9403 81.8625 35.0115C82.0182 35.0826 82.1558 35.1879 82.2653 35.3194C82.5034 35.5956 82.6302 35.9504 82.6211 36.3149C82.6289 36.6785 82.4929 37.0304 82.2425 37.2941C82.1296 37.4204 81.9913 37.5214 81.8366 37.5903C81.6818 37.6592 81.5143 37.6946 81.3449 37.694C81.1768 37.6954 81.0104 37.6604 80.8572 37.5914C80.7039 37.5224 80.5674 37.4209 80.4571 37.2941Z" fill="#0D050C"/>
<path d="M98.2257 23.2542C98.0153 23.4576 97.885 23.7298 97.8585 24.0213C97.8291 24.3183 97.8144 24.8345 97.8144 25.57V34.7712C97.823 35.342 97.8012 35.9129 97.7492 36.4815L99.3093 36.395V37.3481H94.4134V36.6333C94.934 36.6186 95.3012 36.5027 95.5182 36.2873C95.729 36.0835 95.8593 35.8106 95.8854 35.5186C95.9148 35.2232 95.9295 34.7026 95.9295 33.9699V23.0355L90.0837 23.122C89.4929 23.1362 89.0996 23.288 88.9038 23.5774C88.7096 23.8662 88.6051 24.3052 88.5905 24.8976V34.7695C88.599 35.3404 88.5772 35.9113 88.5252 36.4798L90.0853 36.3934V37.3464H85.2139V36.6316C85.7198 36.6164 86.081 36.5011 86.2975 36.2856C86.507 36.081 86.6372 35.8086 86.6647 35.517C86.6941 35.2216 86.7088 34.701 86.7088 33.9682V24.6169C86.7088 24.0115 86.73 23.4909 86.7724 23.0584L85.2139 23.1449V22.1951H99.3093V22.9099C98.8034 22.9218 98.4422 23.0366 98.2257 23.2542Z" fill="#0D050C"/>
<path d="M101.69 36.6332C102.195 36.618 102.556 36.5027 102.772 36.2872C102.983 36.083 103.113 35.8104 103.14 35.5186C103.169 35.2232 103.184 34.7026 103.184 33.9698V24.6169C103.184 24.0114 103.205 23.4908 103.249 23.0583L101.69 23.1448V22.195C103.711 22.1678 105.32 22.1537 106.518 22.1526C108.669 22.1526 110.296 22.5279 111.399 23.2787C112.502 24.0294 113.054 25.1337 113.056 26.5916C113.055 27.4361 112.83 28.2652 112.403 28.9939C111.962 29.7555 111.204 30.3909 110.129 30.9C109.054 31.4092 107.627 31.6627 105.847 31.6605C105.521 31.6605 105.255 31.6524 105.067 31.6393V34.7776C105.076 35.3485 105.054 35.9194 105.002 36.488L106.994 36.3803V37.3594H101.69V36.6332ZM108.737 30.3223C109.417 30.0138 109.989 29.5115 110.384 28.8786C110.779 28.2457 110.978 27.5103 110.957 26.7646C110.957 25.4655 110.56 24.5124 109.766 23.9053C108.971 23.2982 107.874 22.9952 106.474 22.9963C105.984 22.9963 105.641 23.0975 105.446 23.2999C105.257 23.4968 105.142 23.7526 105.119 24.0245C105.09 24.3063 105.075 24.8225 105.075 25.5732V30.7483C105.543 30.7958 106.012 30.8171 106.482 30.8119C107.261 30.819 108.031 30.6517 108.737 30.3223Z" fill="#0D050C"/>
<path d="M117.993 36.5466C116.876 35.8262 115.989 34.8005 115.437 33.5911C114.892 32.3915 114.614 31.0881 114.621 29.7706C114.624 28.4741 114.916 27.1946 115.476 26.0252C116.045 24.8148 116.927 23.7789 118.032 23.0256C119.165 22.239 120.539 21.8457 122.156 21.8457C123.815 21.8457 125.226 22.239 126.388 23.0256C127.514 23.7704 128.417 24.8072 128.999 26.0252C129.566 27.1925 129.863 28.4728 129.866 29.7706C129.86 31.0632 129.568 32.3385 129.01 33.5046C128.444 34.719 127.561 35.7585 126.455 36.514C125.317 37.3039 123.939 37.6988 122.323 37.6988C120.592 37.6988 119.148 37.3148 117.993 36.5466ZM125.257 35.8432C126.067 35.1876 126.693 34.3336 127.075 33.3643C127.486 32.3539 127.696 31.2728 127.692 30.1819C127.693 28.9628 127.466 27.7543 127.021 26.6193C126.616 25.5336 125.947 24.5664 125.072 23.8057C124.245 23.0855 123.181 22.6961 122.084 22.7123C121.035 22.6869 120.01 23.0273 119.184 23.6752C118.365 24.3328 117.734 25.1953 117.355 26.1754C116.944 27.1923 116.734 28.279 116.736 29.3757C116.743 30.5461 116.956 31.7061 117.365 32.8029C117.751 33.8996 118.405 34.8821 119.269 35.6605C120.1 36.3631 121.145 36.7629 122.233 36.7944C123.321 36.8258 124.387 36.487 125.257 35.8335V35.8432Z" fill="#0D050C"/>
<path d="M0 40.5208H0.233374V41.8916L1.38392 40.5208H1.59119V42.2458H1.35781V40.8749L0.215422 42.2458H0V40.5208Z" fill="black"/>
<path d="M2.58301 40.5208H2.81638V41.2894H3.90165V40.524H4.13503V42.249H3.90165V41.4853H2.81638V42.2458H2.58301V40.5208Z" fill="black"/>
<path d="M5.3851 42.1509C5.25207 42.0784 5.14229 41.9698 5.0685 41.8375C4.99098 41.699 4.95156 41.5425 4.95426 41.3838C4.9513 41.2256 4.99074 41.0696 5.0685 40.9318C5.14317 40.8006 5.25277 40.6927 5.3851 40.6201C5.52568 40.5436 5.68367 40.5048 5.84369 40.5075C5.98151 40.5051 6.11794 40.5353 6.24189 40.5956C6.35962 40.6504 6.45886 40.7383 6.52749 40.8485L6.34797 40.9628C6.2948 40.8798 6.21967 40.8131 6.13092 40.7702C6.04245 40.7273 5.94525 40.7056 5.84695 40.7066C5.72956 40.7046 5.61369 40.7333 5.51076 40.7898C5.41153 40.8449 5.33045 40.9277 5.27739 41.0281C5.22268 41.1372 5.1942 41.2576 5.1942 41.3797C5.1942 41.5019 5.22268 41.6223 5.27739 41.7314C5.33144 41.8307 5.41232 41.9127 5.51076 41.9681C5.61369 42.0246 5.72956 42.0533 5.84695 42.0513C5.94507 42.0522 6.04213 42.031 6.13092 41.9893C6.21923 41.9465 6.29425 41.8805 6.34797 41.7984L6.5226 41.9159C6.4567 42.0264 6.35961 42.1149 6.24353 42.1704C6.11991 42.2299 5.98409 42.2595 5.84695 42.2569C5.68641 42.2623 5.52723 42.2257 5.3851 42.1509Z" fill="black"/>
<path d="M8.48624 40.728H7.83345V42.2458H7.59518V40.728H6.94238V40.5208H8.48624V40.728Z" fill="black"/>
<path d="M9.13867 40.5208H9.37205V41.8916L10.5144 40.5208H10.7217V42.2458H10.503V40.8749L9.36062 42.2458H9.13867V40.5208Z" fill="black"/>
<path d="M12.9433 40.728H12.2905V42.2458H12.0571V40.728H11.4043V40.5208H12.9416L12.9433 40.728Z" fill="black"/>
<path d="M15.0808 40.5208L14.2192 42.453C14.1688 42.5867 14.0851 42.7052 13.976 42.7974C13.8808 42.8651 13.7664 42.9006 13.6496 42.8986C13.5701 42.8992 13.4911 42.886 13.4162 42.8594C13.3422 42.836 13.2746 42.7958 13.2188 42.7419L13.3265 42.5673C13.3671 42.6097 13.4161 42.6433 13.4702 42.666C13.5244 42.6888 13.5827 42.7002 13.6414 42.6995C13.7141 42.7011 13.785 42.6775 13.8422 42.6325C13.9136 42.5728 13.9696 42.4966 14.0054 42.4106L14.0804 42.2474L13.3101 40.5257H13.5533L14.2061 41.9944L14.8589 40.5257L15.0808 40.5208Z" fill="black"/>
<path d="M16.994 40.728H16.3412V42.2458H16.1079V40.728H15.4551V40.5208H16.994V40.728Z" fill="black"/>
<path d="M20.4003 40.5208V42.2458H20.167V40.728H19.0784V42.2458H18.8467V40.5208H20.4003Z" fill="black"/>
<path d="M22.7122 40.6184C22.8421 40.6908 22.949 40.7983 23.0207 40.9285C23.0937 41.0698 23.1318 41.2265 23.1318 41.3855C23.1318 41.5445 23.0937 41.7012 23.0207 41.8424C22.9495 41.9725 22.8432 42.08 22.7139 42.1525C22.579 42.2267 22.4271 42.2644 22.2732 42.2619C22.1419 42.2644 22.0118 42.2347 21.8946 42.1754C21.7807 42.1173 21.6848 42.0293 21.6172 41.9208V42.882H21.3789V40.5205H21.6025V40.8616C21.6694 40.7509 21.7654 40.6606 21.8799 40.6005C21.9994 40.5371 22.1331 40.5051 22.2683 40.5075C22.4235 40.5047 22.5766 40.543 22.7122 40.6184ZM22.5849 41.973C22.6825 41.9168 22.7623 41.8342 22.8151 41.7347C22.8718 41.6266 22.9004 41.5059 22.8983 41.3838C22.9006 41.2623 22.8719 41.1421 22.8151 41.0346C22.7618 40.9355 22.6821 40.853 22.5849 40.7963C22.4855 40.7399 22.3729 40.7107 22.2585 40.7115C22.1441 40.7099 22.0313 40.7392 21.9321 40.7963C21.8349 40.853 21.7553 40.9355 21.702 41.0346C21.6452 41.1421 21.6165 41.2623 21.6188 41.3838C21.6167 41.5059 21.6453 41.6266 21.702 41.7347C21.7548 41.8342 21.8346 41.9168 21.9321 41.973C22.0318 42.0288 22.1443 42.0575 22.2585 42.0562C22.3727 42.0571 22.4851 42.0284 22.5849 41.973Z" fill="black"/>
<path d="M24.2232 42.1492C24.0912 42.0759 23.9822 41.9675 23.9082 41.8359C23.8332 41.697 23.7939 41.5417 23.7939 41.3838C23.7939 41.226 23.8332 41.0707 23.9082 40.9318C23.9819 40.8004 24.091 40.6924 24.2232 40.6201C24.3615 40.5462 24.5159 40.5076 24.6728 40.5076C24.8296 40.5076 24.984 40.5462 25.1224 40.6201C25.2541 40.6925 25.3626 40.8005 25.4357 40.9318C25.5096 41.071 25.5482 41.2262 25.5482 41.3838C25.5482 41.5415 25.5096 41.6967 25.4357 41.8359C25.3622 41.9672 25.2537 42.0757 25.1224 42.1492C24.984 42.2231 24.8296 42.2617 24.6728 42.2617C24.5159 42.2617 24.3615 42.2231 24.2232 42.1492ZM25.0016 41.973C25.0991 41.9172 25.1784 41.8344 25.2301 41.7347C25.2838 41.6255 25.3118 41.5055 25.3118 41.3838C25.3118 41.2622 25.2838 41.1421 25.2301 41.033C25.1789 40.9329 25.0995 40.85 25.0016 40.7947C24.902 40.7389 24.7894 40.7102 24.6752 40.7115C24.561 40.7102 24.4485 40.7389 24.3488 40.7947C24.2517 40.851 24.1725 40.9336 24.1204 41.033C24.0657 41.1418 24.0372 41.262 24.0372 41.3838C24.0372 41.5057 24.0657 41.6258 24.1204 41.7347C24.173 41.8338 24.2521 41.9163 24.3488 41.973C24.4485 42.0288 24.561 42.0575 24.6752 42.0562C24.7894 42.0575 24.902 42.0288 25.0016 41.973Z" fill="black"/>
<path d="M26.3747 40.5208H26.6015V41.8916L27.7521 40.5208H27.9593V42.2458H27.726V40.8749L26.5836 42.2458H26.373L26.3747 40.5208Z" fill="black"/>
<path d="M30.0463 41.4949C30.079 41.5288 30.1047 41.569 30.1218 41.613C30.1389 41.657 30.1471 41.7039 30.1458 41.7511C30.1465 41.8506 30.1098 41.9467 30.043 42.0204C29.9667 42.1041 29.87 42.1665 29.7623 42.2015C29.6382 42.246 29.5074 42.2686 29.3755 42.2684C29.2512 42.2684 29.1275 42.2502 29.0083 42.2146C28.8939 42.1807 28.787 42.1253 28.6934 42.0514L28.7717 41.8768C28.8551 41.9383 28.9484 41.9852 29.0475 42.0155C29.1505 42.0479 29.2578 42.0644 29.3657 42.0644C29.5019 42.0695 29.637 42.0386 29.7574 41.9747C29.803 41.9519 29.8414 41.917 29.8685 41.8738C29.8956 41.8306 29.9102 41.7808 29.9108 41.7299C29.9113 41.686 29.8998 41.6427 29.8777 41.6048C29.8556 41.5669 29.8236 41.5357 29.7852 41.5144C29.6806 41.4583 29.5626 41.4318 29.4441 41.4377H29.1487V41.2745H29.431C29.54 41.2799 29.6482 41.2538 29.7427 41.1995C29.7784 41.1803 29.8081 41.1518 29.8288 41.117C29.8495 41.0822 29.8604 41.0425 29.8602 41.002C29.8604 40.9572 29.8481 40.9131 29.8247 40.8748C29.8014 40.8365 29.768 40.8054 29.728 40.7849C29.6218 40.7284 29.5023 40.7014 29.3821 40.7066C29.1896 40.7086 29.0004 40.7567 28.8304 40.847L28.7652 40.6674C28.9618 40.5614 29.1815 40.5054 29.4049 40.5042C29.526 40.5026 29.6465 40.5225 29.7607 40.563C29.8569 40.5944 29.943 40.6507 30.0104 40.7262C30.0695 40.7932 30.1015 40.88 30.1001 40.9694C30.1009 41.0552 30.0688 41.1382 30.0104 41.2011C29.9443 41.2732 29.8596 41.3258 29.7656 41.3529C29.871 41.3718 29.9686 41.4211 30.0463 41.4949Z" fill="black"/>
<path d="M32.4521 41.7787C32.456 41.8457 32.4431 41.9125 32.4146 41.9732C32.3861 42.0339 32.3429 42.0866 32.2889 42.1264C32.142 42.2159 31.971 42.258 31.7993 42.2471H31.0078V40.5205H31.7683C31.9304 40.5116 32.0914 40.552 32.2302 40.6364C32.2736 40.6676 32.3103 40.7071 32.3383 40.7527C32.3664 40.7982 32.3851 40.8488 32.3934 40.9016C32.4018 40.9544 32.3996 41.0084 32.387 41.0603C32.3743 41.1123 32.3516 41.1612 32.3199 41.2043C32.2651 41.2744 32.1907 41.3266 32.1061 41.3544C32.2068 41.3683 32.2985 41.4197 32.3627 41.4985C32.4269 41.5772 32.4588 41.6774 32.4521 41.7787ZM31.2281 41.2892H31.7471C31.8543 41.2957 31.9609 41.2689 32.0523 41.2124C32.0875 41.1884 32.116 41.1556 32.1349 41.1173C32.1537 41.0789 32.1624 41.0364 32.16 40.9938C32.1624 40.9513 32.1538 40.909 32.1349 40.871C32.116 40.8329 32.0875 40.8004 32.0523 40.7767C31.9597 40.7236 31.8536 40.6986 31.7471 40.7049H31.2281V41.2892ZM32.111 41.9909C32.1478 41.9661 32.1774 41.9321 32.1969 41.8923C32.2163 41.8525 32.225 41.8083 32.222 41.7641C32.225 41.7206 32.2173 41.6771 32.1997 41.6373C32.1821 41.5975 32.155 41.5626 32.1208 41.5356C32.0221 41.4782 31.9082 41.4526 31.7944 41.4621H31.2232V42.0627H31.7716C31.8892 42.0708 32.0068 42.046 32.111 41.9909Z" fill="black"/>
<path d="M33.5865 42.1492C33.4545 42.0759 33.3455 41.9675 33.2715 41.8359C33.1965 41.697 33.1572 41.5417 33.1572 41.3838C33.1572 41.226 33.1965 41.0707 33.2715 40.9318C33.3452 40.8004 33.4543 40.6924 33.5865 40.6201C33.7245 40.5462 33.8787 40.5076 34.0353 40.5076C34.1918 40.5076 34.346 40.5462 34.484 40.6201C34.6161 40.692 34.7248 40.8001 34.7974 40.9318C34.8724 41.0707 34.9116 41.226 34.9116 41.3838C34.9116 41.5417 34.8724 41.697 34.7974 41.8359C34.7244 41.9677 34.6158 42.0763 34.484 42.1492C34.346 42.2231 34.1918 42.2617 34.0353 42.2617C33.8787 42.2617 33.7245 42.2231 33.5865 42.1492ZM34.3649 41.973C34.462 41.9167 34.5412 41.8341 34.5934 41.7347C34.6471 41.6255 34.675 41.5055 34.675 41.3838C34.675 41.2622 34.6471 41.1421 34.5934 41.033C34.5417 40.9332 34.4624 40.8505 34.3649 40.7947C34.2644 40.7413 34.1523 40.7133 34.0385 40.7133C33.9247 40.7133 33.8126 40.7413 33.7121 40.7947C33.615 40.851 33.5358 40.9336 33.4836 41.033C33.4278 41.1415 33.3987 41.2618 33.3987 41.3838C33.3987 41.5059 33.4278 41.6262 33.4836 41.7347C33.5363 41.8338 33.6154 41.9163 33.7121 41.973C33.8126 42.0264 33.9247 42.0544 34.0385 42.0544C34.1523 42.0544 34.2644 42.0264 34.3649 41.973Z" fill="black"/>
<path d="M37.4103 42.0434V42.6636H37.19V42.2458H35.6461V42.6636H35.4258V42.0434H35.5253C35.6412 42.0434 35.7195 41.952 35.7603 41.7872C35.8107 41.5609 35.8391 41.3302 35.8452 41.0985L35.8697 40.5208H37.141V42.0434H37.4103ZM35.997 41.717C35.9846 41.8422 35.9265 41.9584 35.8338 42.0434H36.9093V40.728H36.0802L36.0606 41.1115C36.0537 41.3146 36.0324 41.5169 35.997 41.717Z" fill="black"/>
<path d="M38.4544 42.1509C38.3214 42.0785 38.2116 41.9698 38.1378 41.8375C38.0603 41.6991 38.0209 41.5425 38.0236 41.3839C38.0206 41.2257 38.0601 41.0696 38.1378 40.9318C38.2125 40.8006 38.3221 40.6927 38.4544 40.6201C38.5944 40.5436 38.7519 40.5048 38.9114 40.5075C39.0492 40.5049 39.1857 40.5351 39.3096 40.5956C39.4249 40.6509 39.5213 40.7389 39.587 40.8486L39.414 40.9677C39.3609 40.8847 39.2857 40.818 39.197 40.7751C39.1078 40.7326 39.0102 40.7108 38.9114 40.7115C38.794 40.7098 38.6782 40.7384 38.5752 40.7947C38.4765 40.8499 38.3959 40.9327 38.3435 41.033C38.2877 41.1418 38.2587 41.2624 38.2587 41.3847C38.2587 41.507 38.2877 41.6275 38.3435 41.7364C38.3969 41.8355 38.4772 41.9175 38.5752 41.973C38.6782 42.0293 38.794 42.0579 38.9114 42.0562C39.01 42.0568 39.1075 42.0356 39.197 41.9942C39.2853 41.9514 39.3603 41.8854 39.414 41.8033L39.587 41.9208C39.5218 42.0319 39.4246 42.1206 39.308 42.1754C39.1844 42.235 39.0485 42.2646 38.9114 42.2619C38.752 42.2651 38.5946 42.2268 38.4544 42.1509Z" fill="black"/>
<path d="M41.5458 40.728H40.893V42.2458H40.6596V40.728H40.0068V40.5208H41.5458V40.728Z" fill="black"/>
<path d="M43.6601 41.7788C43.664 41.8457 43.6511 41.9125 43.6226 41.9732C43.5941 42.0339 43.5509 42.0866 43.4969 42.1264C43.3477 42.2175 43.1736 42.2598 42.9992 42.2471H42.2158V40.5205H42.9763C43.1384 40.5116 43.2994 40.552 43.4382 40.6364C43.4816 40.6676 43.5183 40.7071 43.5463 40.7527C43.5744 40.7982 43.5931 40.8488 43.6014 40.9016C43.6098 40.9544 43.6076 41.0084 43.595 41.0603C43.5824 41.1123 43.5596 41.1612 43.5279 41.2043C43.4731 41.2744 43.3987 41.3266 43.3141 41.3544C43.4148 41.3683 43.5065 41.4197 43.5707 41.4985C43.6349 41.5772 43.6669 41.6774 43.6601 41.7788ZM42.4361 41.2892H42.9551C43.0628 41.2955 43.1699 41.2687 43.2619 41.2125C43.2968 41.1881 43.3248 41.1552 43.3434 41.1169C43.3619 41.0786 43.3704 41.0362 43.368 40.9938C43.3703 40.9515 43.3617 40.9094 43.3432 40.8715C43.3246 40.8335 43.2966 40.8008 43.2619 40.7767C43.1687 40.7238 43.0622 40.6989 42.9551 40.7049H42.4312L42.4361 41.2892ZM43.319 41.9909C43.3558 41.9661 43.3854 41.9321 43.4049 41.8923C43.4243 41.8525 43.433 41.8083 43.43 41.7641C43.433 41.7206 43.4254 41.6771 43.4077 41.6373C43.3901 41.5975 43.363 41.5626 43.3288 41.5356C43.2301 41.4782 43.1162 41.4526 43.0024 41.4621H42.4312V42.0627H42.9796C43.0972 42.0709 43.2148 42.046 43.319 41.9909Z" fill="black"/>
<path d="M46.0395 41.4524H44.5968C44.6005 41.535 44.6207 41.6159 44.6563 41.6905C44.6919 41.7651 44.7422 41.8318 44.8041 41.8865C44.9351 41.9985 45.1036 42.0568 45.2757 42.0497C45.377 42.0506 45.4775 42.0312 45.5711 41.9926C45.66 41.956 45.7397 41.9003 45.8045 41.8294L45.9351 41.9811C45.858 42.0734 45.7594 42.1452 45.6478 42.19C45.5279 42.2396 45.399 42.264 45.2692 42.2618C45.1055 42.2649 44.9438 42.2261 44.7992 42.1492C44.663 42.0776 44.5499 41.969 44.4728 41.8359C44.3951 41.6981 44.3556 41.542 44.3586 41.3838C44.3556 41.2263 44.3932 41.0706 44.4679 40.9318C44.5371 40.8015 44.6418 40.6934 44.7698 40.6201C44.9005 40.5441 45.0495 40.5052 45.2007 40.5075C45.3514 40.5046 45.5 40.5436 45.6299 40.6201C45.7565 40.6934 45.86 40.8008 45.9285 40.9302C46.0023 41.0698 46.0394 41.2259 46.0362 41.3838L46.0395 41.4524ZM44.7894 40.8632C44.6754 40.9729 44.6066 41.1214 44.5968 41.2794H45.8208C45.811 41.1214 45.7423 40.9729 45.6282 40.8632C45.5123 40.7612 45.3632 40.705 45.2088 40.705C45.0544 40.705 44.9053 40.7612 44.7894 40.8632Z" fill="black"/>
<path d="M46.8867 40.5208H47.1201V41.2894H48.2054V40.524H48.4371V42.249H48.2054V41.4853H47.1201V42.2458H46.8867V40.5208Z" fill="black"/>
<path d="M49.4277 40.5208H49.6611V41.2894H50.7545V40.524H50.9879V42.249H50.7545V41.4853H49.6611V42.2458H49.4277V40.5208Z" fill="black"/>
<path d="M53.1898 41.2764C53.2482 41.326 53.2941 41.3886 53.3238 41.4592C53.3536 41.5297 53.3664 41.6063 53.3612 41.6827C53.3657 41.7627 53.3514 41.8426 53.3194 41.9161C53.2873 41.9895 53.2385 42.0544 53.1767 42.1054C53.0237 42.2131 52.8378 42.2639 52.6512 42.249H51.9707V40.5208H52.2024V41.1262H52.692C52.8703 41.1175 53.0461 41.1705 53.1898 41.2764ZM53.0005 41.9765C53.0427 41.9406 53.0759 41.8954 53.0974 41.8444C53.119 41.7933 53.1283 41.738 53.1245 41.6827C53.1289 41.6292 53.12 41.5755 53.0987 41.5262C53.0773 41.477 53.0442 41.4338 53.0021 41.4004C52.8941 41.3306 52.7665 41.2974 52.6382 41.3057H52.2024V42.0728H52.6382C52.7665 42.084 52.8947 42.0499 53.0005 41.9765ZM53.6533 40.5208H53.8867V42.2458H53.6533V40.5208Z" fill="black"/>
<path d="M55.9509 42.2458L55.4026 41.5244L54.8526 42.2458H54.5898L55.272 41.3612L54.6192 40.5208H54.882L55.3993 41.1964L55.9183 40.5208H56.1745L55.5217 41.3612L56.2104 42.2458H55.9509Z" fill="black"/>
<path d="M66.8135 40.5208H67.0469V41.8916L68.1974 40.5208H68.4047V42.2458H68.1713V40.8749L67.0289 42.2458H66.8135V40.5208Z" fill="black"/>
<path d="M69.3975 40.5208H69.6308V41.2894H70.7161V40.524H70.9495V42.249H70.7161V41.4853H69.6308V42.2458H69.3975V40.5208Z" fill="black"/>
<path d="M71.9395 40.5208H72.1712V41.2894H73.2565V40.524H73.4898V42.249H73.2565V41.4853H72.1712V42.2458H71.9395V40.5208Z" fill="black"/>
<path d="M74.7453 42.1492C74.6133 42.0759 74.5043 41.9675 74.4303 41.8359C74.3543 41.6973 74.3145 41.5419 74.3145 41.3838C74.3145 41.2258 74.3543 41.0703 74.4303 40.9318C74.504 40.8004 74.6131 40.6924 74.7453 40.6201C74.8833 40.5462 75.0375 40.5076 75.1941 40.5076C75.3506 40.5076 75.5048 40.5462 75.6429 40.6201C75.7749 40.692 75.8836 40.8001 75.9562 40.9318C76.0312 41.0707 76.0704 41.226 76.0704 41.3838C76.0704 41.5417 76.0312 41.697 75.9562 41.8359C75.8832 41.9677 75.7746 42.0763 75.6429 42.1492C75.5048 42.2231 75.3506 42.2617 75.1941 42.2617C75.0375 42.2617 74.8833 42.2231 74.7453 42.1492ZM75.5237 41.973C75.6207 41.9171 75.6995 41.8343 75.7506 41.7347C75.8053 41.6258 75.8337 41.5057 75.8337 41.3838C75.8337 41.262 75.8053 41.1418 75.7506 41.033C75.7 40.933 75.6211 40.8501 75.5237 40.7947C75.4232 40.7413 75.3111 40.7133 75.1973 40.7133C75.0835 40.7133 74.9714 40.7413 74.8709 40.7947C74.773 40.8505 74.6931 40.9332 74.6408 41.033C74.5861 41.1418 74.5576 41.262 74.5576 41.3838C74.5576 41.5057 74.5861 41.6258 74.6408 41.7347C74.6936 41.8342 74.7733 41.9168 74.8709 41.973C74.9714 42.0264 75.0835 42.0544 75.1973 42.0544C75.3111 42.0544 75.4232 42.0264 75.5237 41.973Z" fill="black"/>
<path d="M78.3434 41.7788C78.347 41.8457 78.3339 41.9124 78.3054 41.9731C78.277 42.0337 78.2339 42.0864 78.1802 42.1264C78.0302 42.2173 77.8558 42.2595 77.6808 42.2472H76.8975V40.5205H77.658C77.8201 40.5115 77.9812 40.5519 78.1198 40.6364C78.1728 40.6722 78.2156 40.7211 78.2442 40.7782C78.2728 40.8354 78.2861 40.899 78.283 40.9628C78.2852 41.0491 78.2582 41.1336 78.2063 41.2027C78.1505 41.2725 78.0757 41.3246 77.9909 41.3528C78.093 41.3651 78.1866 41.4162 78.2521 41.4955C78.3177 41.5747 78.3504 41.6761 78.3434 41.7788ZM77.1194 41.2892H77.6384C77.7461 41.2957 77.8532 41.269 77.9452 41.2125C77.98 41.1881 78.0081 41.1552 78.0266 41.1169C78.0452 41.0787 78.0537 41.0363 78.0513 40.9938C78.0536 40.9516 78.045 40.9095 78.0264 40.8715C78.0079 40.8335 77.9799 40.8009 77.9452 40.7768C77.852 40.7236 77.7455 40.6986 77.6384 40.705H77.1194V41.2892ZM78.0023 41.9909C78.0393 41.9664 78.0691 41.9325 78.0886 41.8926C78.1081 41.8527 78.1166 41.8084 78.1133 41.7641C78.1167 41.7206 78.1093 41.6769 78.0916 41.6371C78.0739 41.5972 78.0466 41.5623 78.0121 41.5356C77.9135 41.478 77.7995 41.4524 77.6857 41.4622H77.1145V42.0627H77.6629C77.7827 42.0721 77.9027 42.0472 78.0088 41.9909H78.0023Z" fill="black"/>
<path d="M80.3279 40.6774C80.3911 40.7434 80.4397 40.822 80.4707 40.908C80.5016 40.9941 80.5141 41.0856 80.5074 41.1768V42.2458H80.2936V41.9781C80.2383 42.0688 80.1578 42.1414 80.0618 42.187C79.9486 42.2399 79.8245 42.2657 79.6995 42.2621C79.5354 42.271 79.3733 42.2225 79.2409 42.125C79.1882 42.0815 79.1456 42.0272 79.116 41.9656C79.0864 41.9041 79.0705 41.8369 79.0694 41.7686C79.0683 41.7003 79.0821 41.6326 79.1097 41.5702C79.1374 41.5077 79.1782 41.452 79.2295 41.4069C79.3774 41.3048 79.5564 41.2574 79.7354 41.2731H80.2822V41.167C80.2866 41.1049 80.2778 41.0425 80.2564 40.984C80.235 40.9255 80.2015 40.8722 80.1581 40.8276C80.056 40.7441 79.9258 40.7026 79.7942 40.7117C79.6869 40.7114 79.5803 40.7296 79.4792 40.7655C79.3842 40.7991 79.2962 40.85 79.2197 40.9157L79.1153 40.7411C79.2088 40.667 79.3158 40.6116 79.4303 40.5779C79.555 40.5364 79.6856 40.5155 79.817 40.5159C80.0016 40.5033 80.1841 40.561 80.3279 40.6774ZM80.0651 41.983C80.161 41.9207 80.2343 41.8291 80.274 41.7219V41.4526H79.7338C79.4384 41.4526 79.2915 41.5554 79.2915 41.7611C79.2897 41.8071 79.2991 41.8528 79.3191 41.8944C79.339 41.9359 79.3687 41.9719 79.4058 41.9993C79.5022 42.0629 79.6169 42.0933 79.7322 42.0858C79.8501 42.0864 79.9657 42.053 80.0651 41.9895V41.983Z" fill="black"/>
<path d="M83.2529 42.0434V42.6799H83.0326V42.2458H81.4561V40.5208H81.6894V42.0434H82.7421V40.5208H82.9738V42.0434H83.2529Z" fill="black"/>
<path d="M84.0264 40.5208H84.2597V41.8916L85.4103 40.5208H85.6176V42.2458H85.3842V40.8749L84.2418 42.2458H84.0313L84.0264 40.5208Z" fill="black"/>
<path d="M86.6113 40.5207H86.8431V41.8916L87.9952 40.5207H88.2009V42.2457H87.9642V40.8748L86.8219 42.2457H86.613L86.6113 40.5207ZM87.0405 40.16C86.9961 40.1212 86.9608 40.0729 86.9374 40.0187C86.9139 39.9645 86.9029 39.9057 86.9051 39.8467H87.0683C87.0677 39.8853 87.0756 39.9236 87.0914 39.9588C87.1071 39.9941 87.1305 40.0254 87.1597 40.0507C87.2241 40.1041 87.3062 40.1315 87.3898 40.1274C87.4739 40.1314 87.5565 40.1041 87.6215 40.0507C87.6509 40.0255 87.6745 39.9942 87.6906 39.959C87.7066 39.9237 87.7148 39.8854 87.7145 39.8467H87.8777C87.8803 39.9057 87.8694 39.9646 87.8459 40.0189C87.8225 40.0731 87.7871 40.1214 87.7423 40.16C87.6385 40.2334 87.5145 40.2727 87.3873 40.2727C87.2602 40.2727 87.1362 40.2334 87.0324 40.16H87.0405Z" fill="black"/>
<path d="M89.4179 56.5026C85.6023 58.295 81.4378 59.2223 77.2221 59.2182C66.2176 59.2182 56.6427 53.0167 51.7827 43.9314H50.8818C54.3875 50.7423 60.3948 55.9307 67.6433 58.4081C74.8917 60.8856 82.818 60.4594 89.759 57.219L89.4179 56.5026Z" fill="black"/>
<path d="M77.2227 1.49131e-05C72.8075 -0.00442273 68.4475 0.981565 64.4639 2.88537L64.8033 3.60344C68.6789 1.74301 72.9237 0.779141 77.2227 0.783369C89.5638 0.783369 100.115 8.57611 104.222 19.499H105.068C102.988 13.7842 99.2009 8.84763 94.2196 5.35931C89.2382 1.871 83.3041 -9.08215e-05 77.2227 1.49131e-05Z" fill="black"/>
<path d="M59.3714 19.4988C61.1988 16.385 63.8084 13.8031 66.9415 12.009C70.0746 10.2149 73.6223 9.27106 77.2327 9.27106C80.8431 9.27106 84.3908 10.2149 87.5239 12.009C90.657 13.8031 93.2666 16.385 95.094 19.4988H96.0585C94.1889 16.1467 91.4581 13.3546 88.1485 11.4109C84.8388 9.46718 81.0701 8.44238 77.2319 8.44238C73.3936 8.44238 69.625 9.46718 66.3153 11.4109C63.0056 13.3546 60.2749 16.1467 58.4053 19.4988H59.3714Z" fill="black"/>
<path d="M95.3162 40.116C93.5188 43.3337 90.8953 46.0136 87.7165 47.8791C84.5377 49.7446 80.9187 50.728 77.2329 50.728C73.5472 50.728 69.9282 49.7446 66.7494 47.8791C63.5706 46.0136 60.9471 43.3337 59.1497 40.116H58.1934C60.0293 43.5719 62.7713 46.4629 66.1253 48.479C69.4793 50.4952 73.3188 51.5603 77.2321 51.5603C81.1454 51.5603 84.985 50.4952 88.339 48.479C91.693 46.4629 94.435 43.5719 96.2709 40.116H95.3162Z" fill="black"/>
<path d="M129.858 40.116H95.7051V40.9793H129.858V40.116Z" fill="black"/>
</g>
<defs>
<clipPath id="clip0">
<rect width="129.857" height="60" fill="white"/>
</clipPath>
</defs>
</svg>
