<svg width="13" height="10" viewBox="0 0 13 10" fill="none" xmlns="http://www.w3.org/2000/svg">
<path d="M5.2803 1.28033C5.5732 0.987437 5.5732 0.512558 5.2803 0.219668C4.9874 -0.0732225 4.5126 -0.0732225 4.21967 0.219668L0.21967 4.2197C0.0732198 4.3661 0 4.5581 0 4.75C0 4.8517 0.02024 4.9487 0.05691 5.0371C0.09351 5.1255 0.14776 5.2084 0.21967 5.2803L4.21967 9.2803C4.5126 9.5732 4.9874 9.5732 5.2803 9.2803C5.5732 8.9874 5.5732 8.5126 5.2803 8.2197L2.56066 5.5H12.25C12.6642 5.5 13 5.1642 13 4.75C13 4.3358 12.6642 4 12.25 4H2.56066L5.2803 1.28033Z" fill="black"/>
</svg>
