<svg width="171" height="144" viewBox="0 0 171 144" fill="none" xmlns="http://www.w3.org/2000/svg">
<rect x="29.9219" y="48.6235" width="46.7533" height="46.7533" rx="23.3766" fill="#FFCD57"/>
<path d="M85.0906 36C85.0906 36 70.9088 24 56.727 24C42.5452 24 21.2725 36 21.2725 36V120C21.2725 120 42.5452 108 56.727 108C70.9088 108 85.0906 120 85.0906 120C94.5428 112.002 104.002 108 113.454 108C122.906 108 134.727 112.002 148.909 120V36C134.727 28.002 122.906 24 113.454 24C104.002 24 94.5428 28.002 85.0906 36Z" stroke="white" stroke-width="2" stroke-linecap="square"/>
<path d="M93.5068 63.9482C100.432 59.3432 109.232 57.0391 116.156 57.0391C123.081 57.0391 132.78 59.3767 140.26 63.9482M93.5068 71.9576C100.432 67.3527 109.232 65.0485 116.156 65.0485C123.081 65.0485 131.377 66.8572 140.26 71.9576M93.5068 81.3508C100.432 76.7459 109.232 74.4417 116.156 74.4417C123.081 74.4417 130.909 76.6754 140.26 81.3508" stroke="white" stroke-width="2" stroke-linecap="square"/>
<path d="M85.0908 36V120" stroke="white" stroke-width="2" stroke-linecap="round"/>
<path d="M37.4023 83.2209C37.4023 77.2599 45.3504 77.2599 49.3244 73.2858C51.3114 71.2988 45.3504 71.2988 45.3504 61.3638C45.3504 54.7411 47.9991 51.4287 53.2985 51.4287C58.5978 51.4287 61.2465 54.7411 61.2465 61.3638C61.2465 71.2988 55.2855 71.2988 57.2725 73.2858C61.2465 77.2599 69.1946 77.2599 69.1946 83.2209" stroke="white" stroke-width="2" stroke-linecap="square"/>
</svg>
