<svg width="108" height="104" viewBox="0 0 108 104" fill="none" xmlns="http://www.w3.org/2000/svg">
<rect x="24.7119" y="45.0527" width="45.6" height="45.6" rx="22.8" fill="#FFCD57"/>
<path d="M98.7143 53.9286V37.6429C98.7143 35.4832 97.8564 33.4121 96.3293 31.885C94.8022 30.3579 92.731 29.5 90.5714 29.5H9.14286C6.98324 29.5 4.91207 30.3579 3.38499 31.885C1.85791 33.4121 1 35.4832 1 37.6429V94.6429C1 96.8025 1.85791 98.8736 3.38499 100.401C4.91207 101.928 6.98324 102.786 9.14286 102.786H90.5714C92.731 102.786 94.8022 101.928 96.3293 100.401C97.8564 98.8736 98.7143 96.8025 98.7143 94.6429V74.2857" stroke="white" stroke-width="2" stroke-linecap="round" stroke-linejoin="round"/>
<path d="M21.3574 16.3566L78.4307 1.13759C78.9526 0.99835 79.497 0.964357 80.0322 1.0376C80.5674 1.11083 81.0827 1.28984 81.548 1.56418C82.0133 1.83853 82.4194 2.20272 82.7426 2.63556C83.0658 3.0684 83.2996 3.56121 83.4304 4.08531L86.5003 16.3566" stroke="white" stroke-width="2" stroke-linecap="round" stroke-linejoin="round"/>
<path d="M102.786 53.9287H82.4289C80.1803 53.9287 78.3574 55.7516 78.3574 58.0001V70.2144C78.3574 72.463 80.1803 74.2859 82.4289 74.2859H102.786C105.035 74.2859 106.857 72.463 106.857 70.2144V58.0001C106.857 55.7516 105.035 53.9287 102.786 53.9287Z" stroke="white" stroke-width="2" stroke-linecap="round" stroke-linejoin="round"/>
<path d="M41.5111 74.7467V77.3507H51.0451V78.7787H41.5111V84.7007H39.3271V78.7787H34.8331V77.3507H39.3271V55.3007H49.9111C53.6071 55.3007 56.4911 56.1547 58.5631 57.8627C60.6631 59.5427 61.7131 61.9227 61.7131 65.0027C61.7131 68.0827 60.6631 70.4767 58.5631 72.1847C56.4911 73.8927 53.6071 74.7467 49.9111 74.7467H41.5111ZM41.5111 57.2327V72.8567H49.9531C53.0331 72.8567 55.3991 72.1847 57.0511 70.8407C58.7031 69.4687 59.5291 67.5367 59.5291 65.0447C59.5291 62.5247 58.7031 60.5927 57.0511 59.2487C55.4271 57.9047 53.0611 57.2327 49.9531 57.2327H41.5111Z" fill="white"/>
</svg>
