<svg width="102" height="102" viewBox="0 0 102 102" fill="none" xmlns="http://www.w3.org/2000/svg">
<rect x="27.7852" y="30.2842" width="46.1806" height="45.7569" rx="22.8784" fill="#FFCD57"/>
<path d="M50.8751 1C60.7394 1 70.3822 3.92512 78.5841 9.40545C86.786 14.8858 93.1786 22.6752 96.9535 31.7887C100.728 40.9021 101.716 50.9303 99.7916 60.6051C97.8672 70.2799 93.1171 79.1668 86.142 86.1419C79.1668 93.1171 70.28 97.8672 60.6052 99.7916C50.9304 101.716 40.9022 100.728 31.7887 96.9535C22.6753 93.1785 14.8859 86.7859 9.40556 78.584C3.92524 70.3821 1.00012 60.7393 1.00012 50.875C0.969992 36.5848 6.46913 22.8369 16.3463 12.5096" stroke="white" stroke-width="2" stroke-linecap="round" stroke-linejoin="round"/>
<path d="M50.875 29.3691V54.2333L66.5764 62.3141" stroke="white" stroke-width="2" stroke-linecap="round" stroke-linejoin="round"/>
</svg>
